<svg width="130" height="51" viewBox="0 0 130 51" fill="none" xmlns="http://www.w3.org/2000/svg">
<path d="M5.84481 51L73 42.1997L67.1552 0L0 8.80025L5.84481 51Z" fill="#81007F"/>
<path d="M45.408 36.448C43.04 36.448 40.9067 35.9467 39.008 34.944C37.1307 33.9413 35.648 32.5547 34.56 30.784C33.4933 29.0133 32.96 27.0187 32.96 24.8C32.96 22.5813 33.4933 20.5867 34.56 18.816C35.648 17.0453 37.1307 15.6587 39.008 14.656C40.9067 13.6533 43.04 13.152 45.408 13.152C47.776 13.152 49.8987 13.6533 51.776 14.656C53.6747 15.6587 55.1573 17.0453 56.224 18.816C57.312 20.5867 57.856 22.5813 57.856 24.8C57.856 27.0187 57.312 29.0133 56.224 30.784C55.1573 32.5547 53.6747 33.9413 51.776 34.944C49.8987 35.9467 47.776 36.448 45.408 36.448ZM45.408 31.2C46.5387 31.2 47.5627 30.9333 48.48 30.4C49.3973 29.8667 50.1227 29.12 50.656 28.16C51.1893 27.1787 51.456 26.0587 51.456 24.8C51.456 23.5413 51.1893 22.432 50.656 21.472C50.1227 20.4907 49.3973 19.7333 48.48 19.2C47.5627 18.6667 46.5387 18.4 45.408 18.4C44.2773 18.4 43.2533 18.6667 42.336 19.2C41.4187 19.7333 40.6933 20.4907 40.16 21.472C39.6267 22.432 39.36 23.5413 39.36 24.8C39.36 26.0587 39.6267 27.1787 40.16 28.16C40.6933 29.12 41.4187 29.8667 42.336 30.4C43.2533 30.9333 44.2773 31.2 45.408 31.2ZM70.2043 18.656H76.2523V25.088H82.4923V18.656H88.5723V36H82.4923V29.92H76.2523V36H70.2043V18.656ZM99.745 18.368C102.625 18.368 104.822 19.0293 106.337 20.352C107.852 21.6533 108.609 23.6587 108.609 26.368V36H102.945V33.76C102.07 35.4453 100.364 36.288 97.825 36.288C96.481 36.288 95.3183 36.0533 94.337 35.584C93.3557 35.1147 92.609 34.4853 92.097 33.696C91.6063 32.8853 91.361 31.968 91.361 30.944C91.361 29.3013 91.9903 28.032 93.249 27.136C94.5077 26.2187 96.449 25.76 99.073 25.76H102.529C102.422 23.9253 101.196 23.008 98.849 23.008C98.017 23.008 97.1743 23.1467 96.321 23.424C95.4677 23.68 94.7423 24.0427 94.145 24.512L92.097 20.384C93.057 19.744 94.2197 19.2533 95.585 18.912C96.9717 18.5493 98.3583 18.368 99.745 18.368ZM99.521 32.448C100.225 32.448 100.844 32.2773 101.377 31.936C101.91 31.5947 102.294 31.0933 102.529 30.432V28.928H99.905C98.1343 28.928 97.249 29.5147 97.249 30.688C97.249 31.2213 97.4517 31.648 97.857 31.968C98.2623 32.288 98.817 32.448 99.521 32.448ZM120.971 36.288C119.051 36.288 117.333 35.904 115.819 35.136C114.304 34.368 113.12 33.3013 112.267 31.936C111.435 30.5707 111.019 29.024 111.019 27.296C111.019 25.568 111.435 24.032 112.267 22.688C113.12 21.3227 114.304 20.2667 115.819 19.52C117.333 18.752 119.051 18.368 120.971 18.368C122.933 18.368 124.629 18.7947 126.059 19.648C127.488 20.48 128.501 21.6427 129.099 23.136L124.395 25.536C123.605 23.9787 122.453 23.2 120.939 23.2C119.851 23.2 118.944 23.5627 118.219 24.288C117.515 25.0133 117.163 26.016 117.163 27.296C117.163 28.5973 117.515 29.6213 118.219 30.368C118.944 31.0933 119.851 31.456 120.939 31.456C122.453 31.456 123.605 30.6773 124.395 29.12L129.099 31.52C128.501 33.0133 127.488 34.1867 126.059 35.04C124.629 35.872 122.933 36.288 120.971 36.288Z" fill="white"/>
</svg>
