<svg width="116" height="51" viewBox="0 0 116 51" fill="none" xmlns="http://www.w3.org/2000/svg">
<path d="M5.84481 51L73 42.1997L67.1552 0L0 8.80025L5.84481 51Z" fill="#81007F"/>
<path d="M34.4 14.6H53.12V19.496H40.64V23.112H46.432C49.1413 23.112 51.2213 23.688 52.672 24.84C54.1227 25.992 54.848 27.6453 54.848 29.8C54.848 32.0613 54.0373 33.832 52.416 35.112C50.7947 36.3707 48.5227 37 45.6 37H34.4V14.6ZM45.184 32.456C46.2507 32.456 47.0613 32.2427 47.616 31.816C48.1707 31.3893 48.448 30.7813 48.448 29.992C48.448 28.4133 47.36 27.624 45.184 27.624H40.64V32.456H45.184ZM75.087 19.656V37H69.007V24.488H64.623L64.495 27.144C64.4097 29.4053 64.1857 31.272 63.823 32.744C63.4603 34.216 62.863 35.368 62.031 36.2C61.199 37.0107 60.0577 37.416 58.607 37.416C57.8603 37.416 56.879 37.2773 55.663 37L55.919 32.04C56.303 32.0827 56.559 32.104 56.687 32.104C57.3483 32.104 57.8497 31.8907 58.191 31.464C58.5323 31.0373 58.767 30.472 58.895 29.768C59.023 29.0427 59.1083 28.0827 59.151 26.888L59.407 19.656H75.087ZM87.717 37.288C85.861 37.288 84.1863 36.904 82.693 36.136C81.1997 35.368 80.0263 34.3013 79.173 32.936C78.341 31.5707 77.925 30.024 77.925 28.296C77.925 26.5893 78.341 25.0533 79.173 23.688C80.0263 22.3227 81.189 21.2667 82.661 20.52C84.1543 19.752 85.8397 19.368 87.717 19.368C89.5943 19.368 91.2797 19.752 92.773 20.52C94.2663 21.2667 95.429 22.3227 96.261 23.688C97.093 25.032 97.509 26.568 97.509 28.296C97.509 30.024 97.093 31.5707 96.261 32.936C95.429 34.3013 94.2663 35.368 92.773 36.136C91.2797 36.904 89.5943 37.288 87.717 37.288ZM87.717 32.456C88.7837 32.456 89.6583 32.0933 90.341 31.368C91.0237 30.6213 91.365 29.5973 91.365 28.296C91.365 27.016 91.0237 26.0133 90.341 25.288C89.6583 24.5627 88.7837 24.2 87.717 24.2C86.6503 24.2 85.7757 24.5627 85.093 25.288C84.4103 26.0133 84.069 27.016 84.069 28.296C84.069 29.5973 84.4103 30.6213 85.093 31.368C85.7757 32.0933 86.6503 32.456 87.717 32.456ZM114.889 24.488H106.409V37H100.361V19.656H114.889V24.488Z" fill="white"/>
</svg>
