<svg width="78" height="59" viewBox="0 0 78 59" fill="none" xmlns="http://www.w3.org/2000/svg">
<path d="M22.0342 24.7208C21.4757 24.7349 20.9219 24.7725 20.3962 24.8359L20.1263 23.3782C20.7435 23.3008 21.3865 23.2562 22.0342 23.2397V24.7208ZM17.8053 25.3757L17.289 23.9838C17.9039 23.7937 18.5446 23.6364 19.1923 23.5191L19.4622 24.9767C18.8966 25.08 18.338 25.2138 17.8053 25.3757ZM15.4445 26.3334L14.724 25.0401C15.2684 24.7584 15.8293 24.5049 16.3996 24.2913L16.9135 25.6809C16.4137 25.8686 15.9185 26.0893 15.4445 26.3334ZM22.5036 22.2962C21.6306 22.2962 20.7717 22.3478 19.9526 22.4534L19.9456 22.4206C19.9245 22.2962 19.8517 22.1905 19.7485 22.1178C19.6452 22.0474 19.5208 22.0192 19.3941 22.0427C19.2697 22.0638 19.1641 22.1342 19.0937 22.2375C19.021 22.3431 18.9951 22.4675 19.0186 22.5919V22.599C18.3169 22.7234 17.6246 22.8924 16.9605 23.1013L16.9487 23.0731C16.9042 22.9557 16.8197 22.8618 16.7023 22.8079C16.5873 22.7539 16.4606 22.7492 16.3433 22.7938C16.2259 22.8384 16.1321 22.9252 16.0804 23.0402C16.0265 23.1529 16.0241 23.282 16.064 23.3994L16.0687 23.4087C15.4562 23.6388 14.8484 23.9134 14.264 24.2162L14.2523 24.1998C14.1936 24.0894 14.0927 24.012 13.9707 23.9768C13.851 23.9439 13.7243 23.958 13.614 24.019C13.3863 24.1434 13.3042 24.4321 13.4309 24.6575L14.8437 27.1972C14.9047 27.3075 15.0079 27.3873 15.1276 27.4201C15.1722 27.4342 15.2145 27.4389 15.2567 27.4389C15.3365 27.4389 15.4163 27.4178 15.4843 27.3802C17.5659 26.2231 19.8611 25.6597 22.5036 25.6597C22.7641 25.6597 22.9729 25.4485 22.9729 25.1879V22.768C22.9729 22.5051 22.7641 22.2962 22.5036 22.2962Z" fill="white"/>
<path d="M22.5033 26.1692C21.52 26.1692 20.5766 26.2513 19.6989 26.411C19.6801 26.4133 19.6567 26.418 19.6426 26.4227C18.6499 26.6058 17.7347 26.8851 16.8452 27.2771C16.8171 27.2865 16.7913 27.2959 16.7748 27.3052C15.8291 27.7277 14.9138 28.2723 13.9821 28.9718C13.9657 28.9835 13.9493 28.9952 13.9399 29.0023C12.9449 29.7557 12.039 30.5914 11.166 31.4035C9.51622 32.9339 7.9556 34.3821 5.86227 35.3187C5.81064 35.3327 5.76605 35.3515 5.74024 35.3727C4.9259 35.7247 4.09045 35.9806 3.19398 36.1472C3.15877 36.1496 3.12357 36.1566 3.10245 36.1637C2.28108 36.3092 1.39399 36.3843 0.471704 36.3843C0.213557 36.3843 0 36.5956 0 36.8561V42.818C0 43.0786 0.213557 43.2898 0.471704 43.2898C0.732197 43.2898 0.943408 43.0786 0.943408 42.818V37.3208C1.56531 37.3044 2.17312 37.2551 2.75513 37.1683V42.818C2.75513 43.0786 2.96399 43.2898 3.22448 43.2898C3.48498 43.2898 3.69619 43.0786 3.69619 42.818V37.0016C4.31574 36.8678 4.9259 36.6918 5.51025 36.4712V42.818C5.51025 43.0786 5.72146 43.2898 5.98196 43.2898C6.24245 43.2898 6.45366 43.0786 6.45366 42.818V36.0745C7.06617 35.7834 7.66225 35.4454 8.26538 35.0393V42.8157C8.26538 43.0762 8.47424 43.2875 8.73474 43.2875C8.99523 43.2875 9.20644 43.0762 9.20644 42.8157V34.3587C9.88935 33.8329 10.5253 33.2695 11.0205 32.8165V42.8133C11.0205 43.0739 11.2317 43.2851 11.4899 43.2851C11.7504 43.2851 11.9616 43.0739 11.9616 42.8133V31.9481C12.5929 31.3636 13.1655 30.8331 13.7709 30.3308V42.8133C13.7709 43.0739 13.9821 43.2851 14.2426 43.2851C14.5031 43.2851 14.7143 43.0739 14.7143 42.8133V29.5985C15.3269 29.1455 15.9182 28.777 16.5284 28.4624V42.8204C16.5284 43.0809 16.7349 43.2922 16.9954 43.2922C17.2559 43.2922 17.4671 43.0809 17.4671 42.8204V28.0282C18.0468 27.7911 18.6546 27.5963 19.2765 27.4555V42.8204C19.2765 43.0809 19.4877 43.2922 19.7482 43.2922C20.0087 43.2922 20.2176 43.0809 20.2176 42.8204V27.2771C20.7972 27.1879 21.405 27.1362 22.0316 27.1198V42.8227C22.0316 43.0833 22.2405 43.2945 22.5033 43.2945C22.7638 43.2945 22.9727 43.0833 22.9727 42.8227V26.641C22.9727 26.3804 22.7638 26.1692 22.5033 26.1692Z" fill="white"/>
<path d="M0.473133 35.8751C0.733625 35.8751 0.944836 35.6638 0.944836 35.4056V27.1176C1.56908 27.134 2.1769 27.1903 2.75655 27.2772V35.1404C2.75655 35.3986 2.96776 35.6122 3.22825 35.6122C3.4864 35.6122 3.69996 35.4009 3.69996 35.1404V27.4579C4.3242 27.6011 4.93202 27.7936 5.51167 28.0306V34.1733C5.51167 34.4315 5.72288 34.6451 5.98337 34.6451C6.24387 34.6451 6.45273 34.4339 6.45273 34.1733V28.4649C7.06055 28.7794 7.65428 29.1503 8.26445 29.5986V32.2768C8.26445 32.535 8.47566 32.7439 8.73615 32.7439C8.9943 32.7439 9.20785 32.535 9.20785 32.2768V30.338C9.48008 30.5656 9.76639 30.8168 10.0996 31.1149C10.2874 31.2815 10.5995 31.2628 10.7661 31.0797C10.8483 30.9834 10.8928 30.8637 10.8858 30.737C10.8811 30.6126 10.8248 30.4952 10.7309 30.4131C10.3343 30.0539 9.72414 29.5211 9.04123 29.0071C9.0248 28.993 9.01072 28.9789 8.99664 28.9719C8.16119 28.3452 7.35624 27.8499 6.53252 27.4556C6.41284 27.3969 6.2908 27.3429 6.16173 27.2842C5.2723 26.8946 4.31951 26.6012 3.33621 26.4181L3.30804 26.411C2.41861 26.2491 1.46582 26.1669 0.475479 26.1669C0.214987 26.1669 0.0061231 26.3758 0.0061231 26.634V35.4009C0.00377632 35.6638 0.21264 35.8751 0.473133 35.8751Z" fill="white"/>
<path d="M26.3464 33.3447C26.3464 32.833 26.7617 32.4152 27.2733 32.4152H30.5377H31.6782C31.9153 32.4152 32.1077 32.2251 32.1077 31.9904C32.1077 30.1407 33.4243 28.5892 35.1726 28.2325L36.2263 30.2182C36.2592 30.2839 36.2662 30.3543 36.2451 30.4224C36.2216 30.4905 36.177 30.5468 36.1137 30.5797C35.9823 30.6501 35.8227 30.5985 35.7546 30.4694L35.3017 29.6197C35.1914 29.4108 34.9332 29.331 34.7267 29.4413C34.5179 29.5516 34.4404 29.8121 34.5484 30.0187L34.6892 30.2816C34.5108 30.6243 34.4193 31.0022 34.4193 31.3918V35.53C34.4193 35.767 34.6117 35.9572 34.8464 35.9572H35.8673V36.1895H34.4263C33.9969 36.1895 33.6261 35.8938 33.5252 35.4783V34.5911C33.5252 34.354 33.3351 34.1639 33.0981 34.1639C32.8657 34.1639 32.6709 34.354 32.6709 34.5911V35.1004H28.5195V33.6522C28.5195 33.4175 28.3294 33.2273 28.0924 33.2273C27.8553 33.2273 27.6653 33.4175 27.6653 33.6522V35.4783C27.5667 35.8938 27.1935 36.1895 26.7617 36.1895H26.344V33.3447H26.3464ZM25.4945 36.1895H24.9031C24.6661 36.1895 24.4783 36.3797 24.4783 36.6167V39.1799L24.0911 39.5672C23.9268 39.7315 23.9268 40.0038 24.0911 40.1704C24.1779 40.2526 24.2859 40.2925 24.3938 40.2925C24.5041 40.2925 24.6121 40.2526 24.6966 40.1704L25.2058 39.6611C25.2833 39.5813 25.3279 39.4733 25.3279 39.3583V37.0439H26.3417V39.1823L25.9544 39.5696C25.7878 39.7339 25.7878 40.0061 25.9544 40.1728C26.0389 40.2549 26.1492 40.2948 26.2572 40.2948C26.3675 40.2948 26.4778 40.2549 26.5576 40.1728L27.0692 39.6634C27.149 39.5836 27.1935 39.4757 27.1935 39.3606V36.9923C27.738 36.8562 28.1886 36.4736 28.4092 35.9595H30.9648H32.7883C33.0629 36.605 33.7059 37.0463 34.4287 37.0463H35.8696V38.1659L35.4824 38.5509C35.3158 38.7152 35.3158 38.9874 35.4824 39.1541C35.5645 39.2362 35.6748 39.2761 35.7828 39.2761C35.8931 39.2761 36.0034 39.2362 36.0855 39.1541L36.5948 38.6447C36.6745 38.5626 36.7191 38.4546 36.7191 38.342V35.5323C36.7191 35.2953 36.5291 35.1051 36.292 35.1051H35.2759V31.3942C35.2759 31.3355 35.2806 31.2745 35.2853 31.2158C35.4871 31.3777 35.7382 31.4669 35.994 31.4669C36.1723 31.4669 36.3507 31.4223 36.5173 31.3355C36.7825 31.1947 36.9749 30.9599 37.0618 30.6759C37.1509 30.3896 37.1228 30.0868 36.982 29.8215L36.0832 28.1315C36.2474 28.0752 36.3695 27.9156 36.3695 27.7325C36.3695 27.4954 36.1794 27.3053 35.9424 27.3053C35.7546 27.3053 35.5669 27.317 35.3838 27.3382C35.3627 27.3405 35.3463 27.3429 35.3228 27.3452C33.1708 27.6292 31.4717 29.3849 31.2723 31.5655H30.9648H30.6926H30.1129H25.7479C24.767 31.5655 23.9691 32.3659 23.9691 33.3471V35.091C23.9691 35.3258 24.1592 35.5159 24.3938 35.5159C24.6309 35.5159 24.8186 35.3258 24.8186 35.091V33.3471C24.8186 32.8354 25.2363 32.4176 25.7479 32.4176H25.7573C25.5907 32.6898 25.4945 33.0067 25.4945 33.3471V36.1895Z" fill="white"/>
<path d="M51.57 36.1895H51.1523C50.7228 36.1895 50.3497 35.8938 50.2488 35.4783V33.6522C50.2488 33.4175 50.0587 33.225 49.824 33.225C49.5893 33.225 49.3993 33.4175 49.3993 33.6522V35.1004H45.2455V34.5887C45.2455 34.354 45.0554 34.1639 44.8183 34.1639C44.586 34.1639 44.3936 34.354 44.3936 34.5887V35.476C44.2927 35.8914 43.9195 36.1872 43.4924 36.1872H42.0538V35.9501H43.0723C43.3094 35.9501 43.4995 35.76 43.4995 35.5253V31.3848C43.4995 30.9951 43.4079 30.6172 43.2296 30.2722L43.368 30.0116C43.4807 29.8027 43.4009 29.5446 43.192 29.4342C42.9832 29.3239 42.7274 29.4014 42.6147 29.6103L42.1641 30.46C42.0961 30.5891 41.9341 30.6407 41.8027 30.5703C41.7417 30.5374 41.6924 30.4811 41.6713 30.413C41.6525 30.345 41.6572 30.2722 41.6901 30.2112L42.7438 28.2231C44.4898 28.5775 45.8087 30.1267 45.8087 31.9786C45.8087 32.2157 45.9988 32.4082 46.2358 32.4082H47.3787H50.643C51.1523 32.4082 51.57 32.8236 51.57 33.3377V36.1895ZM51.9619 39.5649L51.5771 39.1823V37.0439H52.5885V39.3583C52.5885 39.4733 52.6331 39.5813 52.7106 39.6611L53.2245 40.1704C53.3043 40.2573 53.4146 40.2948 53.5225 40.2948C53.6328 40.2948 53.7431 40.2549 53.8276 40.1704C53.9943 40.0061 53.9943 39.7339 53.8276 39.5672L53.4428 39.1846V36.6167C53.4428 36.3797 53.2503 36.1919 53.0156 36.1919H52.4243V33.3471C52.4243 33.0067 52.328 32.6875 52.1614 32.4176H52.1708C52.6801 32.4176 53.0978 32.833 53.0978 33.3471V35.091C53.0978 35.3258 53.2879 35.5159 53.5225 35.5159C53.7596 35.5159 53.952 35.3258 53.952 35.091V33.3471C53.952 32.3636 53.1541 31.5655 52.1708 31.5655H47.8058C47.6063 31.5655 47.4303 31.5679 47.2261 31.5679C47.1276 31.5679 47.1111 31.5655 46.9539 31.5655H46.6465C46.447 29.3849 44.7503 27.6316 42.5936 27.3475C42.5748 27.3429 42.556 27.3405 42.5326 27.3405C42.3519 27.317 42.1665 27.3053 41.9764 27.3053C41.7417 27.3053 41.5493 27.4954 41.5493 27.7301C41.5493 27.9156 41.6666 28.0728 41.8332 28.1315L40.9368 29.8215C40.7983 30.0844 40.7678 30.3872 40.857 30.6759C40.9462 30.9599 41.1386 31.197 41.4014 31.3355C41.5681 31.4247 41.7464 31.4669 41.9248 31.4669C42.1782 31.4669 42.4317 31.3777 42.6311 31.2158C42.6382 31.2745 42.6405 31.3331 42.6405 31.3942V35.1075H41.6244C41.3874 35.1075 41.1949 35.2999 41.1949 35.5347V38.3443C41.1949 38.457 41.2395 38.5649 41.3216 38.6447L41.8309 39.1541C41.913 39.2362 42.0233 39.2785 42.1313 39.2785C42.2416 39.2785 42.3519 39.2362 42.434 39.1541C42.6006 38.9874 42.6006 38.7175 42.434 38.5509L42.0515 38.1659V37.0463H43.4901C44.2152 37.0463 44.8559 36.6074 45.1281 35.9572H46.9516H49.5096C49.7302 36.4759 50.1831 36.8585 50.7228 36.9923V39.3583C50.7228 39.471 50.7698 39.5813 50.8472 39.6611L51.3565 40.1704C51.4386 40.2573 51.5489 40.2948 51.6569 40.2948C51.7672 40.2948 51.8775 40.2549 51.9596 40.1704C52.1286 40.0014 52.1286 39.7315 51.9619 39.5649Z" fill="white"/>
<path d="M50.5535 42.2124H27.3626V41.7335C27.3626 41.4636 27.5832 41.2453 27.8483 41.2453H50.063C50.3329 41.2453 50.5511 41.4659 50.5511 41.7335V42.2124H50.5535ZM38.5051 25.9367C38.5028 25.9367 38.5004 25.9367 38.4981 25.9343C37.9395 25.7442 37.5382 25.2161 37.5382 24.594C37.5382 24.3546 37.3458 24.1622 37.1064 24.1622C36.8999 24.1622 36.7286 24.3077 36.6887 24.5048C36.6816 24.533 36.677 24.5635 36.677 24.5964C36.677 25.2067 36.285 25.7278 35.7476 25.9273C35.5927 25.9813 35.4308 26.0165 35.2571 26.0165C34.654 26.0165 34.1377 25.6362 33.9312 25.101C33.8725 24.9438 33.8373 24.7748 33.8373 24.5964C33.8373 24.357 33.6426 24.1645 33.4055 24.1645C33.2037 24.1645 33.0371 24.303 32.9878 24.4884C32.9808 24.5236 32.9714 24.5588 32.9714 24.5964C32.9714 25.378 32.3377 26.0165 31.5539 26.0165C30.7724 26.0165 30.1341 25.378 30.1341 24.5964C30.1341 24.357 29.9417 24.1645 29.7023 24.1645C29.4653 24.1645 29.2728 24.3593 29.2728 24.5964C29.2728 24.9954 29.1015 25.378 28.8082 25.6479C28.5078 25.9202 28.1182 26.0493 27.7122 26.0094C26.9965 25.9414 26.4356 25.2865 26.4356 24.5189V23.9814C26.4356 23.8594 26.4661 23.7443 26.5201 23.6411H30.2374H31.1784H32.9878H33.9289H35.7453H36.6863H38.4957H38.5028H39.4391H39.4438H41.2532H41.9173H42.1966H42.734H42.9898H44.0083H44.9494H46.7634H47.7045H48.8474H48.8591H49.6758H51.3913C51.4453 23.7443 51.4758 23.8594 51.4758 23.9814V24.5189C51.4758 25.2888 50.9149 25.9437 50.1968 26.0094C49.7908 26.0493 49.4012 25.9202 49.1032 25.6479C48.8075 25.378 48.6385 24.9954 48.6385 24.5964C48.6385 24.357 48.4437 24.1645 48.2067 24.1645C47.9673 24.1645 47.7726 24.3593 47.7726 24.5964C47.7726 25.378 47.1366 26.0165 46.3551 26.0165C45.637 26.0165 45.0432 25.4766 44.9517 24.7865C44.9423 24.7231 44.9376 24.6598 44.9376 24.5964C44.9376 24.357 44.7452 24.1645 44.5058 24.1645C44.2688 24.1645 44.0764 24.3593 44.0764 24.5964C44.0764 24.7443 44.0529 24.8874 44.0107 25.0212C43.8276 25.5963 43.2902 26.0165 42.6542 26.0165C42.4946 26.0165 42.3397 25.9859 42.1966 25.9367C41.7061 25.77 41.3377 25.3428 41.2532 24.8194C41.2438 24.7466 41.2368 24.6715 41.2368 24.5964C41.2368 24.357 41.042 24.1645 40.8049 24.1645C40.5679 24.1645 40.3731 24.3593 40.3731 24.5964C40.3731 25.2067 39.9859 25.7278 39.4415 25.9273C39.4391 25.9296 39.4368 25.9296 39.4368 25.932C39.2842 25.986 39.1223 26.0188 38.9533 26.0188C38.7984 26.0141 38.6483 25.9836 38.5051 25.9367ZM28.7566 22.4956L29.5897 22.1388L30.2397 21.8595V21.9182V22.721V22.7726H28.1065L28.7566 22.4956ZM31.1808 22.721V21.5145V21.4558L32.9902 20.6812V20.7399V22.721V22.7726H31.1808V22.721ZM33.9312 22.721V20.3338V20.2775L35.7476 19.5006V19.5569V22.721V22.7726H33.9312V22.721ZM36.6887 22.721V19.1532V19.0968L36.9281 18.9912C37.4303 18.7776 37.9606 18.6462 38.4981 18.5992V18.6532V22.721V22.7726H36.6887V22.721ZM39.3898 13.4869H43.0062L42.3562 14.1371C42.1872 14.3061 42.1872 14.5784 42.3562 14.7474L43.0062 15.3999H39.3898V13.4869ZM39.4462 22.721V18.6556V18.5992C39.9718 18.6509 40.4952 18.78 40.988 18.9912L41.2579 19.1086V19.1672V22.721V22.7726H39.4485V22.721H39.4462ZM42.2013 22.721V19.5686V19.5099L44.0154 20.2869V20.3456V22.721V22.7726H42.9968H42.741H42.2036V22.721H42.2013ZM44.9541 22.721V20.7493V20.6929L46.7681 21.4699V21.5262V22.721V22.7726H44.9541V22.721ZM47.7092 22.721V21.9299V21.8713L48.3733 22.1553L49.1783 22.5003L49.8119 22.7702H49.6805H48.8638H48.8521H47.7092V22.721ZM50.0654 40.3839H39.3898V37.9967V37.5742V28.8801V28.866V26.8333C39.4063 26.8286 39.4227 26.8239 39.4415 26.8192C39.4438 26.8192 39.4462 26.8192 39.4462 26.8169C40.0023 26.6948 40.4858 26.3732 40.8073 25.9249C40.934 26.101 41.0889 26.2559 41.2555 26.3873C41.5278 26.6009 41.8493 26.7535 42.1989 26.8239C42.3468 26.8544 42.4993 26.8756 42.6566 26.8756C43.1635 26.8756 43.6305 26.7065 44.013 26.4225C44.2007 26.2817 44.3697 26.115 44.5082 25.9249C44.6326 26.0986 44.7851 26.2512 44.9541 26.385C45.3413 26.6901 45.8294 26.8756 46.3598 26.8756C47.1178 26.8756 47.7937 26.5 48.2067 25.9273C48.3006 26.054 48.4062 26.1737 48.5259 26.2817C48.5822 26.3333 48.6409 26.385 48.7042 26.4296C48.7042 26.4296 49.0023 26.6174 49.1055 26.6666C49.2158 26.7159 49.5632 26.8192 49.5632 26.8192C49.7251 26.8568 49.894 26.8756 50.063 26.8756C50.1358 26.8756 50.2062 26.8709 50.2813 26.8662C51.4359 26.7558 52.3394 25.7231 52.3394 24.5142V23.9767C52.3394 23.3336 51.9569 22.7562 51.3678 22.5027L49.3261 21.6271L46.7658 20.531L44.9517 19.7541L44.0107 19.3503L42.1966 18.5734L41.3259 18.2002C41.3001 18.1908 41.279 18.1838 41.2532 18.1744C40.6735 17.935 40.0634 17.7894 39.4438 17.7378H39.4391V16.2614H43.2738H44.0435C44.2195 16.2614 44.3768 16.1581 44.4425 15.9961C44.5082 15.8365 44.4706 15.6511 44.3462 15.5267L43.2644 14.4446L44.3462 13.3602C44.4706 13.2381 44.5082 13.0504 44.4425 12.8884C44.3744 12.7264 44.2172 12.6232 44.0435 12.6232H38.958C38.7187 12.6232 38.5262 12.818 38.5262 13.0574V15.414V15.8811C38.5145 15.9422 38.5051 16.0055 38.5051 16.0736V17.7331C38.5028 17.7331 38.5004 17.7354 38.4981 17.7354C37.8785 17.7824 37.2683 17.9256 36.6887 18.1603C36.6535 18.1744 36.6206 18.1861 36.5878 18.1978L35.7476 18.5593L33.9312 19.3362L32.9902 19.74L31.1808 20.5169L28.6228 21.6107L26.5482 22.5003C25.9592 22.7538 25.5767 23.3312 25.5767 23.9744V24.5119C25.5767 25.7184 26.4825 26.7535 27.6371 26.8638C27.8789 26.8873 28.1206 26.8709 28.3529 26.8192C28.3529 26.8192 28.7026 26.7065 28.8246 26.6526C28.9185 26.6103 29.2142 26.4296 29.2142 26.4296C29.2752 26.385 29.3362 26.3333 29.3949 26.2817C29.5146 26.1737 29.6178 26.054 29.7093 25.9273C30.1247 26.5 30.8006 26.8756 31.5586 26.8756C32.1031 26.8756 32.6006 26.6831 32.9925 26.3615C33.1497 26.2348 33.2929 26.0892 33.4102 25.9249C33.5534 26.1268 33.7341 26.3005 33.9336 26.446C34.309 26.7159 34.7643 26.8756 35.2595 26.8756C35.4285 26.8756 35.5904 26.8544 35.75 26.8192C36.0996 26.7441 36.4188 26.5868 36.691 26.3662C36.8483 26.2395 36.9914 26.0916 37.1111 25.9249C37.4397 26.3803 37.9325 26.7089 38.5028 26.8263C38.5051 26.8263 38.5074 26.8286 38.5098 26.8286C38.5168 26.831 38.5239 26.8333 38.5309 26.8356V28.7627V28.7909V37.5766V37.9991V40.3862H27.8554C27.1138 40.3862 26.506 40.9918 26.506 41.7359V42.6442C26.506 42.8837 26.7008 43.0761 26.9378 43.0761H50.9923C51.2317 43.0761 51.4241 42.886 51.4241 42.6442V41.7359C51.4148 40.9894 50.8093 40.3839 50.0654 40.3839Z" fill="white"/>
<path d="M63.3137 23.1013C63.1166 23.1013 62.9335 22.9769 62.8702 22.7773C59.5143 12.3651 49.9042 5.37038 38.9588 5.37038C28.018 5.37038 18.4127 12.358 15.0497 22.7586C14.9699 23.0027 14.7094 23.1388 14.463 23.059C14.2189 22.9792 14.0828 22.7163 14.1626 22.4722C15.8406 17.2708 19.0651 12.7946 23.4817 9.52965C27.9852 6.19895 33.3359 4.43854 38.9564 4.43854C44.577 4.43854 49.9323 6.2013 54.4358 9.53669C58.8548 12.8087 62.077 17.2872 63.7526 22.491C63.8324 22.7351 63.6986 23.0003 63.4522 23.0778C63.4099 23.0919 63.3606 23.1013 63.3137 23.1013Z" fill="#F9FCFF"/>
<path d="M19.5018 21.4115C19.4314 21.4115 19.3633 21.3974 19.2953 21.3622C19.0653 21.2495 18.9691 20.9702 19.084 20.7379C20.8817 17.0785 23.6556 13.9849 27.103 11.7949C30.6443 9.5416 34.7441 8.35156 38.9613 8.35156C43.1785 8.35156 47.2736 9.5416 50.8173 11.7926C54.26 13.9825 57.0339 17.0738 58.8315 20.7308C58.9465 20.9632 58.8503 21.2402 58.6203 21.3552C58.388 21.4678 58.1087 21.3739 57.9937 21.1416C54.3985 13.83 47.1023 9.2881 38.959 9.2881C30.8109 9.2881 23.5171 13.8347 19.9218 21.1533C19.8374 21.3153 19.6731 21.4115 19.5018 21.4115Z" fill="#F9FCFF"/>
<path d="M9.10464 27.7677C9.08821 27.7677 9.07178 27.7677 9.05535 27.7653C8.79955 27.7372 8.61416 27.5095 8.63997 27.2513C9.42615 19.8059 12.9299 12.9285 18.5012 7.87964C24.1147 2.80024 31.378 0 38.9581 0C46.5194 0 53.7757 2.78851 59.3845 7.85617C64.9534 12.8863 68.4619 19.7449 69.2668 27.1715C69.2926 27.4297 69.1096 27.6574 68.8538 27.6855C68.5956 27.7137 68.368 27.5283 68.3398 27.2748C66.7159 12.2549 54.0831 0.931849 38.9581 0.931849C23.7932 0.931849 11.1557 12.2877 9.56461 27.3499C9.54348 27.5893 9.33931 27.7677 9.10464 27.7677Z" fill="#F9FCFF"/>
<path d="M55.8871 23.2444C56.5372 23.2585 57.1778 23.3031 57.7974 23.3805L57.5252 24.8405C56.9971 24.7748 56.448 24.7372 55.8871 24.7231V23.2444ZM58.7267 23.5214C59.3768 23.6387 60.0151 23.796 60.6299 23.9861L60.1137 25.3756C59.5786 25.216 59.0224 25.0799 58.4568 24.979L58.7267 23.5214ZM61.5194 24.2912C62.0896 24.5072 62.6529 24.7583 63.195 25.04L62.4745 26.3333C61.9981 26.0892 61.5029 25.8685 61.0054 25.6784L61.5194 24.2912ZM55.4154 25.6573C58.0579 25.6573 60.353 26.2206 62.4346 27.3778C62.505 27.4153 62.5825 27.4365 62.6623 27.4365C62.7068 27.4365 62.7491 27.4294 62.789 27.4177C62.9087 27.3848 63.0119 27.3027 63.0729 27.1923L64.251 25.0752C64.2557 25.0681 64.4881 24.6527 64.4881 24.6527C64.6124 24.4274 64.5326 24.1387 64.305 24.0119C64.1947 23.9532 64.068 23.9368 63.9483 23.972C63.8263 24.0072 63.7253 24.0847 63.6667 24.195L63.6549 24.2114C63.0706 23.9063 62.4651 23.634 61.8503 23.404L61.855 23.3946C61.8949 23.2772 61.8902 23.1482 61.8385 23.0355C61.7869 22.9205 61.693 22.8336 61.5757 22.789C61.3316 22.6998 61.0594 22.8242 60.9702 23.0683L60.9585 23.0965C60.2944 22.89 59.6021 22.7186 58.9004 22.5919V22.5872C58.9238 22.4651 58.8957 22.3407 58.8253 22.2351C58.7549 22.1318 58.6493 22.0638 58.5249 22.0379C58.3982 22.0145 58.2761 22.0426 58.1705 22.1154C58.0673 22.1858 57.9969 22.2938 57.9757 22.4182L57.9687 22.451C57.1497 22.3454 56.2907 22.2938 55.4177 22.2938C55.1572 22.2938 54.9484 22.505 54.9484 22.7656V25.1879C54.946 25.446 55.1549 25.6573 55.4154 25.6573Z" fill="white"/>
<path d="M22.0342 24.7208C21.4757 24.7349 20.9219 24.7725 20.3962 24.8359L20.1263 23.3782C20.7435 23.3008 21.3865 23.2562 22.0342 23.2397V24.7208ZM17.8053 25.3757L17.289 23.9838C17.9039 23.7937 18.5446 23.6364 19.1923 23.5191L19.4622 24.9767C18.8966 25.08 18.338 25.2138 17.8053 25.3757ZM15.4445 26.3334L14.724 25.0401C15.2684 24.7584 15.8293 24.5049 16.3996 24.2913L16.9135 25.6809C16.4137 25.8686 15.9185 26.0893 15.4445 26.3334ZM22.5036 22.2962C21.6306 22.2962 20.7717 22.3478 19.9526 22.4534L19.9456 22.4206C19.9245 22.2962 19.8517 22.1905 19.7485 22.1178C19.6452 22.0474 19.5208 22.0192 19.3941 22.0427C19.2697 22.0638 19.1641 22.1342 19.0937 22.2375C19.021 22.3431 18.9951 22.4675 19.0186 22.5919V22.599C18.3169 22.7234 17.6246 22.8924 16.9605 23.1013L16.9487 23.0731C16.9042 22.9557 16.8197 22.8618 16.7023 22.8079C16.5873 22.7539 16.4606 22.7492 16.3433 22.7938C16.2259 22.8384 16.1321 22.9252 16.0804 23.0402C16.0265 23.1529 16.0241 23.282 16.064 23.3994L16.0687 23.4087C15.4562 23.6388 14.8484 23.9134 14.264 24.2162L14.2523 24.1998C14.1936 24.0894 14.0927 24.012 13.9707 23.9768C13.851 23.9439 13.7243 23.958 13.614 24.019C13.3863 24.1434 13.3042 24.4321 13.4309 24.6575L14.8437 27.1972C14.9047 27.3075 15.0079 27.3873 15.1276 27.4201C15.1722 27.4342 15.2145 27.4389 15.2567 27.4389C15.3365 27.4389 15.4163 27.4178 15.4843 27.3802C17.5659 26.2231 19.8611 25.6597 22.5036 25.6597C22.7641 25.6597 22.9729 25.4485 22.9729 25.1879V22.768C22.9729 22.5051 22.7641 22.2962 22.5036 22.2962Z" fill="white"/>
<path d="M71.466 42.8204C71.466 43.0809 71.6772 43.2921 71.9353 43.2921C72.1958 43.2921 72.407 43.0809 72.407 42.8204V36.4758C72.989 36.6941 73.5992 36.8725 74.2188 37.0039V42.8204C74.2188 43.0809 74.4276 43.2921 74.6905 43.2921C74.951 43.2921 75.1622 43.0809 75.1622 42.8204V37.1706C75.7418 37.2551 76.3496 37.3067 76.9739 37.3185V42.818C76.9739 43.0785 77.1851 43.2898 77.4432 43.2898C77.7037 43.2898 77.9149 43.0785 77.9149 42.818V36.8561C77.9149 36.5955 77.7037 36.3843 77.4432 36.3843C76.521 36.3843 75.6386 36.3092 74.8266 36.166C74.7937 36.1543 74.7585 36.1496 74.7351 36.1496C73.8292 35.9829 72.9961 35.7294 72.1935 35.3797C72.1536 35.3492 72.1043 35.3304 72.0691 35.3233C69.957 34.3798 68.3987 32.9362 66.7442 31.4011C65.8736 30.589 64.9701 29.7534 63.9797 29.007C63.9657 28.9929 63.9492 28.9788 63.9398 28.9765C63.0035 28.2699 62.0882 27.7254 61.1495 27.3099C61.126 27.2959 61.0955 27.2841 61.0814 27.2794C60.1826 26.8874 59.2674 26.6058 58.2817 26.4227C58.2606 26.4156 58.2371 26.4133 58.2254 26.4133C57.343 26.2537 56.3973 26.1692 55.414 26.1692C55.1535 26.1692 54.9423 26.3804 54.9423 26.641V42.8204C54.9423 43.0809 55.1535 43.2921 55.414 43.2921C55.6745 43.2921 55.8857 43.0809 55.8857 42.8204V27.1175C56.5099 27.1339 57.1201 27.1879 57.6974 27.2747V42.8204C57.6974 43.0809 57.9086 43.2921 58.1667 43.2921C58.4272 43.2921 58.6384 43.0809 58.6384 42.8204V27.4555C59.2627 27.5963 59.8729 27.7888 60.4525 28.0282V42.8204C60.4525 43.0809 60.6637 43.2921 60.9219 43.2921C61.1824 43.2921 61.3936 43.0809 61.3936 42.8204V28.4624C61.999 28.7746 62.5928 29.1478 63.2076 29.5985V42.8204C63.2076 43.0809 63.4188 43.2921 63.677 43.2921C63.9375 43.2921 64.1487 43.0809 64.1487 42.8204V30.3355C64.7542 30.8402 65.3315 31.3659 65.9628 31.9527V42.818C65.9628 43.0785 66.1716 43.2898 66.4345 43.2898C66.6926 43.2898 66.9038 43.0785 66.9038 42.818V32.8212C67.4013 33.2719 68.0373 33.8375 68.7155 34.3633V42.8204C68.7155 43.0809 68.9268 43.2921 69.1872 43.2921C69.4477 43.2921 69.659 43.0809 69.659 42.8204V35.044C70.2621 35.4477 70.8558 35.7881 71.473 36.0768V42.8204H71.466Z" fill="white"/>
<path d="M22.5033 26.1692C21.52 26.1692 20.5766 26.2513 19.6989 26.411C19.6801 26.4133 19.6567 26.418 19.6426 26.4227C18.6499 26.6058 17.7347 26.8851 16.8452 27.2771C16.8171 27.2865 16.7913 27.2959 16.7748 27.3052C15.8291 27.7277 14.9138 28.2723 13.9821 28.9718C13.9657 28.9835 13.9493 28.9952 13.9399 29.0023C12.9449 29.7557 12.039 30.5914 11.166 31.4035C9.51622 32.9339 7.9556 34.3821 5.86227 35.3187C5.81064 35.3327 5.76605 35.3515 5.74024 35.3727C4.9259 35.7247 4.09045 35.9806 3.19398 36.1472C3.15877 36.1496 3.12357 36.1566 3.10245 36.1637C2.28108 36.3092 1.39399 36.3843 0.471704 36.3843C0.213557 36.3843 0 36.5956 0 36.8561V42.818C0 43.0786 0.213557 43.2898 0.471704 43.2898C0.732197 43.2898 0.943408 43.0786 0.943408 42.818V37.3208C1.56531 37.3044 2.17312 37.2551 2.75513 37.1683V42.818C2.75513 43.0786 2.96399 43.2898 3.22448 43.2898C3.48498 43.2898 3.69619 43.0786 3.69619 42.818V37.0016C4.31574 36.8678 4.9259 36.6918 5.51025 36.4712V42.818C5.51025 43.0786 5.72146 43.2898 5.98196 43.2898C6.24245 43.2898 6.45366 43.0786 6.45366 42.818V36.0745C7.06617 35.7834 7.66225 35.4454 8.26538 35.0393V42.8157C8.26538 43.0762 8.47424 43.2875 8.73474 43.2875C8.99523 43.2875 9.20644 43.0762 9.20644 42.8157V34.3587C9.88935 33.8329 10.5253 33.2695 11.0205 32.8165V42.8133C11.0205 43.0739 11.2317 43.2851 11.4899 43.2851C11.7504 43.2851 11.9616 43.0739 11.9616 42.8133V31.9481C12.5929 31.3636 13.1655 30.8331 13.7709 30.3308V42.8133C13.7709 43.0739 13.9821 43.2851 14.2426 43.2851C14.5031 43.2851 14.7143 43.0739 14.7143 42.8133V29.5985C15.3269 29.1455 15.9182 28.777 16.5284 28.4624V42.8204C16.5284 43.0809 16.7349 43.2922 16.9954 43.2922C17.2559 43.2922 17.4671 43.0809 17.4671 42.8204V28.0282C18.0468 27.7911 18.6546 27.5963 19.2765 27.4555V42.8204C19.2765 43.0809 19.4877 43.2922 19.7482 43.2922C20.0087 43.2922 20.2176 43.0809 20.2176 42.8204V27.2771C20.7972 27.1879 21.405 27.1362 22.0316 27.1198V42.8227C22.0316 43.0833 22.2405 43.2945 22.5033 43.2945C22.7638 43.2945 22.9727 43.0833 22.9727 42.8227V26.641C22.9727 26.3804 22.7638 26.1692 22.5033 26.1692Z" fill="white"/>
<path d="M67.8176 31.115C68.1485 30.8169 68.4372 30.5681 68.7117 30.338V32.2768C68.7117 32.535 68.9206 32.7439 69.1834 32.7439C69.4439 32.7439 69.6528 32.535 69.6528 32.2768V29.5986C70.2653 29.1527 70.8567 28.7818 71.4669 28.4649V34.1734C71.4669 34.4316 71.6757 34.6452 71.9362 34.6452C72.1967 34.6452 72.4079 34.4339 72.4079 34.1734V28.0307C72.9876 27.7936 73.5954 27.6012 74.2173 27.458V35.1405C74.2173 35.3986 74.4285 35.6122 74.689 35.6122C74.9495 35.6122 75.1631 35.401 75.1631 35.1405V27.2772C75.7427 27.188 76.3505 27.1364 76.9724 27.1176V35.4033C76.9724 35.6639 77.1836 35.8751 77.4441 35.8751C77.7046 35.8751 77.9158 35.6639 77.9158 35.4033V26.6388C77.9158 26.3806 77.7023 26.1717 77.4441 26.1717C76.4514 26.1717 75.4986 26.2538 74.6116 26.4158C74.5998 26.4182 74.5928 26.4205 74.5881 26.4228C73.6001 26.6059 72.645 26.8993 71.7461 27.2913C71.6241 27.3453 71.5044 27.4016 71.3847 27.458C70.561 27.85 69.7561 28.3452 68.9253 28.9696C68.9089 28.9837 68.8901 28.9954 68.8807 29.0048C68.1931 29.5235 67.5853 30.0564 67.1863 30.4131C66.9939 30.5868 66.9775 30.8849 67.1511 31.0797C67.3201 31.2652 67.6322 31.2816 67.8176 31.115Z" fill="white"/>
<path d="M0.473133 35.8751C0.733625 35.8751 0.944836 35.6638 0.944836 35.4056V27.1176C1.56908 27.134 2.1769 27.1903 2.75655 27.2772V35.1404C2.75655 35.3986 2.96776 35.6122 3.22825 35.6122C3.4864 35.6122 3.69996 35.4009 3.69996 35.1404V27.4579C4.3242 27.6011 4.93202 27.7936 5.51167 28.0306V34.1733C5.51167 34.4315 5.72288 34.6451 5.98337 34.6451C6.24387 34.6451 6.45273 34.4339 6.45273 34.1733V28.4649C7.06055 28.7794 7.65428 29.1503 8.26445 29.5986V32.2768C8.26445 32.535 8.47566 32.7439 8.73615 32.7439C8.9943 32.7439 9.20785 32.535 9.20785 32.2768V30.338C9.48008 30.5656 9.76639 30.8168 10.0996 31.1149C10.2874 31.2815 10.5995 31.2628 10.7661 31.0797C10.8483 30.9834 10.8928 30.8637 10.8858 30.737C10.8811 30.6126 10.8248 30.4952 10.7309 30.4131C10.3343 30.0539 9.72414 29.5211 9.04123 29.0071C9.0248 28.993 9.01072 28.9789 8.99664 28.9719C8.16119 28.3452 7.35624 27.8499 6.53252 27.4556C6.41284 27.3969 6.2908 27.3429 6.16173 27.2842C5.2723 26.8946 4.31951 26.6012 3.33621 26.4181L3.30804 26.411C2.41861 26.2491 1.46582 26.1669 0.475479 26.1669C0.214987 26.1669 0.0061231 26.3758 0.0061231 26.634V35.4009C0.00377632 35.6638 0.21264 35.8751 0.473133 35.8751Z" fill="white"/>
<path d="M4.62102 58.7551C5.94461 58.7551 7.29637 58.2622 7.29637 57.6002C7.29637 57.2763 7.15556 56.8139 6.91853 56.5041C6.45387 56.882 5.69116 57.2904 4.64918 57.2904C2.87501 57.2904 1.73681 55.9807 1.73681 53.7133C1.73681 51.3614 3.00408 49.9953 4.51072 49.9953C5.46821 49.9953 5.94696 50.2066 6.51019 50.2066C7.01475 50.2066 7.14148 49.7982 7.14148 48.6856C6.38346 48.6856 5.73575 48.5588 4.58113 48.5588C1.61009 48.5588 0.0471212 51.1079 0.0471212 53.8659C0.0447744 57.1496 2.0724 58.7551 4.62102 58.7551Z" fill="white"/>
<path d="M14.5034 55.4205C14.5034 55.4205 14.6442 54.9252 14.6442 54.2797C14.6442 52.8268 13.8158 51.4349 11.6732 51.4349C9.54938 51.4349 8.12488 52.9559 8.12488 55.2632C8.12488 57.3053 9.4203 58.7137 11.7859 58.7137C13.1376 58.7137 14.2617 58.2912 14.2617 57.7419C14.2617 57.3898 14.081 56.9673 13.9379 56.7702C13.9379 56.7702 13.3066 57.4297 11.868 57.4297C10.6993 57.4297 9.82864 56.796 9.71365 55.4862C11.3235 55.5191 12.9147 55.5308 14.5034 55.4205ZM9.76059 54.4182C9.95772 53.3361 10.7016 52.686 11.6732 52.686C12.7433 52.686 13.1517 53.4066 13.1517 54.1811V54.4206C11.9713 54.4464 10.4505 54.4346 9.76059 54.4182Z" fill="white"/>
<path d="M16.0657 51.6602C16.0657 51.6602 16.3191 52.6742 16.3191 53.3197C16.3191 55.4627 16.2487 57.2208 16.2487 58.0939C16.2487 58.5446 16.3778 58.6291 16.6852 58.6291C17.1076 58.6291 17.462 58.5728 17.8258 58.4742C17.8258 58.4742 17.7694 57.5728 17.7694 56.3922C17.7694 55.1106 17.8657 54.153 17.8657 54.153C17.8657 54.153 18.558 52.7869 19.8815 52.7869C20.6137 52.7869 21.062 53.2235 21.062 54.153C21.062 55.5871 20.9798 56.8429 20.9798 58.1244C20.9798 58.4178 21.1183 58.6314 21.5149 58.6314C21.7824 58.6314 22.2213 58.5892 22.6977 58.4765C22.5428 57.6738 22.5287 57.1527 22.5287 56.5495C22.5287 55.7749 22.5569 54.6177 22.5569 54.1248C22.5569 52.6343 21.9796 51.4349 20.4166 51.4349C18.7574 51.4349 17.8962 52.6883 17.8962 52.6883C17.8962 51.7893 17.8375 51.5335 17.1921 51.5335C16.5726 51.5311 16.0657 51.6602 16.0657 51.6602Z" fill="white"/>
<path d="M26.6834 50.4486C26.6834 49.9557 26.5285 49.8289 26.0639 49.8289C25.7541 49.8289 25.2613 49.8571 25.0501 49.8735C25.036 50.4627 25.0219 51.0284 24.9961 51.5753H24.7849C24.0809 51.5753 23.7852 51.8851 23.7852 52.4203C23.7852 52.6456 23.7969 52.8005 23.7969 52.8005H24.8975C24.8412 53.7441 24.7708 54.6712 24.7708 55.6571C24.7708 57.8658 25.3059 58.6404 26.9815 58.6404C27.5588 58.6404 27.9953 58.5277 28.1361 58.2602C28.2229 58.1311 28.2511 57.9761 28.2511 57.7954C28.2511 57.4269 28.1948 57.1194 28.1948 57.1194C28.1948 57.1194 27.7582 57.2602 27.2232 57.2602C26.559 57.2602 26.2939 56.9926 26.2939 55.7392C26.2939 54.7393 26.3619 53.6971 26.4605 52.7982H27.6691C28.1642 52.7982 28.2745 52.655 28.2745 52.3616C28.2745 52.0658 28.2464 51.9086 28.2323 51.5166C27.9061 51.5447 27.2467 51.5706 26.8806 51.5706H26.5849C26.6412 51.0941 26.6834 50.7162 26.6834 50.4486Z" fill="white"/>
<path d="M33.9332 51.5302H33.6093C32.6518 51.5302 32.0346 51.8259 31.3306 52.5724C31.2602 51.7696 31.0912 51.502 30.3731 51.502C29.9648 51.502 29.5846 51.6288 29.5846 51.6288C29.6972 52.2484 29.7137 52.7836 29.7137 53.6145C29.7137 55.4313 29.6573 56.3326 29.6573 57.978C29.6573 58.4146 29.8545 58.6259 30.2886 58.6259C30.6993 58.6259 30.9082 58.586 31.3306 58.4733C31.2156 57.6541 31.2156 56.9218 31.2156 56.1214C31.2156 55.206 31.2602 54.4314 31.3306 53.6427C31.8657 53.1639 32.4993 53.1216 33.2315 53.1216C33.9332 53.1216 33.9614 52.5325 33.9614 52.0395C33.9614 51.8682 33.9496 51.6874 33.9332 51.5302Z" fill="white"/>
<path d="M40.2257 58.6307C40.5777 58.6307 40.918 58.5744 41.155 58.4617C40.9297 57.7434 40.8734 56.9947 40.8734 55.9689V54.3376C40.8734 52.38 40.0426 51.4763 38.1981 51.4763C36.9308 51.4763 36.1423 51.6477 35.565 51.6477C35.4406 51.6477 35.2975 51.6312 35.2975 51.6312C35.2975 51.6312 35.1989 52.096 35.1989 52.4082C35.1989 52.9011 35.3256 53.056 35.7363 53.056C36.384 53.056 37.0716 52.7603 37.947 52.7603C38.9162 52.7603 39.4372 53.225 39.4372 54.2648V54.5043C39.0992 54.4057 38.353 54.2508 37.3556 54.2508C35.3843 54.2508 34.6216 55.3211 34.6216 56.4924C34.6216 58.0392 35.5509 58.7293 37.0435 58.7293C38.353 58.7293 39.1133 57.9969 39.4489 57.2224C39.4513 58.1918 39.5334 58.6307 40.2257 58.6307ZM37.2265 57.4195C36.6351 57.4195 36.1986 57.1496 36.1986 56.4478C36.1986 55.7037 36.8346 55.3211 37.832 55.3211C38.5618 55.3211 39.1556 55.4338 39.4372 55.5042V55.5863C39.3104 56.3187 38.6064 57.4195 37.2265 57.4195Z" fill="white"/>
<path d="M44.8452 57.237C44.4228 57.237 44.2656 57.0797 44.2656 56.3638C44.2656 54.263 44.451 50.5051 44.451 48.9301C44.451 48.5898 44.2374 48.4372 43.6742 48.4372C43.3926 48.4372 43.0687 48.4771 42.7449 48.5616C42.7449 48.5616 42.8998 49.2658 42.8998 49.7446C42.8998 51.897 42.7988 53.7161 42.7988 56.0939C42.7988 57.9951 43.2377 58.6289 44.3782 58.6289C45.2489 58.6289 45.4179 58.2322 45.4179 57.697C45.4179 57.3872 45.3474 57.1759 45.3474 57.1759C45.3474 57.1759 45.0846 57.237 44.8452 57.237Z" fill="white"/>
<path d="M52.0796 56.7559C52.0796 56.3897 52.1078 55.3194 52.1218 54.8711C52.1218 54.8711 52.6686 54.9673 53.2061 54.9673C55.4003 54.9673 57.2331 54.066 57.2331 51.6999C57.2331 49.5311 55.7687 48.6039 53.5722 48.6039C52.6874 48.6039 51.3474 48.7025 50.1365 48.9678C50.3219 49.5311 50.4744 50.4066 50.5049 51.3643C50.5331 52.0685 50.5331 52.6881 50.5331 53.2796C50.5331 55.4626 50.4462 56.9554 50.4462 58.1361C50.4462 58.5163 50.6152 58.6313 51.0517 58.6313C51.5727 58.6313 52.2744 58.4623 52.2744 58.4623C52.2744 58.4623 52.0796 57.3756 52.0796 56.7559ZM55.5435 51.7164C55.5435 52.9275 54.8113 53.6035 53.2929 53.6035C52.671 53.6035 52.1242 53.4909 52.1242 53.4909C52.1101 51.3479 52.0115 50.0944 52.0115 50.0944C52.0115 50.0545 52.0115 50.0381 52.0256 50.0381C52.4621 49.9677 52.9291 49.9254 53.4337 49.9254C54.6564 49.9278 55.5435 50.4465 55.5435 51.7164Z" fill="white"/>
<path d="M63.7505 58.6307C64.1025 58.6307 64.4428 58.5744 64.6821 58.4617C64.4545 57.7434 64.4005 56.9947 64.4005 55.9689V54.3376C64.4005 52.38 63.5674 51.4763 61.7252 51.4763C60.4579 51.4763 59.6694 51.6477 59.0921 51.6477C58.9653 51.6477 58.8245 51.6312 58.8245 51.6312C58.8245 51.6312 58.726 52.096 58.726 52.4082C58.726 52.9011 58.8527 53.056 59.2634 53.056C59.9111 53.056 60.5987 52.7603 61.4741 52.7603C62.4456 52.7603 62.9643 53.225 62.9643 54.2648V54.5043C62.6263 54.4057 61.8824 54.2508 60.8827 54.2508C58.9114 54.2508 58.151 55.3211 58.151 56.4924C58.151 58.0392 59.078 58.7293 60.5729 58.7293C61.8824 58.7293 62.6428 57.9969 62.9784 57.2224C62.976 58.1918 63.0605 58.6307 63.7505 58.6307ZM60.7512 57.4195C60.1599 57.4195 59.7234 57.1496 59.7234 56.4478C59.7234 55.7037 60.357 55.3211 61.3567 55.3211C62.0866 55.3211 62.678 55.4338 62.9596 55.5042V55.5863C62.8352 56.3187 62.1312 57.4195 60.7512 57.4195Z" fill="white"/>
<path d="M70.5371 51.5302H70.2133C69.2558 51.5302 68.6386 51.8259 67.9298 52.5724C67.8618 51.7696 67.6928 51.502 66.9747 51.502C66.5663 51.502 66.1862 51.6288 66.1862 51.6288C66.2988 52.2484 66.3152 52.7836 66.3152 53.6145C66.3152 55.4313 66.2589 56.3326 66.2589 57.978C66.2589 58.4146 66.456 58.6259 66.8902 58.6259C67.2985 58.6259 67.5098 58.586 67.9298 58.4733C67.8172 57.6541 67.8172 56.9218 67.8172 56.1214C67.8172 55.206 67.8618 54.4314 67.9298 53.6427C68.4673 53.1639 69.1009 53.1216 69.8331 53.1216C70.5371 53.1216 70.5653 52.5325 70.5653 52.0395C70.5653 51.8682 70.5512 51.6874 70.5371 51.5302Z" fill="white"/>
<path d="M73.3252 53.2091C73.3111 51.322 73.3675 50.2798 73.3675 49.085C73.3675 48.5475 73.2126 48.4372 72.7338 48.4372C72.41 48.4372 71.9453 48.4771 71.6637 48.5217C71.7763 49.2259 71.8303 49.916 71.8303 50.5075C71.8303 53.2256 71.7623 55.3803 71.8162 57.9834C71.8303 58.3379 71.9594 58.6313 72.3795 58.6313C72.7315 58.6313 73.1821 58.5632 73.4778 58.4763C73.4379 58.3379 73.3487 57.9412 73.3487 57.4342L73.3369 55.5188C73.7875 55.5353 74.1231 55.5071 74.4071 55.4508C74.6183 55.9437 75.0407 56.8028 75.4068 57.4905C75.9841 58.5327 76.5215 58.6618 77.0965 58.6618C77.6433 58.6618 77.8709 58.4763 77.8709 57.913C77.8709 57.5445 77.8146 57.2206 77.8146 57.2206C77.2936 57.2206 77.1106 57.1384 76.7867 56.7722C76.2235 56.0962 75.7166 55.0682 75.6063 54.8287C76.3643 54.2091 76.9721 53.519 77.5072 52.7303C77.7888 52.3219 77.6902 52.0543 77.195 51.7585C76.9439 51.606 76.4793 51.4933 76.4793 51.4933C75.9583 52.3665 75.2683 53.3523 74.6206 53.9579C74.2686 54.2936 73.9729 54.4062 73.3252 54.4344V53.2091Z" fill="white"/>
</svg>
