<svg width="341" height="51" viewBox="0 0 341 51" fill="none" xmlns="http://www.w3.org/2000/svg">
<path d="M5.84481 51L73 42.1997L67.1552 0L0 8.80025L5.84481 51Z" fill="#81007F"/>
<path d="M45.312 37.448C49.44 37.448 52.768 35.944 54.944 33.224L50.912 29.576C49.504 31.272 47.776 32.2 45.632 32.2C41.952 32.2 39.392 29.64 39.392 25.8C39.392 21.96 41.952 19.4 45.632 19.4C47.776 19.4 49.504 20.328 50.912 22.024L54.944 18.376C52.768 15.656 49.44 14.152 45.312 14.152C38.208 14.152 32.992 18.984 32.992 25.8C32.992 32.616 38.208 37.448 45.312 37.448ZM71.4383 27.912C73.0063 27.144 73.9023 25.832 73.9023 24.168C73.9023 21.288 71.2783 19.656 66.7663 19.656H57.4543V37H67.2143C72.0783 37 74.4143 35.048 74.4143 32.008C74.4143 29.992 73.4223 28.584 71.4383 27.912ZM62.8943 23.56H66.2223C67.6303 23.56 68.3343 24.04 68.3343 25.064C68.3343 26.088 67.6303 26.632 66.2223 26.632H62.8943V23.56ZM66.6703 33.064H62.8943V29.864H66.7343C68.1743 29.864 68.8783 30.408 68.8783 31.464C68.8783 32.52 68.1423 33.064 66.6703 33.064ZM85.0695 19.656C79.7575 19.656 76.4295 22.024 76.4295 26.184C76.4295 28.68 77.7095 30.472 79.9815 31.464L76.1415 37H82.5735L85.6455 32.296H88.3975V37H93.8055V19.656H85.0695ZM85.1975 24.456H88.3975V28.392H85.1655C83.5015 28.392 82.6375 27.816 82.6375 26.408C82.6375 25.032 83.5655 24.456 85.1975 24.456ZM110.053 28.008C111.653 27.208 112.709 25.864 112.709 24.232C112.709 21.032 108.965 19.304 104.229 19.304C101.829 19.304 99.2373 19.848 96.7733 20.872L98.2133 24.872C100.165 24.136 101.989 23.72 103.717 23.72C105.701 23.72 106.565 24.232 106.565 25.096C106.565 25.96 105.861 26.408 104.421 26.408H101.221V29.96H104.965C106.373 29.96 107.045 30.376 107.045 31.304C107.045 32.36 105.797 32.904 103.909 32.904C101.765 32.904 99.7173 32.552 97.7973 31.752L96.2293 35.848C98.6613 36.904 101.445 37.352 104.101 37.352C109.157 37.352 113.189 35.336 113.189 31.784C113.189 29.992 112.037 28.648 110.053 28.008ZM123.214 19.368C120.494 19.368 117.55 20.072 115.566 21.384L117.614 25.512C118.798 24.584 120.654 24.008 122.318 24.008C124.718 24.008 125.902 25 125.998 26.76H122.542C117.166 26.76 114.83 28.744 114.83 31.944C114.83 34.952 117.134 37.288 121.294 37.288C123.822 37.288 125.55 36.424 126.414 34.76V37H132.078V27.368C132.078 21.864 128.846 19.368 123.214 19.368ZM122.99 33.448C121.55 33.448 120.718 32.712 120.718 31.688C120.718 30.632 121.422 29.928 123.374 29.928H125.998V31.432C125.518 32.808 124.334 33.448 122.99 33.448ZM151.224 19.656H134.008V24.488H139.608V37H145.656V24.488H151.224V19.656ZM163.755 25.032H159.627V19.656H153.579V37H162.987C167.915 37.032 170.859 34.696 170.859 30.856C170.859 27.176 168.363 25.064 163.755 25.032ZM162.379 32.84L159.627 32.808V28.744H162.379C163.851 28.776 164.683 29.352 164.683 30.76C164.683 32.168 163.851 32.84 162.379 32.84ZM182.158 37.288C186.094 37.288 189.102 35.528 190.286 32.52L185.582 30.12C184.75 31.752 183.534 32.456 182.126 32.456C180.014 32.456 178.35 30.984 178.35 28.296C178.35 25.672 180.014 24.2 182.126 24.2C183.534 24.2 184.75 24.904 185.582 26.536L190.286 24.136C189.102 21.128 186.094 19.368 182.158 19.368C176.334 19.368 172.206 23.08 172.206 28.296C172.206 33.576 176.334 37.288 182.158 37.288ZM200.038 19.656C194.726 19.656 191.398 22.024 191.398 26.184C191.398 28.68 192.678 30.472 194.95 31.464L191.11 37H197.542L200.614 32.296H203.366V37H208.774V19.656H200.038ZM200.166 24.456H203.366V28.392H200.134C198.47 28.392 197.606 27.816 197.606 26.408C197.606 25.032 198.534 24.456 200.166 24.456ZM230.877 37.288C234.813 37.288 237.821 35.528 239.005 32.52L234.301 30.12C233.469 31.752 232.253 32.456 230.845 32.456C228.733 32.456 227.069 30.984 227.069 28.296C227.069 25.672 228.733 24.2 230.845 24.2C232.253 24.2 233.469 24.904 234.301 26.536L239.005 24.136C237.821 21.128 234.813 19.368 230.877 19.368C225.053 19.368 220.925 23.08 220.925 28.296C220.925 33.576 225.053 37.288 230.877 37.288ZM250.861 37H256.909V30.92H263.149V37H269.229V19.656H263.149V26.088H256.909V19.656H250.861V37ZM280.401 19.368C277.681 19.368 274.737 20.072 272.753 21.384L274.801 25.512C275.985 24.584 277.841 24.008 279.505 24.008C281.905 24.008 283.089 25 283.185 26.76H279.729C274.353 26.76 272.017 28.744 272.017 31.944C272.017 34.952 274.321 37.288 278.481 37.288C281.009 37.288 282.737 36.424 283.601 34.76V37H289.265V27.368C289.265 21.864 286.033 19.368 280.401 19.368ZM280.177 33.448C278.737 33.448 277.905 32.712 277.905 31.688C277.905 30.632 278.609 29.928 280.561 29.928H283.185V31.432C282.705 32.808 281.521 33.448 280.177 33.448ZM315.227 37L315.195 19.656H309.467L304.155 28.712L299.323 19.656H292.923V37H298.395V27.752L302.715 35.464H305.307L309.755 27.88V37H315.227ZM319.329 37H324.961L332.161 27.88V37H338.241V19.656H332.641L325.377 28.744V19.656H319.329V37Z" fill="white"/>
</svg>
