<svg width="180" height="46" viewBox="0 0 180 46" fill="none" xmlns="http://www.w3.org/2000/svg">
<path d="M5.03568 45.7827L62.8942 38.0552L57.8585 1L0 8.72743L5.03568 45.7827Z" fill="#81007F"/>
<path d="M30.8348 32.3614H24.8908L21.3605 21.1942H21.2884L17.8303 32.3617H11.8862L5.69019 14.4216H12.0663L15.1648 25.7692H15.2728L18.4784 14.4216H24.4225L27.7367 25.7692H27.8085L30.9426 14.4216H37.0665L30.8348 32.3614Z" fill="white"/>
<path d="M56.1714 25.0124H43.1669C43.347 26.9937 45.3283 28.3987 47.4538 28.3987C49.327 28.3987 50.6238 27.6061 51.4163 26.5254L55.5231 29.1192C53.8299 31.5687 51.0202 32.9378 47.382 32.9378C41.9779 32.9378 37.5112 29.5156 37.5112 23.4635C37.5112 17.5915 41.7622 13.845 47.2016 13.845C52.497 13.845 56.2074 17.4835 56.2074 23.6077C56.2074 24.0757 56.2074 24.5801 56.1714 25.0124ZM50.768 21.338C50.768 19.4647 49.5793 17.9158 47.2375 17.9158C44.9681 17.9158 43.3109 19.5009 43.1669 21.338H50.768Z" fill="white"/>
<path d="M80.0371 32.358V30.0165H79.9647C78.8122 31.8176 76.4704 32.8624 74.093 32.8624C68.6895 32.8624 65.5552 28.3236 65.5552 23.316C65.5552 18.3087 68.7975 13.9138 74.0206 13.9138C76.6508 13.9138 78.4879 15.1387 79.4965 16.3274H79.5683V5.12402H85.4762V32.358H80.0371ZM75.498 18.741C72.6882 18.741 71.247 21.0104 71.247 23.316C71.247 25.6578 72.6882 27.9631 75.498 27.9631C78.1636 27.9631 79.8208 25.6934 79.8208 23.3522C79.821 21.0825 78.1636 18.741 75.498 18.741Z" fill="white"/>
<path d="M92.636 11.9327C90.7269 11.9327 89.2498 10.4556 89.2498 8.69033C89.2498 6.96127 90.7266 5.44824 92.636 5.44824C94.5096 5.44824 96.0226 6.88917 96.0226 8.69033C96.0226 10.5279 94.5096 11.9327 92.636 11.9327ZM89.6824 32.3581V14.4184H95.5903V32.3581H89.6824Z" fill="white"/>
<path d="M108.115 41.0036C104.981 41.0036 101.306 39.995 98.8925 38.1938L101.846 33.9793C103.576 35.4921 105.773 36.249 107.79 36.249C111.248 36.249 112.869 34.2315 112.869 31.2414V30.1607H112.761C111.645 31.6016 109.699 32.5381 107.322 32.5381C101.882 32.5381 98.7483 28.2874 98.7483 23.316C98.7483 18.3449 101.882 13.9138 107.286 13.9138C109.52 13.9138 111.753 14.8144 113.014 16.7236H113.086V14.418H118.669V30.6649C118.669 37.6894 114.491 41.0036 108.115 41.0036ZM108.691 18.741C106.025 18.741 104.476 20.7944 104.476 23.2798C104.476 25.6575 106.025 27.8548 108.691 27.8548C111.393 27.8548 113.05 25.7294 113.05 23.2798C113.05 20.8303 111.357 18.741 108.691 18.741Z" fill="white"/>
<path d="M125.829 11.9327C123.92 11.9327 122.443 10.4556 122.443 8.69033C122.443 6.96127 123.92 5.44824 125.829 5.44824C127.702 5.44824 129.216 6.88917 129.216 8.69033C129.215 10.5279 127.702 11.9327 125.829 11.9327ZM122.875 32.3581V14.4184H128.783V32.3581H122.875Z" fill="white"/>
<path d="M139.539 18.8492V25.6936C139.539 27.3509 140.08 28.2153 141.773 28.2153C142.349 28.2153 143.069 28.1072 143.502 27.9269L143.574 32.2496C142.781 32.5378 141.412 32.79 140.152 32.79C135.361 32.79 133.775 30.2322 133.775 26.4138V18.8492H130.893V14.4182H133.739V9.69897H139.539V14.4182H143.754V18.8492H139.539Z" fill="white"/>
<path d="M146.155 16.8679C148.245 14.8866 151.235 13.8418 154.153 13.8418C160.169 13.8418 162.402 16.796 162.402 23.3161V32.3581H156.998V30.4489H156.89C155.99 31.926 153.937 32.7904 151.811 32.7904C148.965 32.7904 145.291 31.3854 145.291 27.1706C145.291 21.9832 151.595 21.1188 156.818 21.1188V20.8307C156.818 19.0654 155.413 18.2369 153.576 18.2369C151.883 18.2369 150.226 19.0654 149.146 20.074L146.155 16.8679ZM156.998 24.541H156.242C153.648 24.541 150.73 24.865 150.73 26.9905C150.73 28.3593 152.099 28.8276 153.288 28.8276C155.665 28.8276 156.998 27.3867 156.998 25.1532V24.541H156.998Z" fill="white"/>
<path d="M166.41 32.358V5.12402H172.39V32.358H166.41Z" fill="white"/>
</svg>
