<svg width="135" height="34" viewBox="0 0 135 34" fill="none" xmlns="http://www.w3.org/2000/svg">
<path d="M3.77676 33.8393L47.1706 28.1277L43.3939 0.739014L0 6.45059L3.77676 33.8393Z" fill="#81007F"/>
<path d="M23.1262 23.9192H18.6681L16.0205 15.6652H15.9664L13.3728 23.9194H8.91473L4.2677 10.6594H9.04982L11.3736 19.0468H11.4546L13.8589 10.6594H18.3169L20.8026 19.0468H20.8565L23.207 10.6594H27.8L23.1262 23.9192Z" fill="white"/>
<path d="M42.1287 18.4874H32.3753C32.5104 19.9518 33.9964 20.9903 35.5905 20.9903C36.9954 20.9903 37.968 20.4045 38.5624 19.6057L41.6424 21.5228C40.3726 23.3333 38.2653 24.3452 35.5366 24.3452C31.4836 24.3452 28.1335 21.8158 28.1335 17.3425C28.1335 13.0023 31.3218 10.2332 35.4013 10.2332C39.3729 10.2332 42.1556 12.9225 42.1556 17.4491C42.1556 17.795 42.1556 18.1678 42.1287 18.4874ZM38.0761 15.7715C38.0761 14.3869 37.1846 13.242 35.4282 13.242C33.7262 13.242 32.4833 14.4136 32.3753 15.7715H38.0761Z" fill="white"/>
<path d="M60.0278 23.9165V22.1859H59.9735C59.1091 23.5172 57.3528 24.2894 55.5697 24.2894C51.5171 24.2894 49.1664 20.9346 49.1664 17.2333C49.1664 13.5323 51.5981 10.2839 55.5155 10.2839C57.4881 10.2839 58.8659 11.1892 59.6223 12.0679H59.6762V3.78711H64.1072V23.9165H60.0278ZM56.6235 13.8518C54.5162 13.8518 53.4353 15.5292 53.4353 17.2333C53.4353 18.9642 54.5162 20.6682 56.6235 20.6682C58.6227 20.6682 59.8656 18.9906 59.8656 17.2601C59.8658 15.5825 58.6227 13.8518 56.6235 13.8518Z" fill="white"/>
<path d="M69.477 8.81946C68.0451 8.81946 66.9373 7.72768 66.9373 6.42294C66.9373 5.14494 68.0449 4.02661 69.477 4.02661C70.8821 4.02661 72.0169 5.09164 72.0169 6.42294C72.0169 7.78117 70.8821 8.81946 69.477 8.81946ZM67.2617 23.9165V10.6567H71.6926V23.9165H67.2617Z" fill="white"/>
<path d="M81.086 30.3068C78.7354 30.3068 75.9794 29.5613 74.1694 28.23L76.3847 25.115C77.6817 26.2331 79.3297 26.7925 80.8428 26.7925C83.4364 26.7925 84.6521 25.3014 84.6521 23.0913V22.2925H84.5711C83.7335 23.3575 82.2746 24.0497 80.4914 24.0497C76.4118 24.0497 74.0613 20.9079 74.0613 17.2334C74.0613 13.5591 76.4118 10.2839 80.4646 10.2839C82.1398 10.2839 83.8147 10.9496 84.7605 12.3607H84.8144V10.6566H89.0021V22.6651C89.0021 27.8572 85.8681 30.3068 81.086 30.3068ZM81.5182 13.8519C79.5186 13.8519 78.3571 15.3696 78.3571 17.2066C78.3571 18.9641 79.5188 20.5882 81.5182 20.5882C83.5445 20.5882 84.7872 19.0172 84.7872 17.2066C84.7872 15.3961 83.5176 13.8519 81.5182 13.8519Z" fill="white"/>
<path d="M94.3721 8.81946C92.9402 8.81946 91.8324 7.72768 91.8324 6.42294C91.8324 5.14494 92.94 4.02661 94.3721 4.02661C95.7769 4.02661 96.9118 5.09164 96.9118 6.42294C96.9116 7.78117 95.7769 8.81946 94.3721 8.81946ZM92.1564 23.9165V10.6567H96.5874V23.9165H92.1564Z" fill="white"/>
<path d="M104.654 13.9319V18.9908C104.654 20.2157 105.06 20.8546 106.329 20.8546C106.762 20.8546 107.302 20.7748 107.626 20.6415L107.68 23.8366C107.086 24.0495 106.059 24.236 105.114 24.236C101.52 24.236 100.332 22.3454 100.332 19.5232V13.9319H98.1699V10.6568H100.304V7.1687H104.654V10.6568H107.815V13.9319H104.654Z" fill="white"/>
<path d="M109.617 12.4674C111.184 11.0029 113.426 10.2307 115.615 10.2307C120.126 10.2307 121.801 12.4143 121.801 17.2335V23.9167H117.749V22.5055H117.668C116.992 23.5973 115.453 24.2362 113.858 24.2362C111.724 24.2362 108.968 23.1977 108.968 20.0825C108.968 16.2483 113.696 15.6094 117.614 15.6094V15.3964C117.614 14.0917 116.56 13.4793 115.182 13.4793C113.912 13.4793 112.67 14.0917 111.859 14.8371L109.617 12.4674ZM117.749 18.1388H117.182C115.236 18.1388 113.048 18.3783 113.048 19.9493C113.048 20.9611 114.074 21.3072 114.966 21.3072C116.749 21.3072 117.749 20.2421 117.749 18.5913V18.1388H117.749Z" fill="white"/>
<path d="M124.807 23.9165V3.78711H129.293V23.9165H124.807Z" fill="white"/>
</svg>
