<svg width="174" height="41" viewBox="0 0 174 41" fill="none" xmlns="http://www.w3.org/2000/svg">
<path fill-rule="evenodd" clip-rule="evenodd" d="M67.3165 9.92747C67.2512 9.81813 67.1207 9.66507 67.0337 9.55573C66.9685 9.49013 66.9467 9.46827 66.8815 9.3808C65.9027 8.1344 63.7712 7.25973 62.2487 6.9536C60.2042 6.53813 58.1162 6.64747 56.1587 7.30347C54.571 7.82827 53.3747 8.63733 52.4177 9.99307C51.3955 11.4144 50.9387 13.0544 50.9387 14.9787V24.0533H55.9412V14.5413C55.9412 13.2075 56.6155 11.9173 57.7682 11.3269C59.0732 10.6709 60.9872 10.6272 62.3575 11.1301C63.2927 11.4581 63.793 11.9392 64.2062 12.8357C64.6412 13.7541 64.6847 14.8693 64.6847 15.9627V24.1408H66.577C66.838 24.1408 66.925 24.0971 67.186 24.0971H69.1C69.361 24.0971 69.448 24.0533 69.709 24.0533V15.3723C69.709 14.2133 70.1005 12.8139 70.8182 11.9829C72.145 10.4085 75.9512 10.3648 77.365 11.808C77.5607 12.0048 77.6695 12.136 77.8435 12.3984C78.3002 13.12 78.496 13.9728 78.496 14.9349V24.0533H83.4767V14.5413C83.4767 12.464 82.8895 10.8896 81.7585 9.3808L81.28 8.83413C79.9097 7.45653 77.5825 6.66933 75.5162 6.66933C74.2982 6.66933 73.624 6.6912 72.4495 6.97547L70.9052 7.43467C70.1875 7.69707 69.3175 8.15627 68.7085 8.61547C68.4475 8.81227 68.2082 9.00907 67.969 9.22773L67.3165 9.92747ZM100.855 19.9861H92.6335C91.9157 19.9861 91.3285 19.2864 91.285 18.4773C91.2415 17.7339 91.8505 16.9685 92.6335 16.9685L102.769 17.0123C102.769 17.8213 102.856 18.368 102.573 18.9584C102.269 19.5488 101.573 19.9861 100.855 19.9861ZM89.0882 6.93173V10.8021C89.0882 10.9989 89.5885 10.9115 89.9582 10.9115C91.5242 10.9115 100.311 10.8459 100.964 10.9552C102.269 11.1301 102.725 11.8955 102.725 13.2293V13.3824C101.855 13.3824 101.051 13.4261 100.159 13.4261H92.242C91.285 13.4261 90.6542 13.4917 89.9582 13.776C89.458 13.9728 88.936 14.3008 88.5227 14.6507C88.153 14.9787 88.0442 15.0443 87.6962 15.4816C87.0872 16.2469 86.6957 17.4277 86.6957 18.4555C86.6957 19.8331 86.848 20.664 87.544 21.8011C88.2617 22.96 89.7842 24.0752 91.3285 24.0752H101.768C103.03 24.0752 104.291 23.6379 105.227 22.96C105.596 22.6976 106.097 22.1947 106.379 21.8229C107.249 20.6421 107.75 19.4613 107.75 17.8213V12.792C107.75 10.9333 106.967 9.184 105.596 8.1344C104.074 6.97547 102.073 6.84427 100.094 6.84427H89.1752C89.11 6.8224 89.0882 6.84427 89.0882 6.93173ZM112.143 24.0315H117.146V15.8971H120.604C121.713 15.8971 122.518 16.1376 123.127 16.9904C123.257 17.1653 123.366 17.3403 123.497 17.5371C123.562 17.6464 123.605 17.712 123.671 17.8213L124.301 19.0021C124.367 19.1115 124.388 19.1989 124.454 19.3083L126.998 24.0533H132.653C132.588 23.944 132.545 23.8347 132.501 23.7253C132.436 23.5941 132.392 23.5285 132.305 23.3755L129.608 18.3461C129.543 18.1931 129.5 18.1493 129.413 17.9963L129.065 17.3184C128.63 16.4437 128.108 15.4816 127.39 14.8693C127.107 14.6288 126.411 14.2571 125.933 14.2571V14.1915C126.237 14.1915 126.868 13.8197 127.085 13.6885C127.39 13.4917 127.76 13.1637 127.977 12.8795C128.282 12.5077 128.717 11.8299 129.021 11.3925L131.066 8.37493C131.196 8.17813 131.283 8.04693 131.414 7.85013C131.544 7.65333 132.023 6.97547 132.066 6.80053H126.455C126.107 7.32533 124.323 10.0805 123.932 10.5179C123.823 10.6491 123.758 10.6928 123.649 10.824L123.323 11.1301C122.931 11.48 122.213 11.8299 121.496 11.8299H117.124V0H112.121V24.0315H112.143ZM165.518 19.9861H161.45C160.515 19.9861 159.406 19.3739 158.862 18.6741C157.971 17.5152 157.949 16.8155 157.949 15.1317C157.949 14.5195 157.992 13.8635 158.144 13.4043C158.427 12.5077 159.08 11.7205 159.928 11.2832C160.341 11.0864 160.863 10.8459 161.45 10.8459H165.626C167.127 10.8459 168.541 12.0485 168.911 13.5573C169.106 14.3008 169.041 16.5531 168.845 17.2747C168.715 17.7776 168.454 18.2149 168.149 18.5867C167.693 19.2427 166.627 19.9861 165.518 19.9861ZM174 14.0384V16.7717C174 16.7936 174 16.8155 174 16.8592C174 18.696 173.152 20.5765 171.912 21.8011C170.673 23.0475 168.911 24.0533 167.127 24.0533H159.776C158.362 24.0533 156.687 23.3099 155.643 22.4133C155.273 22.1072 154.817 21.6699 154.534 21.2981C154.121 20.7952 153.773 20.2923 153.533 19.6581C152.75 17.712 152.946 16.2688 152.946 14.1696C152.946 12.9013 153.251 11.8736 153.686 11.0208C153.947 10.496 154.49 9.73067 154.904 9.29333C156.143 8.0688 157.557 7.216 159.319 6.93173C160.363 6.7568 164.778 6.8224 165.996 6.8224C167.801 6.8224 169.172 7.0848 170.52 8.0032L171.347 8.61547C172.086 9.184 172.826 10.1024 173.239 10.9552C173.457 11.4144 173.631 11.7861 173.761 12.3328C173.913 12.8576 173.979 13.4261 174 14.0384ZM135.133 14.8475V24.0533H140.135V14.6069C140.135 13.1856 140.744 11.7424 142.093 11.1301C142.528 10.9333 143.028 10.8677 143.681 10.8677C145.899 10.8677 148.292 10.8459 150.51 10.8677C150.684 10.8677 150.88 10.9115 150.88 10.7584V6.93173C150.88 6.84427 150.858 6.8224 150.771 6.8224H143.398C141.941 6.8224 140.94 6.90987 139.853 7.30347C139.592 7.39093 139.374 7.50027 139.135 7.6096C138.896 7.71893 138.7 7.82827 138.482 7.98133C136.133 9.53387 135.133 11.9392 135.133 14.8475Z" fill="white"/>
<path d="M21.4006 18.2659L21.4441 18.2878C21.7269 18.5502 22.5751 19.1187 23.0971 19.5779C23.1841 19.6435 23.2494 19.7091 23.3364 19.7747C23.4234 19.8403 23.4886 19.884 23.5756 19.9715C23.6844 20.059 23.7496 20.1027 23.8366 20.1902C24.2934 20.6056 25.4244 21.6552 25.7289 22.027C25.8159 22.1363 25.8376 22.1582 25.9464 22.2675L27.2296 23.7763C29.0566 26.2035 30.2311 28.1934 31.0794 31.1454C31.2099 31.6264 31.3186 32.1512 31.4056 32.6979L31.5796 34.3598C31.5796 34.8627 31.5579 34.7971 31.2751 35.0158C30.5791 35.5406 29.4916 36.284 28.7086 36.6776C28.1431 36.9619 27.8169 37.1587 27.1644 37.4211C25.4679 38.1208 23.1406 38.8206 21.2266 38.9299C19.4214 39.0392 17.7466 39.0611 15.9849 38.7112C14.6146 38.427 14.2884 38.3395 13.0269 37.924C11.7001 37.4648 10.4386 36.8526 9.24236 36.131C8.45936 35.6499 8.02436 35.3 7.32836 34.7971C7.21961 34.7315 7.15436 34.6659 7.08911 34.5784C7.21961 34.5566 7.28486 34.4691 7.39361 34.4035C7.50236 34.316 7.58936 34.2723 7.69811 34.2067C8.72036 33.507 10.3734 32.348 11.2651 31.539L12.5266 30.4238C12.7006 30.2488 12.8529 30.1395 13.0269 29.9646L15.9196 26.8595C16.8984 25.6787 18.2686 23.9075 19.0299 22.5955C19.1386 22.3768 19.2474 22.2019 19.3779 22.0051L20.2479 20.4744C20.6176 19.6872 20.9656 19.1406 21.3354 18.2222L21.3571 18.244L21.4006 18.2659Z" fill="white"/>
<path fill-rule="evenodd" clip-rule="evenodd" d="M21.489 17.7557L21.4673 17.865L21.5108 17.8869C21.5543 17.865 21.5543 17.865 21.5543 17.9088C22.7723 17.9088 25.3388 18.4335 26.4915 18.6741C29.1885 19.2426 32.4728 20.489 34.887 21.6917C35.8875 22.1946 36.6705 22.632 37.6493 23.2223C37.9538 23.3973 38.2365 23.6159 38.541 23.769C38.541 23.5722 39.0848 21.648 39.1065 19.5269C39.1065 19.3082 39.15 19.2207 39.15 18.9583C39.15 18.7178 39.1283 18.5866 39.1065 18.3898C39.063 17.3839 39.0848 17.2309 38.9325 16.1376C38.4105 12.4858 37.062 9.53382 34.9958 6.84422C34.8218 6.60368 34.626 6.40688 34.452 6.18822L33.582 5.22609C33.4733 5.11675 33.3863 5.02928 33.2775 4.91995L31.32 3.23622C31.1025 3.06129 30.8633 2.93008 30.6458 2.75515C30.4065 2.58022 30.189 2.42715 29.928 2.27408C28.797 1.57435 27.9705 1.15889 26.7308 0.655952C26.4263 0.524752 25.2083 0.0655518 24.9038 0.0655518C24.9038 0.524752 24.9473 0.852752 24.9473 1.31195L24.9038 3.93595C24.882 4.67942 24.6428 6.88795 24.534 7.54395C24.4035 8.33115 24.273 9.03088 24.1208 9.79622L22.9898 13.9509C22.7723 14.6288 22.533 15.241 22.272 15.8751C22.1633 16.225 21.663 17.4496 21.489 17.7557Z" fill="white"/>
<path fill-rule="evenodd" clip-rule="evenodd" d="M94.1343 31.9035C94.1343 30.8539 92.8728 30.3947 92.2203 31.1163C92.0245 31.3131 91.9158 31.5974 91.9158 31.9691V37.5233C91.9158 38.9446 93.9385 39.0977 94.1343 37.6763C94.243 36.7579 94.0038 34.3744 94.1995 33.6528C94.417 32.8656 94.8955 32.7126 95.5698 32.7126C96.9618 32.7126 96.7008 34.615 96.7008 35.599C96.7008 36.255 96.679 36.9766 96.7008 37.6107C96.7225 37.9387 96.853 38.1574 97.0053 38.3323C97.375 38.7697 98.1145 38.8134 98.5713 38.3761C98.767 38.1793 98.854 38.048 98.9193 37.6982C99.1368 36.3206 98.5495 33.8278 99.3325 33.0406C99.7675 32.6033 101.16 32.4283 101.442 33.6747C101.573 34.287 101.486 36.7798 101.508 37.6326C101.508 37.9387 101.66 38.2011 101.79 38.3542C102.421 39.032 103.683 38.6166 103.683 37.6982V33.303C103.683 32.6033 103.443 32.0347 103.139 31.6192C102.399 30.6134 100.833 30.5041 99.8545 30.9414C98.941 31.3569 98.8975 31.663 98.5495 31.9035C98.2668 31.488 98.2015 31.335 97.723 31.0288C97.5708 30.9195 97.3533 30.8321 97.1358 30.7883C96.3745 30.6134 95.722 30.679 95.0478 31.0726C94.6128 31.335 94.2213 31.8379 94.1343 31.9035ZM69.622 34.7462C69.622 33.6091 70.3615 32.5814 71.4708 32.5814C72.5583 32.5814 73.363 33.5216 73.363 34.615V34.8118C73.363 35.9051 72.6235 36.8454 71.449 36.8454C70.318 36.8672 69.622 35.7958 69.622 34.7462ZM69.6438 31.9035C69.6438 30.8976 68.491 30.3947 67.795 31.0507C67.6645 31.1819 67.4688 31.488 67.4688 31.7504V40.016C67.4688 40.4971 67.969 41 68.4475 41C68.7955 41 69.1435 40.9563 69.3828 40.6502C69.5568 40.4315 69.6655 40.2347 69.6655 39.8411C69.6655 39.1195 69.6655 38.376 69.6655 37.6544C69.7525 37.72 69.8395 37.895 70.1005 38.0918C71.884 39.4912 74.1895 38.6166 74.9943 37.0859C75.2335 36.6267 75.5163 35.9488 75.538 35.271C75.5598 34.7462 75.6033 35.0961 75.538 34.4619C75.538 34.3526 75.538 34.2651 75.538 34.1558C75.4945 33.4998 75.2553 32.9094 74.9725 32.3846C74.7768 32.0347 74.4723 31.7067 74.1678 31.4662C74.0373 31.3787 73.9503 31.2912 73.8198 31.2256C72.9933 30.7446 71.9275 30.5696 71.014 30.9195C70.144 31.2256 69.8178 31.7942 69.6438 31.9035ZM120.06 29.039V37.6982C120.06 38.1792 120.561 38.6822 121.039 38.6822C121.431 38.6822 121.779 38.6166 122.04 38.2448C122.322 37.8075 122.257 37.2827 122.257 36.6048C122.257 36.1675 122.388 36.2769 122.779 35.8833C122.866 35.7958 123.04 35.6646 123.127 35.599C123.236 35.6646 123.345 35.8832 123.432 36.0144L124.976 38.1355C125.346 38.6384 125.476 38.704 126.107 38.704C126.564 38.704 127.02 38.2886 127.02 37.6544C127.02 37.239 126.216 36.255 125.933 35.9051C125.715 35.6208 125.541 35.3584 125.324 35.0742L124.715 34.2433C124.78 34.1339 124.824 34.1339 124.932 34.0464C125.28 33.784 125.955 33.128 126.259 32.8875C127.76 31.7286 126.368 30.2198 125.28 31.0288C124.824 31.3787 124.019 32.2315 123.562 32.647C123.475 32.7345 123.432 32.7344 123.345 32.8438C123.258 32.9312 123.214 32.975 123.149 33.0624L122.279 33.8934C122.279 32.7344 122.279 31.5755 122.279 30.4166C122.279 29.9355 122.344 29.1046 122.214 28.7328C121.757 27.552 120.06 27.8582 120.06 29.039ZM131.631 32.5158C132.24 32.5158 132.501 32.5377 132.958 33.0406C133.219 33.3467 133.284 33.6528 133.393 34.112H130.109C130.196 33.9371 130.218 33.4561 130.587 33.0406C130.827 32.7782 131.153 32.5158 131.631 32.5158ZM127.977 34.5931C127.977 35.3366 128.043 35.9051 128.347 36.5393C128.608 37.0859 128.76 37.2827 129.152 37.6982C130.196 38.7478 131.979 39.0539 133.371 38.5947C133.98 38.3979 135.111 37.8512 134.959 37.064C134.829 36.3424 134.133 36.1238 133.567 36.5174C133.219 36.7579 132.915 36.911 132.501 36.9984C132.197 37.0422 132.066 37.0203 131.805 37.0203C130.892 36.9547 130.37 36.3425 130.196 35.5334C131.24 35.5334 132.306 35.5334 133.35 35.5334C134.024 35.5334 134.937 35.7083 135.329 35.1398C136.003 34.1339 134.981 31.2475 132.632 30.832C131.784 30.679 130.935 30.7446 130.218 31.1163C129.848 31.3131 129.652 31.4006 129.348 31.6848C129.217 31.7942 129.195 31.7723 129.087 31.9254C129.021 32.0347 128.956 32.0566 128.869 32.1659C128.782 32.2752 128.739 32.3408 128.673 32.4502C128.26 32.9968 127.977 33.8278 127.977 34.5931ZM80.3448 32.5158C80.9103 32.5158 81.2583 32.4939 81.7585 33.0406C82.1065 33.4342 82.15 33.9808 82.1935 34.112H78.9093C78.9528 34.0246 78.9528 33.9153 78.9963 33.8059C79.1268 33.3686 79.3878 32.9094 79.7793 32.7126C79.9098 32.647 80.149 32.5158 80.3448 32.5158ZM76.7778 34.4838C76.7778 35.6646 76.8865 36.3643 77.5825 37.2827C78.8005 38.9227 81.4323 39.2507 83.0635 38.1574C83.5855 37.8075 83.7595 37.6982 83.7595 37.1078C83.7595 36.5392 83.02 36.0144 82.3675 36.5174C81.8455 36.911 81.28 37.0422 80.584 36.9984C79.6923 36.9328 79.018 36.1894 78.9745 35.5115H82.9765C83.2158 35.5115 83.4333 35.5334 83.6073 35.4678L83.9335 35.2928C84.0858 35.1616 84.2163 35.0086 84.2598 34.7899C84.325 34.5494 84.3033 34.44 84.2815 34.2214C84.2598 33.7622 84.1945 33.4342 84.0423 33.0843C83.803 32.4721 83.4333 31.9035 82.933 31.5099C82.585 31.2257 82.5415 31.2038 82.1065 31.007C80.9538 30.4603 79.453 30.679 78.4308 31.3787C77.4738 32.0128 76.7778 33.3686 76.7778 34.4838ZM108.576 37.2171C108.12 37.2171 107.815 37.239 107.467 36.8891C106.88 36.2987 107.293 34.8336 109.468 35.2928L110.121 35.4678C110.121 36.1019 110.099 36.3862 109.751 36.7361C109.49 36.9985 109.055 37.2171 108.576 37.2171ZM105.705 31.991C105.705 32.8438 106.401 33.0624 107.054 32.8656C107.184 32.8219 107.293 32.8 107.445 32.7782C108.12 32.647 109.12 32.5814 109.664 33.0624C109.968 33.3248 110.077 33.6528 110.077 34.1995C109.098 33.9808 109.338 33.8934 108.011 33.8934C106.554 33.8934 105.118 34.6368 105.118 36.2331C105.118 37.0422 105.314 37.72 105.901 38.1574C106.967 38.9664 108.576 38.9664 109.642 38.2011C109.794 38.0918 109.947 37.9169 110.099 37.8294C110.099 38.1137 110.229 38.2886 110.36 38.4198C110.969 39.0102 112.209 38.6166 112.209 37.7419V33.8497C112.209 33.3905 112.1 32.8875 111.948 32.5595C111.752 32.0566 111.513 31.7504 111.121 31.4224C109.903 30.4166 106.771 30.7664 106.075 31.335C105.879 31.4662 105.705 31.6849 105.705 31.991ZM58.4643 31.8379V36.0801C58.4643 38.6166 61.0308 39.3163 62.4228 38.3979C62.9665 38.0262 63.2275 37.6544 63.3363 37.567C63.3363 37.9168 63.445 38.1574 63.619 38.3542C64.2063 39.0539 65.533 38.6603 65.533 37.72V31.7723C65.533 31.0288 64.4455 30.351 63.6843 31.1163C63.4885 31.3131 63.358 31.5099 63.358 31.8379C63.3363 32.6907 63.445 35.2928 63.2493 35.9051C63.1623 36.1238 62.9883 36.408 62.8143 36.5174C62.227 36.9328 61.1178 36.8891 60.7915 35.9051C60.6175 35.3584 60.6828 32.6251 60.6828 31.8379C60.6828 30.7227 59.1168 30.351 58.5948 31.4006C58.5078 31.5318 58.4643 31.663 58.4643 31.8379ZM55.006 36.4518C55.006 37.2171 53.8315 37.064 53.3748 36.9547C52.9833 36.8672 52.5265 36.6704 52.2003 36.4736C52.1133 36.408 52.0263 36.3643 51.9393 36.3206C50.8735 35.8614 50.1993 37.3264 51.178 37.9168C52.2873 38.5947 53.8098 39.0102 55.1583 38.6166C56.137 38.3323 56.9635 37.6107 56.9635 36.4955C56.9635 35.7958 56.9635 35.424 56.4198 34.8774C55.7673 34.2214 54.9408 34.0465 54.0925 33.7403C53.788 33.631 53.0703 33.3904 53.0703 33.0187C53.0703 32.0347 54.832 32.6033 55.4845 32.9313C56.659 33.4998 57.3115 31.9035 56.3328 31.3568C55.3323 30.8102 53.8098 30.504 52.5918 30.9851C51.3955 31.4662 50.7648 32.7563 51.1998 34.0027C51.4608 34.7243 52.135 35.1616 52.8963 35.4022C53.092 35.4678 53.266 35.5334 53.4618 35.599C53.875 35.7083 55.006 35.9488 55.006 36.4518ZM137.504 29.8699V30.8539C136.199 30.8539 136.112 32.7563 137.504 32.7563V36.6267C137.504 37.895 138.2 38.7478 139.461 38.7478C140.07 38.7478 141.049 38.7697 141.419 38.223C141.615 37.9387 141.615 37.6107 141.462 37.3264C141.354 37.0859 141.136 36.911 140.875 36.8454C140.44 36.736 139.679 37.1297 139.679 35.9926V32.7782H140.723C141.201 32.7782 141.636 32.2534 141.571 31.7723C141.462 30.7227 140.397 30.8977 139.657 30.8977V29.848C139.657 29.3889 139.135 28.864 138.678 28.864C138.33 28.864 138.026 28.9078 137.765 29.192C137.634 29.3014 137.504 29.5856 137.504 29.8699ZM85.9345 31.8816V37.5888C85.9345 38.1574 86.4348 38.6822 86.9133 38.6822C87.9355 38.6822 88.153 38.0918 88.153 37.1297C88.153 35.6646 87.8703 33.8059 89.3058 33.0843C89.9365 32.7782 90.6978 32.8656 90.6978 31.7942C90.6978 31.007 89.893 30.4822 89.0665 30.9414C88.9143 31.0289 88.8273 31.1382 88.7185 31.2694C88.588 31.4006 88.5228 31.5099 88.4358 31.663L88.1965 32.1003C88.153 30.2198 85.9345 30.5259 85.9345 31.8816ZM114.057 31.7504V37.7419C114.057 38.2011 114.579 38.6822 115.036 38.6822C115.471 38.6822 115.754 38.6385 116.037 38.223C116.733 37.2609 115.297 33.631 117.777 32.9313C118.516 32.7126 118.755 32.5158 118.755 31.6848C118.755 31.4006 118.603 31.2038 118.451 31.0507C117.994 30.5915 117.255 30.7227 116.798 31.2694C116.689 31.3787 116.58 31.5536 116.493 31.6848L116.232 32.144C116.232 31.6848 116.211 31.4443 115.971 31.1819C115.515 30.679 114.819 30.6352 114.362 31.0726C114.253 31.2038 114.057 31.5099 114.057 31.7504Z" fill="white"/>
<path d="M20.8012 17.7965L20.7795 17.7746C20.6272 17.7965 20.1705 17.7309 20.0182 17.7309L18.474 17.6434H17.691C17.256 17.6434 17.5605 17.5778 16.9297 17.6434C16.7122 17.6653 16.386 17.6434 16.1467 17.6434C15.5812 17.6434 15.1027 17.709 14.6025 17.709C14.3632 17.709 14.0587 17.7527 13.8412 17.7746C13.5802 17.7965 13.341 17.8183 13.1235 17.8402C12.6232 17.9058 12.1447 17.9714 11.688 18.037C9.49121 18.365 7.29446 18.9117 5.20646 19.6114C4.77146 19.7426 4.44521 19.8738 4.03196 20.0269L-0.426787 22.0167C-0.426787 21.7762 -0.492037 21.4045 -0.513787 21.1858C-0.644287 20.1799 -0.644287 19.5239 -0.644287 18.4743V18.4525C-0.644287 16.9218 -0.318037 15.0194 0.138713 13.5543C0.530213 12.133 0.943463 11.1271 1.59596 9.83699L2.09621 8.94046C2.57471 8.13139 2.85746 7.69406 3.42296 6.95059L4.68446 5.41992C4.74971 5.33246 4.81496 5.28872 4.90196 5.20126L6.11996 4.04232C6.20696 3.95486 6.25046 3.91112 6.35921 3.82366C6.44621 3.75806 6.51146 3.69246 6.62021 3.60499C7.42496 2.94899 7.70771 2.77406 8.53421 2.22739C9.01271 1.89939 11.166 0.762324 11.6227 0.652991C11.9272 0.587391 13.602 1.98686 13.8195 2.16179C13.9282 2.24926 13.9717 2.31486 14.0805 2.40232C14.472 2.70846 14.8635 3.23326 15.2332 3.58312C15.3202 3.69246 15.3637 3.73619 15.4507 3.84552C15.9727 4.39219 16.7992 5.59486 17.1907 6.29459C17.3212 6.49139 17.43 6.68819 17.5387 6.88499C19.083 9.59646 20.1705 12.9858 20.6055 16.069L20.823 17.6871L20.8012 17.7965Z" fill="white"/>
</svg>
