<svg width="85" height="53" viewBox="0 0 85 53" fill="none" xmlns="http://www.w3.org/2000/svg">
<path d="M4.20121 0C4.98418 0 5.66176 0.109166 6.23393 0.327497C6.81615 0.545829 7.34315 0.878289 7.81494 1.32488L6.67059 2.64975C5.95788 2.07415 5.19498 1.78635 4.3819 1.78635C3.95025 1.78635 3.60896 1.87567 3.358 2.0543C3.10705 2.22301 2.98157 2.47112 2.98157 2.79862C2.98157 3.02687 3.03678 3.21543 3.1472 3.36429C3.25762 3.50323 3.45337 3.63721 3.73443 3.76622C4.0155 3.89523 4.4371 4.04906 4.99924 4.22769C6.06328 4.56512 6.84626 4.98193 7.34817 5.47814C7.85008 5.96442 8.10103 6.65912 8.10103 7.56221C8.10103 8.20729 7.9354 8.77792 7.60414 9.27413C7.27288 9.76042 6.79607 10.1425 6.1737 10.4204C5.55134 10.6883 4.81354 10.8223 3.96029 10.8223C3.10705 10.8223 2.34917 10.6883 1.68665 10.4204C1.03417 10.1524 0.472037 9.79515 0.000244141 9.34856L1.24999 7.99392C1.65152 8.33134 2.06308 8.5844 2.48469 8.75311C2.91633 8.92182 3.3831 9.00618 3.88501 9.00618C4.39695 9.00618 4.79848 8.89701 5.08958 8.67868C5.39073 8.45043 5.5413 8.13782 5.5413 7.74085C5.5413 7.48282 5.48609 7.26945 5.37567 7.10074C5.26525 6.9221 5.07453 6.76332 4.8035 6.62438C4.53247 6.48544 4.14098 6.33658 3.62903 6.17779C2.47465 5.83045 1.65152 5.40371 1.15965 4.89758C0.677819 4.39144 0.436904 3.75133 0.436904 2.97725C0.436904 2.3818 0.597514 1.86078 0.918734 1.41419C1.23996 0.957682 1.68665 0.610336 2.25883 0.372156C2.831 0.124052 3.47846 0 4.20121 0Z" fill="white"/>
<path d="M14.8825 10.5692L14.3405 8.35118H11.2989L10.7719 10.5692H8.21219L11.3592 0.253067H14.3555L17.5025 10.5692H14.8825ZM11.7205 6.57972H13.9189L12.8197 2.02453L11.7205 6.57972Z" fill="white"/>
<path d="M28.6274 10.5692H26.2032L26.0225 6.53506C25.9723 5.57242 25.9472 4.71398 25.9472 3.95974C25.9472 3.38414 25.9623 2.83831 25.9924 2.32225L24.3813 9.48254H22.0474L20.3309 2.32225C20.3911 3.18566 20.4212 3.99944 20.4212 4.7636C20.4212 5.3392 20.4062 5.93961 20.3761 6.56483L20.1954 10.5692H17.7862L18.5692 0.253067H21.6861L23.252 7.2496L24.7126 0.253067H27.8445L28.6274 10.5692Z" fill="white"/>
<path d="M35.6009 10.5692L35.0589 8.35118H32.0173L31.4903 10.5692H28.9306L32.0775 0.253067H35.0739L38.2209 10.5692H35.6009ZM32.4389 6.57972H34.6373L33.5381 2.02453L32.4389 6.57972Z" fill="white"/>
<path d="M42.4195 6.62438H41.4558V10.5692H38.9864V0.253067H42.4044C43.8298 0.253067 44.8989 0.511095 45.6116 1.02715C46.3344 1.54321 46.6957 2.33218 46.6957 3.39406C46.6957 4.05898 46.5351 4.61474 46.2139 5.06132C45.8927 5.49799 45.3858 5.87014 44.6931 6.17779L47.3432 10.5692H44.5576L42.4195 6.62438ZM41.4558 4.94223H42.4948C43.0469 4.94223 43.4584 4.81818 43.7295 4.57008C44.0105 4.32197 44.1511 3.92997 44.1511 3.39406C44.1511 2.89786 44.0005 2.53562 43.6993 2.30737C43.4082 2.07911 42.9565 1.96499 42.3442 1.96499H41.4558V4.94223Z" fill="white"/>
<path d="M50.749 0.253067V10.5692H48.2796V0.253067H50.749ZM56.7417 0.253067L53.4141 4.88269L57.0128 10.5692H54.1519L50.8242 5.06132L54.1368 0.253067H56.7417Z" fill="white"/>
<path d="M63.3038 10.5692L62.7618 8.35118H59.7202L59.1932 10.5692H56.6335L59.7805 0.253067H62.7768L65.9238 10.5692H63.3038ZM60.1418 6.57972H62.3402L61.241 2.02453L60.1418 6.57972Z" fill="white"/>
<path d="M74.7299 10.5692H71.583L68.5715 2.57532C68.6719 3.35933 68.7472 4.05402 68.7974 4.6594C68.8576 5.25485 68.8877 5.96442 68.8877 6.78813V10.5692H66.6894V0.253067H69.761L72.8478 8.26187C72.6269 6.90226 72.5165 5.62204 72.5165 4.42122V0.253067H74.7299V10.5692Z" fill="white"/>
<path d="M79.5796 0.253067C81.2159 0.253067 82.5258 0.62026 83.5096 1.35465C84.5034 2.07911 85.0002 3.41391 85.0002 5.35905C85.0002 7.27441 84.5184 8.6241 83.5547 9.40811C82.5911 10.1822 81.3413 10.5692 79.8055 10.5692H76.6736V0.253067H79.5796ZM79.143 2.02453V8.79777H79.9561C80.7692 8.79777 81.3865 8.54967 81.8081 8.05346C82.2297 7.54733 82.4405 6.64919 82.4405 5.35905C82.4405 4.4758 82.3351 3.79103 82.1243 3.30475C81.9135 2.81846 81.6274 2.486 81.2661 2.30737C80.9047 2.11881 80.458 2.02453 79.926 2.02453H79.143Z" fill="white"/>
<path d="M32.2802 31.6581V27.2369H29.1483V31.6581H26.6789V21.3419H29.1483V25.3314H32.2802V21.3419H34.7496V31.6581H32.2802Z" fill="white"/>
<path d="M42.2032 31.6581L41.6611 29.44H38.6195L38.0925 31.6581H35.5328L38.6798 21.3419H41.6762L44.8231 31.6581H42.2032ZM39.0411 27.6686H41.2395L40.1403 23.1134L39.0411 27.6686Z" fill="white"/>
<path d="M48.0581 21.3419V29.7229H52.1235L51.8675 31.6581H45.5887V21.3419H48.0581Z" fill="white"/>
<path d="M53.3084 31.6581V21.3419H59.5271L59.2711 23.0836H55.7778V25.8227H58.8194V27.5644H55.7778V31.6581H53.3084Z" fill="white"/>
<path d="M15.6729 52.7469H13.2487L13.068 48.7128C13.0178 47.7501 12.9927 46.8917 12.9927 46.1374C12.9927 45.5618 13.0078 45.016 13.0379 44.5L11.4268 51.6602H9.09292L7.3764 44.5C7.43663 45.3634 7.46674 46.1771 7.46674 46.9413C7.46674 47.5169 7.45169 48.1173 7.42157 48.7425L7.24088 52.7469H4.83173L5.61471 42.4308H8.73155L10.2975 49.4273L11.7581 42.4308H14.89L15.6729 52.7469Z" fill="white"/>
<path d="M22.6464 52.7469L22.1044 50.5289H19.0628L18.5358 52.7469H15.9761L19.123 42.4308H22.1194L25.2664 52.7469H22.6464ZM19.4844 48.7574H21.6828L20.5836 44.2022L19.4844 48.7574Z" fill="white"/>
<path d="M29.465 48.8021H28.5013V52.7469H26.0319V42.4308H29.4499C30.8753 42.4308 31.9444 42.6888 32.6571 43.2048C33.3799 43.7209 33.7412 44.5099 33.7412 45.5718C33.7412 46.2367 33.5806 46.7924 33.2594 47.239C32.9382 47.6757 32.4313 48.0478 31.7386 48.3555L34.3887 52.7469H31.6031L29.465 48.8021ZM28.5013 47.1199H29.5403C30.0924 47.1199 30.5039 46.9959 30.775 46.7478C31.056 46.4997 31.1966 46.1077 31.1966 45.5718C31.1966 45.0756 31.046 44.7133 30.7449 44.4851C30.4537 44.2568 30.002 44.1427 29.3897 44.1427H28.5013V47.1199Z" fill="white"/>
<path d="M40.8209 52.7469L40.2789 50.5289H37.2373L36.7103 52.7469H34.1506L37.2976 42.4308H40.2939L43.4409 52.7469H40.8209ZM37.6589 48.7574H39.8573L38.7581 44.2022L37.6589 48.7574Z" fill="white"/>
<path d="M50.5937 42.4308L50.3528 44.3064H47.778V52.7469H45.3086V44.3064H42.6133V42.4308H50.5937Z" fill="white"/>
<path d="M57.1893 52.7469V48.3257H54.0574V52.7469H51.588V42.4308H54.0574V46.4203H57.1893V42.4308H59.6587V52.7469H57.1893Z" fill="white"/>
<path d="M65.8324 42.1777C67.3181 42.1777 68.4724 42.6491 69.2956 43.5919C70.1287 44.5347 70.5453 45.8645 70.5453 47.5814C70.5453 48.7028 70.3546 49.6704 69.9731 50.4842C69.6017 51.298 69.0597 51.9232 68.347 52.3599C67.6443 52.7866 66.8061 53 65.8324 53C64.8587 53 64.0205 52.7866 63.3178 52.3599C62.6152 51.9332 62.0731 51.3179 61.6917 50.514C61.3203 49.7002 61.1346 48.7227 61.1346 47.5814C61.1346 46.4699 61.3203 45.5073 61.6917 44.6935C62.0731 43.8797 62.6152 43.2594 63.3178 42.8327C64.0205 42.396 64.8587 42.1777 65.8324 42.1777ZM65.8324 43.964C65.1197 43.964 64.5877 44.2519 64.2363 44.8275C63.895 45.3931 63.7244 46.3111 63.7244 47.5814C63.7244 48.8517 63.9001 49.7746 64.2514 50.3503C64.6027 50.9259 65.1297 51.2137 65.8324 51.2137C66.5552 51.2137 67.0872 50.9308 67.4285 50.3651C67.7798 49.7895 67.9555 48.8616 67.9555 47.5814C67.9555 46.3012 67.7798 45.3782 67.4285 44.8126C67.0771 44.2469 66.5451 43.964 65.8324 43.964Z" fill="white"/>
<path d="M80.0676 52.7469H76.9206L73.9092 44.753C74.0096 45.537 74.0849 46.2317 74.135 46.8371C74.1953 47.4325 74.2254 48.1421 74.2254 48.9658V52.7469H72.027V42.4308H75.0987L78.1854 50.4396C77.9646 49.08 77.8542 47.7997 77.8542 46.5989V42.4308H80.0676V52.7469Z" fill="white"/>
</svg>
