<svg width="88" height="88" viewBox="0 0 88 88" fill="none" xmlns="http://www.w3.org/2000/svg">
<path fill-rule="evenodd" clip-rule="evenodd" d="M51.8309 9.02982C52.3993 9.02982 52.8968 8.60366 52.8968 8.03472C52.8968 7.46633 52.3993 7.03963 51.8309 7.03963C51.2625 7.03963 50.8363 7.46578 50.8363 8.03472C50.8363 8.60366 51.2625 9.02982 51.8309 9.02982ZM38.1164 7.25325C38.614 7.25325 38.9693 6.8271 38.9693 6.40094C38.9693 5.90339 38.614 5.54808 38.1164 5.54808C37.6189 5.54808 37.2636 5.90339 37.2636 6.40094C37.2636 6.8271 37.6189 7.25325 38.1164 7.25325ZM27.8129 28.287L27.3868 27.8609C28.5949 26.7235 29.8026 25.0184 30.0162 24.0233C30.1579 23.0282 31.5791 23.2418 31.2952 24.2363C30.9393 25.5867 29.3764 27.1502 27.8129 28.287ZM19.0729 7.60857C16.941 8.53282 16.6571 10.735 18.1486 12.0854C19.9252 13.6489 22.9808 12.2985 22.6963 9.81184C25.1121 9.95407 26.6756 7.39604 26.3203 5.69032C27.3862 4.76606 27.4576 2.77697 26.178 1.99495C24.7573 1.14209 23.4778 1.42656 22.6254 3.06089C20.4227 2.9192 18.2908 4.62438 19.0729 7.60857L18.0778 7.18241C16.7279 4.26906 19.0729 1.35572 21.9862 2.06634C22.626 0.645641 24.7579 -0.847002 27.1737 0.574249C29.0211 1.71103 29.4472 4.69577 27.4581 6.11702C28.3818 8.81729 26.463 11.0914 23.6205 10.8069C23.2652 14.3601 19.9966 14.7862 17.7938 13.1519C16.5857 12.1568 16.0887 10.8778 15.875 9.88323C15.5906 8.81784 15.5906 7.89359 14.596 6.8282C13.8146 6.04618 12.3933 6.04618 12.3933 6.04618C12.3933 3.48815 10.0484 1.14319 7.06361 2.28052C5.99822 1.35682 4.64781 1.28542 3.72411 2.42275C3.22656 3.06254 2.87125 4.76771 4.57697 5.54918C4.50613 7.89414 6.28215 9.38623 8.91157 9.17315C8.98241 10.3813 10.3328 11.589 11.6118 11.7312L11.541 12.371C10.262 12.2287 9.55135 12.6554 8.69849 13.7208C5.64291 13.5786 3.51103 14.9998 3.58242 17.2031C1.45055 17.5579 1.02439 19.832 2.23256 21.0402C3.44074 22.2483 5.2173 21.7508 5.85654 20.3301C8.05926 20.7562 9.97806 19.1933 10.0489 17.4162C12.0385 17.4162 12.9623 16.5633 13.3176 14.7159L14.0282 14.7873C14.2413 16.777 13.3176 18.6952 10.9018 18.4827C10.8309 20.8985 8.55681 22.178 6.35409 21.396C5.35899 23.3148 3.01403 24.0255 1.09578 22.178C-0.823018 20.4015 -0.112393 17.3459 2.3748 16.5639C2.3748 14.2189 4.15136 12.0162 7.49087 12.8685C7.49087 12.8685 7.91702 11.8031 8.98296 11.7317C8.27234 11.4478 7.77479 11.0925 7.6331 10.3105C5.07507 10.8789 2.94319 8.53447 3.51158 6.18951C1.23747 4.98134 1.16662 2.70778 2.30341 1.35737C3.51158 -0.0638858 5.50122 -0.347807 7.2064 1.14429C10.262 -0.490042 13.602 1.57044 13.3884 4.98134C15.5197 4.8391 16.7993 6.61567 16.5148 8.53447C16.8696 7.68161 17.2963 7.32629 18.0778 7.18406L19.0729 7.60857V7.60857Z" fill="white"/>
<path fill-rule="evenodd" clip-rule="evenodd" d="M24.2603 3.48755L24.7578 3.84286C23.7627 5.97474 22.0575 8.10661 20.5649 9.38563L19.9965 8.88808C21.0625 7.18236 23.2652 4.33986 24.2603 3.48755V3.48755ZM9.6216 14.857L9.90607 15.4254C8.69845 16.6336 6.42434 18.3387 5.14532 18.9785L4.71917 18.4101C5.8554 17.1306 8.12951 15.4962 9.6216 14.857ZM12.5355 8.74585L11.9671 9.45592C10.3328 8.39053 7.13496 5.54803 6.42434 4.48155L6.92134 3.98455C8.48482 4.76601 11.469 7.46628 12.5355 8.74585V8.74585ZM9.55076 35.8902C9.76384 36.8144 9.55076 37.8798 10.4036 38.8749C10.6881 39.2302 12.3219 41.3616 13.53 42.428C11.8952 43.0678 8.6979 44.4177 6.42434 44.7016C5.92679 44.7725 5.42924 45.0564 5.00309 45.3408C4.71862 45.8384 4.4347 46.6913 4.29246 47.6863C4.22107 48.3964 4.22107 49.1784 4.22107 49.9605C4.22107 50.6705 4.57638 52.9446 5.3584 54.4362C6.13987 55.9294 6.92134 56.6395 7.84559 57.0662C8.05867 56.9942 8.48537 56.9234 9.12461 56.9234C10.8298 56.8525 12.1796 57.8471 12.82 58.6285C13.033 58.9833 13.5306 59.0552 14.099 59.0552C15.5197 59.0552 17.0832 58.5577 18.5044 57.9893C18.8597 57.7757 19.712 57.1365 20.5649 56.4972C21.4892 55.786 26.3208 51.6651 28.4526 50.67C29.5894 51.2384 31.4374 52.0204 33.3556 52.0204C33.4265 52.0204 33.7818 52.0912 34.2085 51.9495C34.7769 51.8068 35.5589 51.5937 36.554 51.3812C38.2592 51.0253 40.2488 50.7408 40.8886 50.7408C42.4521 50.8128 47.07 50.8836 48.2085 50.8836C49.3441 50.8836 50.979 50.8128 51.6183 50.7408C52.6134 50.3861 54.8166 49.8171 56.8771 48.894C58.9376 47.9708 63.2722 44.9147 63.9828 44.2035C64.3376 43.919 64.6929 43.5643 64.9065 43.2804C64.9774 43.1381 65.0493 43.0673 65.0493 42.9959C65.0493 42.9245 64.9774 39.9403 64.9774 39.9403C64.9774 39.9403 66.0433 38.8035 66.4705 38.3768V38.2346C66.2569 37.6657 66.1147 35.8188 66.1861 33.9714L65.191 33.4738C65.1201 35.748 64.2673 37.7376 63.4858 39.0166C61.9229 39.2297 58.8673 40.1534 57.8008 41.4324L58.44 41.5746C59.4351 41.0062 60.5016 40.6509 61.7801 40.6509C62.846 40.6509 63.3441 40.9349 63.3441 41.2193C63.3441 41.4324 63.1305 41.93 63.0597 42.143C62.9877 42.2853 62.9169 42.5692 62.7038 42.7114C61.2117 44.3457 59.5774 45.6962 57.5169 46.8329C56.1665 47.6139 54.8172 48.1114 52.8275 48.7506C52.1872 48.8934 51.3343 49.1065 50.8379 49.3201C50.0559 49.3201 46.0766 49.1773 43.7316 49.1773C41.3867 49.1773 36.5551 49.5321 35.0624 49.8874C34.3518 50.101 34.1387 50.385 33.3573 50.385C31.8652 50.385 29.8755 49.6029 28.6674 49.0346C28.4543 49.0346 28.0281 49.2482 27.602 49.4613C26.7491 49.8869 24.8303 52.5877 23.6935 51.7354C23.1251 52.943 20.6385 54.0095 19.8565 55.2171C19.9273 54.6487 20.9219 50.5277 20.9933 49.6749C20.9933 49.5321 21.0647 49.3904 20.9224 49.2482C20.0701 47.7561 17.5115 46.8329 16.0908 46.5485C15.7355 46.4776 15.5219 46.4057 15.238 46.3348L12.9638 45.6956L10.9034 46.3348L13.3192 46.7604L10.2636 48.822C10.832 48.6084 14.1006 47.6852 14.3137 47.6133C14.5982 47.5425 14.9535 47.4716 15.3088 47.6133C15.8064 47.7561 17.0145 48.04 17.796 48.3245C18.2221 48.4673 18.9328 49.2482 19.1459 49.6749C19.2172 49.8874 19.2172 50.2433 19.2881 51.0961C19.2881 51.5926 19.2172 52.3746 19.075 52.943C18.7197 54.4351 18.0091 55.5719 17.796 55.9986C17.5115 56.567 17.1562 56.7806 16.7301 56.9223C16.0908 57.277 15.238 57.4198 14.3851 57.4907C13.7453 57.4907 13.3192 57.4198 13.0347 57.0651C12.2532 55.9283 10.1927 54.8618 8.13171 55.2879C6.85269 54.507 5.57367 52.0198 5.57367 50.0302C5.57367 48.8226 6.14206 46.9038 6.49738 45.9801C8.55841 45.6956 12.7508 44.1321 14.7404 43.2084C15.1666 43.2084 16.3753 42.7823 17.5115 42.7823C20.2118 42.7823 22.9121 45.1278 24.5464 46.761C24.8309 46.3354 25.3279 45.6242 26.7491 45.6242C28.6679 45.6242 29.8047 47.4013 30.3022 49.1779L31.2968 48.4678C31.1545 47.4727 30.5862 46.3354 29.8047 45.4825C29.1649 44.8433 27.8864 44.2749 26.8913 44.2749C26.2516 44.2749 25.6832 44.4166 25.257 44.4166C23.9072 44.4166 23.3382 43.7774 22.2728 43.0667C21.2069 42.3561 19.1459 41.2193 17.6538 41.2193C16.7295 41.2193 16.3034 41.5746 15.5219 41.5746C14.3851 41.5746 13.9589 41.1485 13.4614 40.4379C13.1775 40.1534 12.0401 39.1588 11.7562 38.7327C11.5431 38.4482 11.2587 37.5245 11.1164 37.0275L9.55076 35.8902V35.8902Z" fill="white"/>
<path fill-rule="evenodd" clip-rule="evenodd" d="M11.1143 37.0271C11.469 37.3824 11.7541 37.7377 12.1797 38.0925C12.6058 38.3769 13.1039 38.6609 13.5301 38.9453C14.2402 39.3006 15.0222 39.7273 15.7328 40.0113C16.4434 40.1535 17.2957 40.2243 18.0778 40.2243C19.2151 40.2243 20.565 40.0113 21.7017 40.5797C22.4838 40.8641 22.4838 41.7164 23.123 41.9295C24.0467 42.2848 26.6047 42.3557 28.0265 42.3557C30.869 42.3557 33.9241 42.0004 35.772 41.5742L34.9192 40.5791C33.6401 40.7922 29.9448 41.2189 28.2396 41.2189C25.8946 41.2189 23.6205 40.7927 23.6205 39.869C23.6205 39.1584 24.3312 38.1639 25.7524 38.1639C27.2445 38.1639 29.5186 39.0876 29.9448 39.2298C30.3709 39.3006 30.5132 39.3006 30.7976 39.159L31.6505 38.7328C30.5137 38.1644 26.463 36.8145 25.0423 36.8145C24.4026 36.8145 23.9764 36.8854 23.5497 37.4538C23.0527 38.1644 21.56 38.8036 19.2859 38.8036C18.0069 38.8036 16.1595 38.5192 15.8042 38.3775C15.0936 38.093 13.7437 37.3115 12.8908 36.6723C11.7541 35.8908 10.759 34.9671 10.1197 33.9012C9.90611 33.6167 9.76442 33.2614 9.76442 32.9061C9.76442 32.6216 9.90666 32.4086 9.90666 32.1955C10.1203 32.48 10.3334 32.693 10.6173 32.9061C11.8255 34.1143 13.602 34.9666 15.4494 35.3219C16.0184 35.4641 16.4445 35.535 17.0129 35.535C17.7944 35.535 18.505 35.1088 19.0026 34.6821L18.2211 33.8293C18.0075 33.9001 17.5105 33.9001 17.226 33.9001C14.5257 33.9001 11.1148 32.1949 10.3334 30.1339C10.2625 29.9208 10.1203 29.8494 10.2625 29.6363C10.3334 29.4233 10.4048 29.068 10.4756 28.7126C10.6173 28.8549 10.9731 29.1388 11.3285 29.4233C12.323 30.0631 14.2418 30.9154 14.668 31.1998C15.5917 30.9154 16.3023 30.5601 16.8707 30.2761C17.4396 29.9917 18.2211 29.7077 19.074 29.7077C21.0636 29.7077 23.3372 30.8445 25.4696 31.9105L26.8903 31.3421C24.9715 29.9922 20.9214 28.1448 18.6478 28.1448C17.2974 28.1448 16.0184 29.1393 15.0947 29.1393C14.0293 29.1393 10.9023 27.5759 10.9023 26.2968C10.9023 25.3023 12.8919 24.7334 16.232 24.378C15.6631 25.1601 15.0947 26.0832 14.5977 26.9361L15.45 27.4336C20.566 19.9726 25.9666 15.1405 30.444 12.1557C32.0783 11.0903 32.4336 10.4505 33.002 9.31321C34.4233 6.39987 35.7731 4.26799 38.0472 4.26799C39.1132 4.26799 39.966 4.83638 40.6053 5.54701L42.2396 6.044L40.5344 7.18079L42.2396 7.89141C40.0369 8.53119 36.9813 10.7339 35.7023 13.9317C33.3568 14.0026 32.22 15.9922 31.4385 17.5557C30.8701 18.6925 30.0887 19.1192 28.8091 19.9012L19.0729 26.7235L20.4227 26.9366L29.4472 20.8969C31.2238 19.6887 32.0767 18.765 32.5028 17.983C33.2848 16.2778 34.208 14.9982 35.9845 14.9982C36.8374 14.9982 37.7611 15.4244 38.5431 16.135L40.1061 16.6326L38.4009 17.6985L39.8221 18.5508C35.7012 19.8298 33.1426 22.8146 31.6505 28.499L32.7164 28.7121C33.2848 26.8647 33.8532 25.1595 34.7769 23.596C37.1927 23.596 39.6091 23.5252 42.0249 23.5252C48.3491 23.5252 53.608 23.8097 56.4505 24.5911L55.4554 22.8859C52.3998 22.3176 47.9944 22.1039 42.0249 22.1039C39.9644 22.1039 37.9747 22.1753 35.9137 22.1753C37.2636 20.8249 39.1115 19.6173 42.0249 18.7644L39.9644 17.6276L42.2385 16.3486L39.1121 15.2118C38.6145 14.7143 37.9039 14.2168 37.0516 14.0037C38.0467 10.9481 41.457 9.17153 44.7257 7.96335L42.4521 7.03965L44.7257 5.76063L41.1731 4.6233C40.2489 3.55791 39.3965 3.06036 37.9753 3.06036C34.7066 3.06036 33.3562 5.90287 32.0064 8.39006C31.3666 9.73992 30.9404 10.3083 29.7323 11.0903C27.2451 12.7247 23.9764 15.2827 20.9208 18.4805C19.3579 17.3432 16.0178 13.9328 15.165 12.0849C14.8102 12.511 14.4543 13.5061 14.4543 13.5061C14.8096 13.8614 18.6472 17.699 20.0685 19.4042C19.9971 19.4751 19.8554 19.6178 19.784 19.7595C18.2205 20.044 14.2413 20.4702 12.8914 20.2565L12.1808 21.6064C13.1759 21.5355 17.0838 21.038 18.7895 20.9666C18.2919 21.535 17.7944 22.1748 17.2968 22.814C12.1808 23.3824 8.84127 24.4483 8.84127 26.2957C8.84127 26.5802 8.91211 26.9355 8.91211 27.2908C8.91211 28.0723 8.62764 28.3568 8.05925 28.7121C7.70394 28.9252 7.70394 29.1383 7.84617 29.3519C7.98841 29.5655 8.76988 30.7017 8.76988 30.9154C8.76988 31.3415 8.41456 31.6968 8.13009 32.0521C7.84562 32.3366 7.84562 32.4075 8.05925 32.7628L9.55134 35.8892L11.1143 37.0271V37.0271ZM74.0014 19.6178C73.7169 19.9023 73.433 20.3285 73.1485 20.6832L72.3665 19.5464C75.0673 15.9225 82.3147 14.2173 86.5785 13.862V11.9432C86.0101 12.0849 85.4417 12.298 84.8733 12.4402C84.1632 12.5824 83.4521 12.7955 82.8837 12.7247C82.2445 12.7247 81.7469 12.5116 81.5344 12.1563C80.9649 11.3748 81.5344 10.1666 83.3812 9.02984L81.8891 7.75028C80.7524 9.24292 79.6859 10.8767 78.5491 11.801C77.4831 12.7247 76.4178 13.1508 75.5649 12.511C75.0673 12.1557 74.9246 12.014 74.8537 11.0903C74.9246 9.73992 75.7066 7.67943 76.4178 6.32957L74.7126 6.11649C74.427 8.17698 73.5758 9.88215 72.651 11.3034C71.5862 13.08 70.1649 14.359 68.6717 15.3535L67.6772 14.4298C68.8848 13.7192 70.3769 12.5819 71.3725 11.0189C72.5801 9.17153 73.5758 6.89741 73.5758 4.90777L78.5496 5.33448C77.8385 6.25818 76.7028 8.31921 76.2755 9.73992C76.0619 10.5214 76.0619 11.1612 76.3464 11.3748C76.8439 11.7296 77.7676 11.0903 78.6919 10.1666C79.9703 8.74592 81.2499 6.68489 81.7463 5.97426L85.4417 8.959C83.8068 9.81186 82.2445 10.8064 82.5284 11.3748C82.8128 11.8718 83.8788 11.7296 85.0156 11.3748C85.9393 11.0903 86.9333 10.6642 87.7153 10.1666V15.0702C85.9393 15.0702 82.954 15.4249 80.1115 16.2778C80.8226 17.202 82.7414 17.5568 83.9491 17.7699L83.3807 21.7492C80.2548 20.3993 77.8379 19.6892 74.0014 19.6178L75.2799 18.4811C78.0515 18.5519 80.894 19.4048 82.4575 20.1862L82.6701 18.6941C81.2499 18.4811 79.4728 17.6996 78.6919 16.7759C77.4831 17.202 76.2755 17.7704 75.2799 18.4811L74.0014 19.6178V19.6178Z" fill="white"/>
<path fill-rule="evenodd" clip-rule="evenodd" d="M59.0793 32.2663L60.2161 29.7082C58.843 28.0929 57.5847 26.3833 56.4504 24.5922L55.4553 22.887C53.1104 18.4816 53.9632 16.3497 52.7545 14.36C51.6897 12.7966 46.7147 13.7917 45.9327 13.9339L47.354 11.5889L44.5115 11.802L46.9278 8.95951C47.2123 8.53335 47.2826 8.24888 47.5671 7.25378C47.9938 5.69085 49.2722 3.13281 53.1104 3.13281C57.3022 3.13281 58.6526 6.54371 60.4286 8.0358C62.9405 10.0567 65.3591 12.1908 67.6771 14.4314L68.6716 15.3551C69.9926 16.6714 71.2269 18.0718 72.367 19.5475L73.149 20.6843C78.2651 28.0745 84.5185 42.2156 87.361 48.6815C87.5746 49.3218 87.7877 49.9611 88.0002 50.4575C86.0825 49.3927 84.021 48.1126 81.8188 46.621L80.6101 45.7682L78.2651 44.063L76.9866 42.9971C76.1975 42.4206 75.4384 41.804 74.7125 41.1496L77.2695 55.8586C77.4122 56.7834 78.1943 56.6406 78.7626 55.8586C79.331 55.0777 79.6155 54.8641 79.331 53.869L76.9861 42.9976L78.2646 44.0635L80.5387 53.2297C80.7523 54.0826 81.1071 54.3665 82.1027 54.3665C83.0972 54.4374 83.2395 54.082 83.0972 53.4428L80.6101 45.7682L81.8188 46.621L84.1637 53.5137C84.803 55.2897 84.1637 55.5033 83.0978 55.5033C82.1033 55.5033 81.1082 55.2188 80.5398 55.5741C79.9714 56.0009 79.2613 56.9954 78.3365 57.8483C77.6264 58.6303 76.4896 58.4886 76.276 56.9954L73.4335 40.0129C71.6575 38.3785 69.8809 36.6728 68.3174 34.8968C67.6782 34.6123 66.8962 34.257 66.1861 33.9731L65.191 33.4755C64.7654 33.2619 64.4809 33.1911 64.409 33.1202C63.6281 34.0439 62.8461 35.1099 61.9937 35.8205C61.567 36.2467 61.2117 36.4603 60.5725 36.4603C60.3589 36.4603 60.0749 36.4603 59.8613 36.318C59.5769 36.1758 59.3649 35.8919 59.0804 35.4652C58.8668 35.1807 58.5829 34.7546 58.2984 34.3284C57.73 33.4047 57.1616 32.1965 56.5932 31.2728C56.0248 30.2069 55.4564 29.4254 55.3856 29.2832C55.3136 29.0701 55.0297 28.857 55.0297 28.857C54.675 29.2832 54.4613 30.2069 54.4613 30.7758L53.4668 30.4205C53.5376 29.7099 53.8215 28.7862 54.0352 28.36C54.0352 28.0047 53.6096 27.5072 53.2532 27.5072C52.7556 27.5072 52.2586 28.0047 52.0455 28.9993L50.9796 29.4968C51.0515 27.8625 51.6188 26.0859 53.2537 26.0859C54.5333 26.0859 55.3861 27.081 55.9545 28.0047C56.5921 28.9262 58.6526 31.6979 59.0793 32.2663L59.8602 33.2608C60.003 33.9006 60.2869 34.2559 60.4286 34.469C60.7131 34.8952 60.997 34.8952 61.4237 34.469C61.6373 34.3268 62.2057 33.8292 62.845 33.19C63.3425 32.6924 63.8395 31.9818 64.0526 31.6979C64.621 31.911 65.7578 32.4794 66.6106 32.8347C62.845 28.1453 59.1496 22.4603 57.5856 18.6232C56.9463 16.9889 58.2259 16.4914 58.7943 18.0549C60.4995 22.3186 65.4024 29.9213 69.027 33.9006C73.1479 38.4483 80.7517 45.1284 85.725 47.7573C85.015 46.336 84.0912 44.3464 82.9534 42.0014C76.9136 38.5905 70.8738 32.3371 68.0313 26.9366L69.2389 27.0788C71.8689 31.7687 78.1932 38.0221 81.9588 39.7987C78.5479 32.5507 74.0711 23.384 70.6602 19.4756C66.3256 14.5726 61.6362 10.735 59.3627 8.81672C57.1594 6.82708 56.2362 4.41128 53.1093 4.41128C50.4793 4.41128 49.058 6.33008 48.5616 8.17749C48.4188 8.60364 48.348 8.81727 48.1349 9.17258L46.8564 10.6647L49.5561 10.3802L47.9932 12.5115C47.9932 12.5115 52.185 11.5878 53.6782 13.5775C55.2412 15.7094 54.2466 18.1252 56.8755 22.8865C58.0123 24.9469 60.7839 28.6418 61.7076 29.4946L59.8597 33.2603L59.0793 32.2663V32.2663ZM17.7224 32.9061L17.0826 32.4799C17.4379 32.1954 18.1486 31.6984 18.8592 31.414C19.1993 31.2817 19.5598 31.2096 19.9246 31.2009C20.6352 31.2009 21.2744 31.4854 21.8434 31.8407C22.7671 32.3382 23.833 32.9066 24.6859 32.9066C24.9698 32.9066 25.2543 32.8352 25.6096 32.8352C26.4624 32.8352 27.2439 33.1905 27.6701 33.1905C27.9545 33.1905 28.0962 32.9775 28.3099 32.693C28.736 32.0532 29.3752 31.5562 30.1573 31.2717C30.9387 30.9164 32.0047 30.7742 33.0706 30.7742C33.9943 30.7742 34.7758 30.9164 35.2025 30.9873C35.2025 30.9873 34.5627 31.7687 34.421 31.9824C33.4973 31.9824 31.863 31.9115 30.797 32.3377C30.0864 32.6221 29.8733 33.0483 29.8733 33.5458C29.8733 34.3273 30.797 34.6826 31.7208 34.9671C32.3605 35.1093 32.9998 35.1802 33.4973 35.1802C34.2079 35.1802 35.487 34.8957 36.766 34.6118C38.3295 34.3273 39.7507 33.9012 40.1769 33.7589L40.7453 34.754C39.0401 35.3224 37.2635 35.8908 35.6292 36.1753C34.7055 36.3889 33.8526 36.5306 33.0712 36.5306C31.7213 36.5306 30.3 35.9622 29.1627 35.3938C28.1676 34.9676 27.3153 34.4701 26.4625 34.4701C25.6096 34.4701 24.7573 34.7546 23.9753 35.2516C23.5491 35.4652 22.3409 36.3175 21.275 36.7442C20.4221 37.0287 19.7829 37.2418 18.93 37.2418C18.2194 37.2418 17.7219 37.0995 17.3665 36.8156L18.6456 36.0336C18.8586 36.1758 19.1426 36.2467 19.2848 36.2467C19.4984 36.2467 19.711 36.1758 20.2091 35.9622C20.493 35.8913 20.9191 35.6069 21.2036 35.4646C21.7011 35.1093 21.8434 34.8962 22.0565 34.754C22.4826 34.4695 22.6249 34.0434 22.1273 33.6172C21.8434 33.4042 21.6303 33.1911 21.3458 32.9774C20.8483 32.693 20.5644 32.4799 19.7115 32.4799C18.7883 32.4794 18.0777 32.6924 17.7224 32.9061V32.9061Z" fill="white"/>
<path fill-rule="evenodd" clip-rule="evenodd" d="M35.7714 33.4031C35.7714 33.4031 34.9894 33.19 34.7764 33.19C35.2739 32.4794 35.9845 31.911 36.4815 31.5557C37.5475 30.8451 38.6134 30.4189 40.3186 30.3475C40.7447 30.2767 41.6684 30.2053 42.166 30.2053C42.6635 30.2761 43.445 30.2761 44.1556 30.4184C44.6532 30.4892 45.1507 30.6314 45.5763 30.7028C45.7899 30.7737 46.6423 30.7737 46.9267 30.7028C48.1343 30.4898 49.5556 30.0631 50.2668 29.6369L50.5512 30.7737C48.9872 31.6265 47.2112 32.408 45.5055 32.408C44.7235 32.408 43.8003 32.3372 42.9474 32.2658C41.5262 32.1235 40.2472 31.9105 39.821 31.9105C38.6139 31.911 36.9082 32.4794 35.7714 33.4031V33.4031ZM34.6347 39.7273L33.1426 39.0167C35.2031 38.0216 38.3295 36.9562 39.6799 36.7426C40.9589 36.5295 42.451 36.3878 43.3039 36.1028C43.73 37.0979 44.5115 38.0925 45.5774 38.0925C46.0041 38.0925 46.6434 37.8085 47.3534 37.5241C48.1354 37.1688 48.8466 36.814 49.2722 36.6712C49.6989 36.4581 51.0493 35.8897 52.2575 35.3214C52.6831 35.1083 53.8913 34.5399 53.9627 34.5399L54.7436 34.966C54.5311 35.9611 54.1044 37.2402 53.6788 38.1639C53.536 38.5186 53.3229 38.8036 53.1812 39.0167C52.8265 39.372 52.2575 39.9404 51.5463 40.438C50.7654 41.0064 49.7703 41.5747 48.7747 42.1431C47.9938 42.5693 47.2117 43.0668 46.3594 43.4222L46.0047 42.6407C47.2551 41.9013 48.4647 41.0948 49.6281 40.2249C50.1071 39.8817 50.5586 39.5016 50.9785 39.0881C51.263 38.875 51.4052 38.6614 51.5469 38.4483C51.9017 38.0222 52.4706 37.0271 52.6128 36.6009C52.1153 36.8145 50.4096 37.6663 49.6275 38.0222C48.7038 38.5192 47.2826 39.2303 46.4303 39.657C45.8619 39.941 45.2935 40.0832 44.8673 40.0832C43.9431 40.0832 43.5169 39.4434 43.3039 39.0173C42.7355 38.0222 42.1671 37.9513 40.5327 37.9513C38.6848 37.8799 36.1273 38.6614 34.6347 39.7273V39.7273ZM43.3747 35.0374C43.3747 35.0374 43.1616 34.1846 43.0194 33.8293C43.0194 33.8293 43.3039 33.7584 43.6592 33.7584C44.1567 33.7584 45.5774 33.9007 46.1458 33.9007C48.2782 33.9007 49.0591 33.2609 49.6995 32.6925C50.2679 32.1949 50.8363 31.7688 52.2575 31.7688C53.536 31.7688 55.0281 32.2663 55.4548 32.4794L55.3839 33.6876C54.7436 33.3323 53.8907 33.1192 53.1098 33.1192C52.6123 33.1192 52.1147 33.1192 51.7594 33.3323C51.4041 33.5453 51.1202 33.8298 50.7649 34.1137C50.409 34.3982 49.9109 34.6821 49.2008 34.9666C48.5616 35.2505 47.7087 35.3927 46.4292 35.3927C44.7965 35.3927 43.8722 35.1088 43.3747 35.0374V35.0374Z" fill="white"/>
<path fill-rule="evenodd" clip-rule="evenodd" d="M29.7317 43.9197L30.7268 43.4935C31.5791 43.8488 32.9296 44.2756 33.8533 44.2756C34.4216 44.2756 34.8484 44.0619 35.2031 43.9197C35.4876 43.778 38.8271 42.1437 40.4614 41.5753C40.959 41.3617 41.5274 41.2908 41.7404 41.2908C42.1666 41.2908 42.1666 41.433 42.3088 41.6461C42.5933 42.1437 45.0805 45.6249 45.293 45.8385C47.3535 45.1993 49.4859 44.2755 50.6936 43.1382C51.9731 41.93 53.0385 40.5088 54.1045 39.372C54.4592 38.9453 54.9573 38.5905 55.1704 38.4483C56.2363 37.8799 59.5753 37.8085 60.9257 37.8799L60.1437 39.0167C57.6576 39.0167 56.3072 39.3012 55.6679 39.7273C55.4543 39.9404 55.0276 40.3671 54.6728 40.8641C53.82 41.93 52.8968 43.4221 52.5415 43.7066C53.2516 44.2031 54.0336 44.6303 55.3121 44.6303C57.3737 44.6303 58.8658 43.3507 59.6478 42.6407L60.3579 42.996C59.8531 43.7136 59.2283 44.3388 58.511 44.8439C57.6581 45.4123 56.5922 45.8385 56.0238 45.9807C54.8162 45.7671 52.1862 45.1987 51.547 45.1279C49.2729 46.0516 45.5072 47.5431 44.299 47.8984C44.0246 47.9928 43.7364 48.0411 43.4462 48.0412C42.4511 48.112 41.1012 48.112 39.8222 48.0412C38.9699 48.0412 38.117 48.0412 37.6903 47.9704L36.5535 46.8336C37.5481 47.0461 37.9034 47.0461 38.8271 47.0461C40.959 47.0461 42.3802 46.6913 42.8064 46.6205C43.2325 46.4788 43.3039 46.2657 43.1617 45.9093C42.9486 45.4129 42.6641 44.8445 42.1666 44.2756C41.8821 43.9911 41.3137 43.4935 41.1007 43.3513C40.8162 43.1382 40.5323 43.0674 39.6794 43.3513C38.9693 43.5649 36.6238 44.8439 35.6293 45.4123C35.1317 45.6249 34.7056 45.7671 33.8527 45.554C32.8582 45.3409 30.584 44.4892 29.7317 43.9197V43.9197ZM36.1977 18.0549C36.6238 18.0549 37.0505 17.6287 37.0505 17.202C37.0505 16.7045 36.6244 16.3492 36.1977 16.3492C35.7007 16.3492 35.3448 16.7039 35.3448 17.202C35.3454 17.6282 35.7007 18.0549 36.1977 18.0549ZM68.3873 67.1561C68.3873 66.5169 67.8189 65.9485 67.1088 65.9485H65.3328C64.6216 65.9485 64.0532 66.5169 64.0532 67.1561L64.1241 86.2002C64.1241 86.8395 64.6216 87.4079 65.3328 87.4079H67.1088C67.8189 87.4079 68.3873 86.8395 68.3873 86.2002V67.1561V67.1561ZM70.6614 67.7245V68.5774C70.6614 69.0041 70.9459 69.2886 71.3726 69.2886H83.8788C84.4472 69.2886 84.9448 68.791 84.9448 68.2226V66.7305C84.9448 66.1621 84.4472 65.5938 83.8788 65.6646C83.8788 65.6646 71.7982 66.8722 71.3726 66.9431C70.9453 66.9431 70.6614 67.2989 70.6614 67.7245V67.7245ZM60.5006 87.4079C57.3742 87.4079 55.4549 85.0629 55.4549 82.434V74.8302H54.5312C54.1045 74.8302 53.6783 74.4046 53.6783 73.9774V72.6978C53.6783 72.2014 54.1039 71.8461 54.5312 71.8461H55.4549V67.1556C55.4549 66.5164 55.9524 65.948 56.6625 65.948H58.4385C59.0788 65.948 59.5753 66.5164 59.5753 67.1556V71.8461H62.347C62.8445 71.8461 63.1998 72.2008 63.1998 72.6978V73.9774C63.1998 74.4041 62.845 74.8302 62.347 74.8302H59.5753V81.8656C59.5753 83.215 60.4282 84.2106 61.9208 84.2106H62.2053C62.7017 84.2106 63.129 84.5654 63.129 85.1343V86.4847C63.129 86.9823 62.7023 87.4084 62.2053 87.4084H60.5006V87.4079V87.4079ZM39.1824 79.3785C39.1824 75.3283 36.7666 71.2782 31.2947 71.2782C26.2494 71.2782 23.4783 75.2575 23.4783 79.3785C23.4783 83.7834 26.4625 87.6923 31.3655 87.6923C34.7056 87.6923 37.9742 85.9872 38.6135 83.0738C38.6843 82.7191 38.4004 82.1501 37.9028 82.1501H35.487C35.0609 82.1501 34.7056 82.3637 34.4919 82.7185C33.7813 83.7131 32.7868 84.2106 31.3655 84.2106C29.2336 84.2106 27.8124 82.5757 27.6701 80.7289H37.8314C38.7562 80.7289 39.1824 80.2313 39.1824 79.3785V79.3785ZM27.7415 77.6733C27.8838 75.8973 29.4467 74.5469 31.2947 74.5469C33.2135 74.5469 34.7764 75.8973 34.9895 77.6733H27.7415ZM85.3709 79.3785C85.3709 75.3283 82.9546 71.2782 77.4832 71.2782C72.4374 71.2782 69.6674 75.2575 69.6674 79.3785C69.6674 83.7834 72.6516 87.6923 77.5551 87.6923C80.8941 87.6923 84.1633 85.9872 84.8025 83.0738C84.8734 82.7191 84.5889 82.1501 84.0924 82.1501H81.6761C81.4748 82.1482 81.2765 82.1999 81.1017 82.2997C80.9269 82.3996 80.7817 82.5441 80.681 82.7185C79.9709 83.7131 78.9764 84.2106 77.4837 84.2106C75.4232 84.2106 74.002 82.5757 73.8603 80.7289H84.0211C84.9453 80.7289 85.3709 80.2313 85.3709 79.3785V79.3785ZM73.9306 77.6733C74.0723 75.8973 75.6358 74.5469 77.4832 74.5469C79.402 74.5469 80.9649 75.8973 81.1077 77.6733H73.9306Z" fill="white"/>
<path fill-rule="evenodd" clip-rule="evenodd" d="M52.0439 66.1622H19.2145C18.4331 66.1622 17.8641 66.8014 17.8641 67.5115L17.935 80.445C17.935 80.445 10.9001 67.6543 10.5448 67.0151C10.1895 66.3747 9.40746 65.8063 8.41292 65.8063H5.71265C4.93118 65.8063 4.36279 66.4467 4.36279 67.1567V86.0581C4.36279 86.8401 4.93118 87.4085 5.71265 87.4085H7.41782C8.19929 87.4085 8.76768 86.8401 8.76768 86.0581L8.69684 72.8418C8.69684 72.8418 15.8025 85.7033 16.1579 86.2009C16.5132 86.911 17.2238 87.4085 18.2183 87.4085H20.705C21.487 87.4085 22.0554 86.8401 22.0554 86.0581V69.36H52.0422C52.5398 69.36 52.966 68.9333 52.966 68.4363V67.0859C52.9676 66.5878 52.542 66.1622 52.0439 66.1622V66.1622Z" fill="white"/>
<path fill-rule="evenodd" clip-rule="evenodd" d="M46.7142 74.4047C48.1355 74.4047 49.2014 74.9011 49.6276 75.8259C49.7704 76.2515 50.1251 76.3224 50.6227 76.3224H52.6123C52.8968 76.3224 53.3224 76.0379 53.3224 75.6123C53.3224 73.3382 50.5518 71.2777 46.7142 71.2777C42.7349 71.2777 40.106 73.1954 40.106 76.1807C40.106 78.5256 41.9535 79.876 44.1562 80.5153C45.2221 80.7289 46.9981 81.1545 47.851 81.439C48.7039 81.6526 49.5562 81.9365 49.5562 82.7185C49.5562 83.997 48.2777 84.3534 46.7845 84.3534C45.4352 84.3534 44.0848 83.7839 43.7295 82.7894C43.5159 82.221 43.0897 82.1501 42.5213 82.1501H40.5317C40.1763 82.1501 39.7502 82.5049 39.7502 82.9322V83.2155C39.7502 85.4188 42.7349 87.6923 46.8565 87.6923C49.699 87.6923 53.7491 86.4847 53.7491 82.6477C53.7491 80.3725 52.257 78.8101 49.7698 78.1709C48.8461 77.9572 46.5725 77.318 46.0744 77.2472C45.1507 76.9627 44.2979 76.6788 44.2979 75.9676C44.2984 74.76 45.3649 74.4047 46.7142 74.4047V74.4047Z" fill="white"/>
</svg>
