<svg width="233" height="51" viewBox="0 0 233 51" fill="none" xmlns="http://www.w3.org/2000/svg">
<path d="M5.84481 51L73 42.1997L67.1552 0L0 8.80025L5.84481 51Z" fill="#81007F"/>
<path d="M55.424 14.6V37H49.152V19.624H40.64V37H34.4V14.6H55.424ZM68.4045 37.288C66.5485 37.288 64.8738 36.904 63.3805 36.136C61.8872 35.368 60.7138 34.3013 59.8605 32.936C59.0285 31.5707 58.6125 30.024 58.6125 28.296C58.6125 26.5893 59.0285 25.0533 59.8605 23.688C60.7138 22.3227 61.8765 21.2667 63.3485 20.52C64.8418 19.752 66.5272 19.368 68.4045 19.368C70.2818 19.368 71.9672 19.752 73.4605 20.52C74.9538 21.2667 76.1165 22.3227 76.9485 23.688C77.7805 25.032 78.1965 26.568 78.1965 28.296C78.1965 30.024 77.7805 31.5707 76.9485 32.936C76.1165 34.3013 74.9538 35.368 73.4605 36.136C71.9672 36.904 70.2818 37.288 68.4045 37.288ZM68.4045 32.456C69.4712 32.456 70.3458 32.0933 71.0285 31.368C71.7112 30.6213 72.0525 29.5973 72.0525 28.296C72.0525 27.016 71.7112 26.0133 71.0285 25.288C70.3458 24.5627 69.4712 24.2 68.4045 24.2C67.3378 24.2 66.4632 24.5627 65.7805 25.288C65.0978 26.0133 64.7565 27.016 64.7565 28.296C64.7565 29.5973 65.0978 30.6213 65.7805 31.368C66.4632 32.0933 67.3378 32.456 68.4045 32.456ZM91.96 19.368C93.5387 19.368 94.968 19.7413 96.248 20.488C97.5493 21.2133 98.5733 22.2587 99.32 23.624C100.088 24.968 100.472 26.536 100.472 28.328C100.472 30.12 100.088 31.6987 99.32 33.064C98.5733 34.408 97.5493 35.4533 96.248 36.2C94.968 36.9253 93.5387 37.288 91.96 37.288C89.9333 37.288 88.3227 36.68 87.128 35.464V43.208H81.048V19.656H86.84V21.384C87.9707 20.04 89.6773 19.368 91.96 19.368ZM90.68 32.456C91.7467 32.456 92.6213 32.0933 93.304 31.368C93.9867 30.6213 94.328 29.608 94.328 28.328C94.328 27.048 93.9867 26.0453 93.304 25.32C92.6213 24.5733 91.7467 24.2 90.68 24.2C89.6133 24.2 88.7387 24.5733 88.056 25.32C87.3733 26.0453 87.032 27.048 87.032 28.328C87.032 29.608 87.3733 30.6213 88.056 31.368C88.7387 32.0933 89.6133 32.456 90.68 32.456ZM118.255 24.488H112.687V37H106.639V24.488H101.039V19.656H118.255V24.488ZM145.043 28.264C145.043 30.9733 144.136 33.1067 142.323 34.664C140.51 36.2 137.918 37.096 134.547 37.352V43.208H129.171V37.384C125.779 37.1067 123.176 36.2 121.363 34.664C119.571 33.1067 118.675 30.9733 118.675 28.264C118.675 25.576 119.56 23.4853 121.331 21.992C123.123 20.4987 125.736 19.624 129.171 19.368V13.256H134.547V19.368C137.939 19.6453 140.531 20.5307 142.323 22.024C144.136 23.5173 145.043 25.5973 145.043 28.264ZM124.467 28.264C124.467 29.672 124.83 30.7493 125.555 31.496C126.302 32.2213 127.507 32.6907 129.171 32.904V23.816C127.486 24.0293 126.28 24.488 125.555 25.192C124.83 25.896 124.467 26.92 124.467 28.264ZM134.547 32.904C136.232 32.6907 137.438 32.2213 138.163 31.496C138.91 30.7493 139.283 29.672 139.283 28.264C139.283 26.92 138.91 25.896 138.163 25.192C137.438 24.488 136.232 24.04 134.547 23.848V32.904ZM156.436 37.288C154.58 37.288 152.905 36.904 151.412 36.136C149.918 35.368 148.745 34.3013 147.892 32.936C147.06 31.5707 146.644 30.024 146.644 28.296C146.644 26.5893 147.06 25.0533 147.892 23.688C148.745 22.3227 149.908 21.2667 151.38 20.52C152.873 19.752 154.558 19.368 156.436 19.368C158.313 19.368 159.998 19.752 161.492 20.52C162.985 21.2667 164.148 22.3227 164.98 23.688C165.812 25.032 166.228 26.568 166.228 28.296C166.228 30.024 165.812 31.5707 164.98 32.936C164.148 34.3013 162.985 35.368 161.492 36.136C159.998 36.904 158.313 37.288 156.436 37.288ZM156.436 32.456C157.502 32.456 158.377 32.0933 159.06 31.368C159.742 30.6213 160.084 29.5973 160.084 28.296C160.084 27.016 159.742 26.0133 159.06 25.288C158.377 24.5627 157.502 24.2 156.436 24.2C155.369 24.2 154.494 24.5627 153.812 25.288C153.129 26.0133 152.788 27.016 152.788 28.296C152.788 29.5973 153.129 30.6213 153.812 31.368C154.494 32.0933 155.369 32.456 156.436 32.456ZM186.431 19.656V37H180.351V24.488H175.967L175.839 27.144C175.753 29.4053 175.529 31.272 175.167 32.744C174.804 34.216 174.207 35.368 173.375 36.2C172.543 37.0107 171.401 37.416 169.951 37.416C169.204 37.416 168.223 37.2773 167.007 37L167.263 32.04C167.647 32.0827 167.903 32.104 168.031 32.104C168.692 32.104 169.193 31.8907 169.535 31.464C169.876 31.0373 170.111 30.472 170.239 29.768C170.367 29.0427 170.452 28.0827 170.495 26.888L170.751 19.656H186.431ZM190.517 19.656H196.565V28.744L203.829 19.656H209.429V37H203.349V27.88L196.149 37H190.517V19.656ZM222.061 37.288C220.205 37.288 218.53 36.904 217.037 36.136C215.543 35.368 214.37 34.3013 213.517 32.936C212.685 31.5707 212.269 30.024 212.269 28.296C212.269 26.5893 212.685 25.0533 213.517 23.688C214.37 22.3227 215.533 21.2667 217.005 20.52C218.498 19.752 220.183 19.368 222.061 19.368C223.938 19.368 225.623 19.752 227.117 20.52C228.61 21.2667 229.773 22.3227 230.605 23.688C231.437 25.032 231.853 26.568 231.853 28.296C231.853 30.024 231.437 31.5707 230.605 32.936C229.773 34.3013 228.61 35.368 227.117 36.136C225.623 36.904 223.938 37.288 222.061 37.288ZM222.061 32.456C223.127 32.456 224.002 32.0933 224.685 31.368C225.367 30.6213 225.709 29.5973 225.709 28.296C225.709 27.016 225.367 26.0133 224.685 25.288C224.002 24.5627 223.127 24.2 222.061 24.2C220.994 24.2 220.119 24.5627 219.437 25.288C218.754 26.0133 218.413 27.016 218.413 28.296C218.413 29.5973 218.754 30.6213 219.437 31.368C220.119 32.0933 220.994 32.456 222.061 32.456Z" fill="white"/>
</svg>
