<svg width="153" height="55" viewBox="0 0 153 55" fill="none" xmlns="http://www.w3.org/2000/svg">
<path d="M107.498 25.6349C107.551 25.4547 107.603 25.2534 107.666 25.0414C107.698 24.9355 107.729 24.8189 107.771 24.7023C107.813 24.5857 107.855 24.4904 107.897 24.3738C107.98 24.1513 108.075 23.9075 108.18 23.6638C108.295 23.42 108.421 23.1657 108.546 22.9008C109.091 21.841 109.867 20.6647 110.915 19.4884C111.963 18.3227 113.273 17.1782 114.834 16.1503C116.406 15.1435 118.219 14.2534 120.231 13.6493C121.237 13.3314 122.295 13.1195 123.385 12.9499C124.475 12.8015 125.596 12.7274 126.728 12.7486C129.002 12.8121 131.329 13.2148 133.529 14.0414C134.64 14.4229 135.699 14.9528 136.736 15.4933L136.893 15.578L136.977 15.631L137.155 15.737L137.512 15.9595C137.753 16.1185 137.973 16.2245 138.224 16.4258L138.989 16.9981C139.115 17.0935 139.241 17.1888 139.366 17.2948L139.702 17.6127L140.372 18.238C140.582 18.4605 140.781 18.6936 140.98 18.9268L141.284 19.2765C141.378 19.3931 141.462 19.5202 141.557 19.6474L142.081 20.3998C142.238 20.6647 142.385 20.9297 142.531 21.1946L142.751 21.5973L142.94 22.0106C143.055 22.2861 143.191 22.5617 143.296 22.8478L143.579 23.7062C143.915 24.8613 144.124 26.0376 144.145 27.1927C144.187 27.7755 144.124 28.3478 144.103 28.92C144.019 29.4817 143.977 30.054 143.831 30.5944C143.359 32.7881 142.343 34.7486 141.033 36.2852C139.723 37.8218 138.067 38.8815 136.432 39.4644C134.797 40.0472 133.194 40.132 131.821 39.9942C131.654 39.9836 131.486 39.9624 131.318 39.9518C131.151 39.9306 130.993 39.8882 130.836 39.8671C130.522 39.8035 130.218 39.7505 129.924 39.6869C129.359 39.5173 128.835 39.369 128.374 39.21C127.923 39.0299 127.514 38.8603 127.168 38.7119C126.823 38.553 126.54 38.394 126.309 38.2775C125.848 38.0337 125.596 37.9066 125.596 37.9066C125.596 37.9066 125.848 38.0125 126.33 38.2245C126.571 38.3198 126.864 38.4576 127.21 38.5848C127.567 38.7014 127.975 38.8391 128.436 38.9875C128.897 39.1146 129.421 39.2206 129.987 39.3478C130.27 39.3796 130.574 39.422 130.878 39.4538C131.035 39.4644 131.192 39.4961 131.35 39.5067C131.507 39.5067 131.675 39.5067 131.842 39.5173C133.163 39.5491 134.661 39.3478 136.128 38.7014C137.585 38.0549 139 36.9846 140.069 35.5222C141.137 34.0597 141.902 32.2476 142.175 30.2977C142.269 29.8208 142.269 29.3227 142.311 28.8247C142.29 28.3266 142.322 27.8285 142.238 27.3304C142.154 26.3343 141.892 25.3593 141.546 24.4162L141.263 23.7168C141.158 23.4942 141.033 23.2717 140.917 23.0491L140.739 22.7206L140.53 22.4133L140.11 21.7881L139.628 21.2052C139.545 21.1098 139.471 21.0039 139.387 20.9191L139.115 20.6541L138.58 20.1243L137.994 19.658L137.7 19.4249C137.606 19.3507 137.501 19.2977 137.396 19.2341L136.799 18.842C136.715 18.7784 136.579 18.7148 136.453 18.6513L136.086 18.4605L135.72 18.2698L135.531 18.1744L135.447 18.132C135.468 18.1426 135.489 18.1532 135.479 18.1532L135.458 18.1426L135.416 18.1214C134.462 17.7081 133.519 17.3266 132.534 17.0723C130.595 16.5106 128.615 16.3304 126.739 16.4152C125.796 16.4682 124.884 16.606 124.004 16.7861C123.123 16.9981 122.274 17.2312 121.489 17.5491C119.896 18.1638 118.502 18.9904 117.328 19.8805C116.165 20.7813 115.232 21.7351 114.53 22.6464C113.828 23.5578 113.367 24.4162 113.063 25.1262C113 25.3064 112.927 25.4759 112.874 25.6349C112.822 25.7938 112.78 25.9422 112.738 26.08C112.717 26.1435 112.696 26.2177 112.686 26.2707C112.675 26.3237 112.665 26.3661 112.654 26.4191C112.633 26.5145 112.612 26.5886 112.591 26.6628C112.518 27.1715 112.476 27.4364 112.476 27.4364V27.4682C112.466 27.5318 112.455 27.5954 112.445 27.659C112.12 29.1002 110.695 29.9904 109.28 29.6618C107.855 29.3333 106.974 27.8921 107.299 26.4615C107.32 26.4403 107.383 26.1647 107.498 25.6349Z" fill="white"/>
<path d="M120.315 24.8083C120.315 24.8083 120.42 24.6811 120.619 24.448C120.692 24.3738 120.776 24.2573 120.849 24.1831C120.923 24.1089 121.007 24.0241 121.101 23.9287C121.279 23.7592 121.489 23.5684 121.719 23.3777C122.652 22.6147 124.025 21.7457 125.848 21.131C126.76 20.8237 127.787 20.5906 128.908 20.5164C130.029 20.4422 131.245 20.5376 132.429 20.8979C133.613 21.2476 134.745 21.8623 135.709 22.6465C136.631 23.3989 137.501 24.3314 138.151 25.4124C138.801 26.4933 139.22 27.712 139.346 28.9307C139.482 30.1494 139.325 31.3574 138.958 32.4172C138.602 33.4875 138.036 34.4201 137.386 35.1725C136.726 35.9249 135.971 36.5077 135.227 36.8998C134.473 37.3025 133.729 37.5251 133.058 37.631C132.387 37.7476 131.8 37.737 131.329 37.6946C130.857 37.6522 130.49 37.5781 130.249 37.5251C130.008 37.4615 129.872 37.4297 129.872 37.4297C129.872 37.4297 130.008 37.4403 130.249 37.4721C130.501 37.4933 130.868 37.5039 131.329 37.4721C131.79 37.4403 132.345 37.3555 132.943 37.1648C133.54 36.974 134.179 36.6561 134.787 36.2004C135.395 35.7447 135.971 35.1513 136.422 34.4307C136.883 33.71 137.208 32.8729 137.365 31.9827C137.522 31.0925 137.491 30.1599 137.26 29.291C137.03 28.4114 136.6 27.606 136.024 26.9066C135.447 26.2178 134.735 25.6455 133.938 25.1898C133.184 24.7553 132.398 24.4904 131.633 24.395C130.103 24.1937 128.636 24.6494 127.504 25.2534C126.362 25.8574 125.534 26.6099 125.094 27.1079C124.978 27.2351 124.894 27.3517 124.821 27.447C124.79 27.4894 124.758 27.5318 124.737 27.5742C124.706 27.6166 124.716 27.6166 124.706 27.6378C124.601 27.8073 124.549 27.8921 124.549 27.8921C124.475 28.0087 124.391 28.1359 124.297 28.2418C123.354 29.3546 121.698 29.4923 120.598 28.5386C119.497 27.5954 119.372 25.921 120.315 24.8083Z" fill="white"/>
<path d="M150.474 29.1426C150.128 30.6686 149.604 32.1416 148.902 33.5087C148.546 34.1869 148.169 34.8545 147.729 35.4692L147.383 35.9566L147.058 36.3699C146.838 36.6455 146.628 36.9104 146.366 37.1965C144.386 39.4325 141.965 40.9903 139.471 41.8911C136.977 42.7813 134.451 43.0356 132.198 42.7813C131.066 42.6541 129.997 42.421 129.023 42.1137C128.038 41.7957 127.147 41.3719 126.351 40.9268C125.554 40.4711 124.873 39.9412 124.276 39.4219C123.699 38.8709 123.196 38.3516 122.819 37.8112C122.043 36.7514 121.624 35.8083 121.394 35.1512C121.268 34.8227 121.216 34.5578 121.163 34.3882C121.111 34.2187 121.09 34.1233 121.09 34.1233C121.09 34.1233 121.121 34.2081 121.184 34.3776C121.247 34.5472 121.32 34.8015 121.467 35.1194C121.74 35.7553 122.222 36.6561 123.039 37.631C123.437 38.1291 123.961 38.606 124.548 39.0828C125.156 39.5385 125.837 40.0048 126.633 40.3757C127.419 40.7466 128.289 41.0857 129.243 41.3295C130.186 41.5626 131.202 41.711 132.271 41.7428C134.399 41.8275 136.715 41.4142 138.915 40.4499C140.016 39.9624 141.085 39.3372 142.07 38.5636C143.055 37.8006 143.977 36.8574 144.742 35.8719C144.941 35.6387 145.14 35.3526 145.339 35.0559L145.643 34.6214L145.874 34.2293C146.209 33.6782 146.503 33.0848 146.764 32.4701C147.288 31.2514 147.645 29.948 147.854 28.6127C148.274 25.9316 148.095 23.1233 147.32 20.527C146.555 17.92 145.182 15.5462 143.401 13.6599C142.51 12.7167 141.514 11.8796 140.456 11.1695C140.194 10.9894 139.932 10.8198 139.649 10.6609C139.376 10.5019 139.114 10.3324 138.832 10.1946C138.549 10.0568 138.276 9.89786 138.004 9.77069C137.731 9.65412 137.459 9.52696 137.197 9.41039C137.071 9.3468 136.893 9.28322 136.746 9.23023L136.264 9.05008L136.023 8.9547L135.908 8.91231L135.845 8.89112L135.813 8.88052C135.834 8.89112 135.73 8.84873 135.845 8.89112L135.405 8.75335C134.818 8.55201 134.231 8.40364 133.655 8.25528C132.491 7.99035 131.339 7.82079 130.217 7.73601C127.975 7.58765 125.847 7.7996 123.94 8.25528C122.033 8.70037 120.356 9.368 118.931 10.0674C117.506 10.788 116.353 11.5404 115.462 12.2081C114.582 12.8757 113.974 13.4586 113.66 13.8083C113.628 13.8507 113.587 13.893 113.555 13.9248L113.503 13.9778C113.492 13.9884 113.492 13.9884 113.492 13.999C113.482 14.0096 113.482 14.0202 113.471 14.0202C113.461 14.0308 113.471 14.0202 113.429 14.0732C113.325 14.2216 113.272 14.2957 113.272 14.2957L113.251 14.3169C113.209 14.3805 113.157 14.4335 113.115 14.4971C111.952 15.9171 109.866 16.1079 108.462 14.9316C107.058 13.7553 106.869 11.6464 108.032 10.2264C108.032 10.2264 108.095 10.1522 108.2 10.0144C108.242 9.96145 108.294 9.89786 108.357 9.83428C108.42 9.7601 108.494 9.67532 108.577 9.59054C108.619 9.54815 108.661 9.50576 108.703 9.45278C108.735 9.42098 108.776 9.38919 108.808 9.3468C108.881 9.27262 108.965 9.19844 109.038 9.11366C109.699 8.47782 110.631 7.73601 111.857 6.93062C113.084 6.13582 114.624 5.28804 116.458 4.51443C118.302 3.76202 120.451 3.0838 122.871 2.70229C125.282 2.31019 127.964 2.23601 130.731 2.61752C132.114 2.81886 133.508 3.13678 134.902 3.56068C135.593 3.79382 136.285 4.02696 136.966 4.31308L137.48 4.51443C137.616 4.56742 137.532 4.53563 137.574 4.55682L137.605 4.56742L137.668 4.59921L137.784 4.6522L138.014 4.75817L138.475 4.97012C138.632 5.0443 138.779 5.10788 138.957 5.20326C139.303 5.38341 139.659 5.57416 140.005 5.76491C140.351 5.95567 140.665 6.16761 141.001 6.35836C141.336 6.54912 141.651 6.78226 141.965 7.0048C142.29 7.22734 142.604 7.44989 142.908 7.70422C144.145 8.66858 145.297 9.78129 146.314 11.0318C148.347 13.5221 149.804 16.5318 150.485 19.6686C151.197 22.8266 151.176 26.0905 150.474 29.1426Z" fill="white"/>
<path d="M130.826 28.0723C132.796 28.0723 134.389 29.6831 134.389 31.6754C134.389 33.6676 132.796 35.2784 130.826 35.2784C128.856 35.2784 127.263 33.6676 127.263 31.6754C127.263 29.6831 128.856 28.0723 130.826 28.0723Z" fill="white"/>
<path d="M24.9307 36.974C24.9307 37.9383 24.8155 38.7967 24.5744 39.5491C24.3439 40.3015 24.019 40.9692 23.6208 41.552C23.2226 42.1243 22.7615 42.6224 22.2375 43.0356C21.7135 43.4489 21.1686 43.7881 20.5922 44.0424C20.0159 44.3073 19.4395 44.4981 18.8631 44.6146C18.2868 44.7312 17.7313 44.7948 17.2179 44.7948L25.9158 52.3931H19.4919L10.8149 44.7948H7.81778V40.5877H17.2283C17.7523 40.5453 18.2239 40.4287 18.664 40.2592C19.0937 40.079 19.4709 39.8459 19.7853 39.5385C20.0997 39.2312 20.3407 38.8709 20.5189 38.447C20.6865 38.0231 20.7704 37.5356 20.7704 36.9846V34.3247C20.7704 34.0915 20.7389 33.9114 20.6865 33.7842C20.6237 33.657 20.5503 33.5723 20.4665 33.5087C20.3722 33.4451 20.2778 33.4133 20.1731 33.4027C20.0683 33.3921 19.9739 33.3815 19.8901 33.3815H6.15155V52.3931H1.99121V31.2938C1.99121 30.9971 2.04361 30.7322 2.1484 30.4672C2.2532 30.2129 2.39991 29.9798 2.58854 29.789C2.77717 29.5983 2.99724 29.4393 3.24874 29.3333C3.50025 29.2274 3.7832 29.1744 4.07662 29.1744H19.8796C20.8123 29.1744 21.5878 29.3439 22.2375 29.683C22.8768 30.0222 23.4007 30.4461 23.7989 30.9653C24.1972 31.474 24.4906 32.0356 24.6687 32.6291C24.8469 33.2225 24.9307 33.7736 24.9307 34.2929V36.974Z" fill="white"/>
<path d="M32.3188 31.2938H28.1584V27.4894H32.3188V31.2938ZM32.3188 52.393H28.1584V34.8863H32.3188V52.393Z" fill="white"/>
<path d="M56.0547 34.8863C55.5831 36.37 55.0382 37.8218 54.4094 39.263C53.7807 40.6937 53.0576 42.0713 52.2402 43.3642C51.4228 44.6676 50.5111 45.8651 49.505 46.9778C48.499 48.08 47.3777 49.0443 46.1621 49.8391C44.936 50.6445 43.6156 51.2698 42.1799 51.736C40.7442 52.1917 39.1933 52.4249 37.5165 52.4249C37.2231 52.4249 36.9611 52.3719 36.6991 52.2659C36.4476 52.1599 36.2171 52.0116 36.0285 51.8208C35.8398 51.6301 35.6826 51.4075 35.5778 51.1532C35.4731 50.8989 35.4207 50.6233 35.4207 50.3372V34.8863H39.581V48.0482C40.5975 48.0482 41.5721 47.8256 42.5048 47.3805C43.4374 46.9355 44.3177 46.3526 45.1561 45.6214C45.9839 44.8902 46.7594 44.0636 47.472 43.131C48.1846 42.1985 48.8134 41.2553 49.3688 40.2698C49.9242 39.2948 50.3958 38.3305 50.7835 37.3979C51.1713 36.4547 51.4647 35.6175 51.6533 34.8757H56.0547V34.8863Z" fill="white"/>
<path d="M61.8603 31.2938H57.7V27.4894H61.8603V31.2938ZM61.8603 52.393H57.7V34.8863H61.8603V52.393Z" fill="white"/>
<path d="M83.6365 40.683C83.6365 41.2659 83.5317 41.8911 83.3326 42.5694C83.1335 43.2476 82.7982 43.8728 82.3475 44.4451C81.8969 45.0173 81.2996 45.5048 80.566 45.8969C79.8325 46.289 78.9417 46.4798 77.9043 46.4798H70.3905V42.4846H77.9043C78.4701 42.4846 78.9103 42.3044 79.2142 41.9547C79.5286 41.605 79.6753 41.1705 79.6753 40.6512C79.6753 40.1002 79.4971 39.6657 79.1513 39.3584C78.8055 39.0405 78.3863 38.8921 77.8938 38.8921H70.38C69.8141 38.8921 69.374 39.0722 69.0701 39.422C68.7557 39.7717 68.609 40.2062 68.609 40.7254V46.6069C68.609 47.1686 68.7871 47.6031 69.1329 47.921C69.4788 48.2389 69.9084 48.3873 70.4219 48.3873H77.9043V52.4037H70.3905C69.8141 52.4037 69.1958 52.2977 68.5251 52.0963C67.8544 51.895 67.2362 51.5559 66.6703 51.1002C66.1044 50.6445 65.6223 50.0405 65.2346 49.2986C64.8468 48.5568 64.6582 47.6561 64.6582 46.6069V40.6936C64.6582 40.1108 64.763 39.4855 64.9621 38.8073C65.1612 38.1291 65.4966 37.5038 65.9472 36.9316C66.3978 36.3593 66.9951 35.8719 67.7287 35.4798C68.4622 35.0877 69.353 34.8969 70.3905 34.8969H77.9043C78.4806 34.8969 79.0989 35.0029 79.7696 35.2042C80.4403 35.4056 81.0586 35.7447 81.6245 36.2004C82.1904 36.6561 82.6724 37.2601 83.0601 38.0019C83.4479 38.7225 83.6365 39.6233 83.6365 40.683Z" fill="white"/>
<path d="M101.043 39.0934H91.6744C91.1085 39.0934 90.6789 39.2312 90.3959 39.5173C90.1025 39.8035 89.9663 40.2168 89.9663 40.7678V52.3825H85.8059V40.7784C85.8059 40.0578 85.9002 39.4114 86.0784 38.8391C86.2565 38.2669 86.508 37.7582 86.8119 37.3237C87.1158 36.8892 87.4617 36.5183 87.8599 36.211C88.2581 35.9037 88.6668 35.6493 89.0965 35.4586C89.5261 35.2678 89.9663 35.1195 90.4064 35.0347C90.8465 34.9393 91.2657 34.8969 91.643 34.8969H101.043V39.0934Z" fill="white"/>
<path d="M119.445 46.5964C119.445 47.1792 119.34 47.8045 119.141 48.4827C118.942 49.1609 118.606 49.7862 118.156 50.3584C117.705 50.9307 117.108 51.4181 116.374 51.8102C115.641 52.2023 114.75 52.3931 113.713 52.3931H106.199C105.622 52.3931 105.004 52.2871 104.333 52.0858C103.663 51.8844 103.044 51.5453 102.479 51.0896C101.902 50.6339 101.431 50.0299 101.043 49.2881C100.655 48.5463 100.467 47.6455 100.467 46.5964C100.467 46.0135 100.571 45.3777 100.77 44.6994C100.97 44.0212 101.305 43.396 101.756 42.8131C102.206 42.2409 102.803 41.7534 103.537 41.3613C104.271 40.9692 105.161 40.7784 106.199 40.7784H113.713V44.7948H106.199C105.633 44.7948 105.193 44.975 104.889 45.3247C104.585 45.6744 104.428 46.1089 104.428 46.6282C104.428 47.1792 104.606 47.6031 104.962 47.9104C105.319 48.2178 105.748 48.3767 106.23 48.3767H113.713C114.278 48.3767 114.719 48.2072 115.023 47.8574C115.337 47.5077 115.484 47.0838 115.484 46.5646V40.6831C115.484 40.132 115.316 39.6975 114.981 39.369C114.645 39.0405 114.216 38.8815 113.713 38.8815H104.575V34.8864H113.713C114.289 34.8864 114.907 34.9923 115.578 35.1937C116.249 35.395 116.867 35.7341 117.433 36.1898C117.999 36.6455 118.481 37.2495 118.868 37.9914C119.256 38.7332 119.445 39.6339 119.445 40.6831V46.5964Z" fill="white"/>
</svg>
