<svg width="153" height="67" viewBox="0 0 153 67" fill="none" xmlns="http://www.w3.org/2000/svg">
<g clip-path="url(#clip0)">
<path d="M52.8224 40.08V27.7328L52.0191 26.9006H53.7977C53.7977 26.9006 54.1038 23.5139 56.9343 22.8752C56.9151 22.8365 56.896 22.7785 56.896 22.7397C56.896 22.5075 57.1829 22.2946 57.5845 22.2366L57.9287 18.2886L58.1774 22.2559C58.5408 22.3333 58.7894 22.5269 58.7894 22.7397C58.7894 22.7785 58.7894 22.8172 58.7702 22.8559C61.6964 23.4558 62.1554 27.0748 62.1554 27.0748H63.1308V21.385L61.6772 19.9142V13.0439L60.6254 11.9795H65.158V7.87666L64.6225 7.33478H65.2154C65.2154 7.33478 65.158 4.81889 66.8792 4.41248C66.688 4.33507 66.5541 4.21895 66.5541 4.06413C66.5541 3.9093 66.7071 3.77383 66.9175 3.69642L67.2809 0L67.5677 3.67707C67.8355 3.73512 68.0267 3.88995 68.0267 4.06413C68.0267 4.1996 67.8929 4.33507 67.7016 4.41248C69.4229 4.81889 69.3655 7.33478 69.3655 7.33478H69.9584L69.4229 7.87666V11.9795H79.234H88.9686V7.89601L88.4331 7.35413H89.026C89.026 7.35413 88.9878 4.83824 90.6899 4.43183C90.4986 4.35442 90.3647 4.2383 90.3647 4.08348C90.3647 3.9093 90.556 3.75448 90.8237 3.69642L91.1106 0.019353L91.5123 3.71577C91.7418 3.79318 91.8756 3.92865 91.8756 4.08348C91.8756 4.21895 91.7418 4.35442 91.5505 4.43183C93.2718 4.83824 93.2144 7.35413 93.2144 7.35413H93.8073L93.2718 7.89601V11.9988H97.8044L96.7525 13.0633V19.9142L95.2799 21.385V27.0748H96.2552C96.2552 27.0748 96.7142 23.4752 99.6404 22.8559C99.6212 22.8172 99.6212 22.7785 99.6212 22.7397C99.6212 22.5075 99.8699 22.3333 100.233 22.2559L100.482 18.2886L100.826 22.2366C101.228 22.2946 101.515 22.5075 101.515 22.7397C101.515 22.7785 101.495 22.8365 101.476 22.8752C104.288 23.5139 104.613 26.9006 104.613 26.9006H106.391L105.588 27.7328V40.08H106.889V40.8928H51.4645V40.08H52.8224ZM129.303 54.6141C126.205 55.9495 127.18 63.1681 131.445 60.6716C135.461 58.3105 131.177 53.8013 129.303 54.6141ZM128.94 56.472C129.571 55.6979 129.839 56.4333 130.776 56.9365C131.503 57.3235 132.268 57.1687 132.019 58.4073C131.12 59.8394 127.505 59.0266 128.94 56.472ZM13.0424 56.3365C13.3484 54.2657 14.9931 53.9561 16.657 54.7496C18.2826 55.5237 17.8619 57.2848 17.8236 58.7943V58.8137C19.0285 59.5878 20.1378 59.5878 20.7115 58.0589C20.788 58.4266 20.8454 58.7556 20.8454 59.0653C21.6869 58.9879 22.6049 57.7686 22.8726 56.8397C22.8726 56.4913 22.8918 56.1236 22.9109 55.7753C23.0448 55.5624 24.2114 54.3432 24.3453 54.3819C24.46 54.4399 24.2879 56.6268 24.2688 56.8784C24.613 55.9688 25.4545 54.3819 26.5829 54.3819C26.9463 54.3819 27.3096 54.5754 27.5583 54.8463C28.0555 55.4076 27.8643 55.8914 27.7686 56.5494C28.1511 55.6398 28.7823 54.4012 29.9489 54.4012C32.4734 54.6528 30.1975 58.4653 31.2876 59.0459C31.957 59.8781 35.6099 59.1427 36.547 58.833C36.8339 58.7363 37.1208 58.5815 37.3311 58.3105C37.465 58.1363 37.5415 57.9235 37.5606 57.6525C38.1152 58.0976 38.0196 59.2588 37.7519 59.8394C37.2164 60.9038 33.3531 61.0973 32.263 61.0586C29.2412 60.9425 29.356 59.2395 29.5664 57.13C29.6046 56.6655 29.6429 56.201 29.6811 55.7366C27.7878 56.7623 28.4762 60.4006 27.52 60.6522C26.9462 60.7103 26.7167 60.1684 26.6211 59.433C26.4681 58.1557 26.7741 56.859 26.8315 55.5817C24.8425 56.7623 24.5365 60.4781 24.1923 60.5168C23.9436 60.5748 23.6568 60.6135 23.4081 60.5748C22.9491 60.4974 23.0256 59.5491 22.9874 59.1814C22.3371 59.6652 21.4191 59.762 20.8454 59.104C20.8645 60.6135 19.9465 61.4263 18.1488 60.8845C17.8236 60.7877 17.4794 60.6522 17.1543 60.4587C16.6761 60.5555 16.2171 60.7296 15.739 60.8458C11.5315 62.0069 12.2009 57.4977 14.2664 57.0139C15.0505 56.8203 15.8538 57.0719 16.4084 57.6719L16.4466 57.7106V57.6719C16.7335 55.214 14.515 55.0205 13.0424 56.3365ZM8.18462 49.2727C8.06987 49.292 7.95513 49.3307 7.84038 49.3694C7.72563 49.4081 7.61088 49.4662 7.477 49.5049C7.36225 49.563 7.2475 49.621 7.13275 49.6984C7.018 49.7565 6.90325 49.8339 6.7885 49.9113C6.67375 49.9887 6.57812 50.0662 6.46338 50.1629C6.34863 50.2597 6.253 50.3564 6.15738 50.4339C6.00438 50.5887 5.85138 50.7629 5.73663 50.9177C5.62188 51.0725 5.52625 51.2467 5.44975 51.4015C5.39238 51.5176 5.35413 51.6531 5.335 51.7499C5.31588 51.8466 5.31588 51.9434 5.335 52.0208C5.35413 52.1369 5.43062 52.2337 5.50712 52.3111C5.60275 52.4079 5.73663 52.4659 5.90875 52.524C6.13825 52.6014 6.42513 52.6788 6.712 52.7175C7.018 52.7756 7.34313 52.8143 7.68738 52.853C8.28025 52.9304 8.87313 53.0078 9.44688 53.1433C10.0206 53.2787 10.5752 53.4916 11.0151 53.84C11.1299 53.9174 11.2255 54.0142 11.3211 54.0916C11.4167 54.1883 11.4932 54.2657 11.5697 54.3625C11.6462 54.4593 11.7227 54.5754 11.7801 54.6722C11.8375 54.7883 11.8949 54.9044 11.9331 55.0205C11.9714 55.1366 12.0096 55.2721 12.0479 55.4076C12.067 55.543 12.0861 55.6785 12.0861 55.814C12.0861 55.9495 12.0861 56.0849 12.067 56.2204C12.0479 56.3559 12.0288 56.4913 11.9905 56.6268C11.9523 56.7429 11.914 56.859 11.8566 56.9752C11.7993 57.0913 11.7419 57.2074 11.6845 57.3235C11.6271 57.4396 11.5506 57.5557 11.4741 57.6719C11.3976 57.788 11.3211 57.9041 11.2255 58.0009C11.0151 58.2718 10.7665 58.5234 10.4796 58.7943C10.1927 59.0459 9.88675 59.2975 9.5425 59.5104C9.21738 59.7233 8.854 59.9362 8.49063 60.1103C8.12725 60.2845 7.74475 60.4587 7.36225 60.5942C7.018 60.7103 6.65463 60.8264 6.29125 60.9038C5.92788 60.9812 5.5645 61.0393 5.22025 61.0973C4.85687 61.1361 4.51263 61.1554 4.16838 61.1554C3.8815 61.1554 3.61375 61.1361 3.346 61.0973L3.17388 61.078C2.9635 61.0393 2.77225 61.0006 2.581 60.9619C2.38975 60.9038 2.1985 60.8458 2.02638 60.7877C1.85425 60.7103 1.663 60.6329 1.51 60.5361C1.357 60.4393 1.204 60.3426 1.07013 60.2265L1.03188 60.1878C0.458125 59.6846 0.113875 58.8717 0.0182504 58.0589C-0.0391246 57.5364 -0.000874605 56.9945 0.133 56.5107C0.266875 56.0269 0.534625 55.6205 0.878875 55.3495C1.18488 55.1173 1.5865 55.0205 2.0455 55.0786C2.16025 55.0979 2.29413 55.1173 2.38975 55.156C2.44713 55.1753 2.5045 55.1947 2.56188 55.2334L2.69575 55.3302C2.79138 55.3882 2.90613 55.4656 2.98263 55.5624C3.04 55.6205 3.07825 55.6592 3.1165 55.7172L3.193 55.8527C3.30775 56.0462 3.38425 56.2785 3.38425 56.5107C3.38425 56.7236 3.346 56.9558 3.21213 57.1687L3.193 57.188C3.05913 57.4203 2.92525 57.6138 2.75313 57.788C2.60013 57.9622 2.428 58.117 2.275 58.2718L2.23675 58.2912C2.122 58.3879 2.0455 58.4653 2.00725 58.5234C1.969 58.5621 2.02638 58.6202 2.25588 58.8137C2.31325 58.8717 2.38975 58.9105 2.46625 58.9492C2.54275 58.9879 2.63838 59.0266 2.71488 59.0653C2.8105 59.104 2.92525 59.1427 3.04 59.162C3.15475 59.1814 3.2695 59.2201 3.40338 59.2395H3.4225C4.37875 59.3749 5.44975 59.2395 6.46338 58.9105C7.59175 58.5428 8.6245 57.9622 9.33212 57.3235C9.52338 57.1493 9.67638 56.9752 9.81025 56.8203C9.925 56.6655 10.0206 56.5107 10.0971 56.3559C10.1354 56.2397 10.1736 56.143 10.1736 56.0462C10.1736 55.9688 10.1545 55.872 10.1163 55.814C10.0015 55.6011 9.71463 55.3882 9.25563 55.214C8.81575 55.0399 8.20375 54.9044 7.41963 54.7883C6.52075 54.6722 5.641 54.5754 4.93338 54.2657C4.1875 53.9561 3.63288 53.4336 3.4225 52.4853C3.36513 52.2143 3.346 51.9434 3.38425 51.6531C3.4225 51.3628 3.499 51.0531 3.63288 50.7629C3.74763 50.4919 3.90063 50.221 4.09188 49.95C4.28313 49.6791 4.4935 49.4275 4.74213 49.1759C4.876 49.0404 5.00988 48.905 5.16288 48.7889C5.31588 48.6727 5.44975 48.5566 5.62188 48.4405C6.1765 48.0341 6.97975 47.7244 7.80212 47.589C8.4715 47.4728 9.16 47.4535 9.772 47.5696C10.384 47.6857 10.9195 47.976 11.2446 48.4211C11.3976 48.634 11.4933 48.8856 11.5506 49.1566L11.5889 49.4081L11.3403 49.3501C10.6709 49.1953 10.1163 49.1179 9.59988 49.1179C9.14087 49.0985 8.68188 49.1566 8.18462 49.2727ZM38.3639 56.3365C38.6699 54.2657 40.3146 53.9561 41.9785 54.7496C43.6041 55.5237 43.1834 57.2848 43.1451 58.7943V58.8137C44.35 59.5878 45.4593 59.5878 46.033 58.0589C46.5303 60.1684 45.6505 61.5038 43.4702 60.8651C43.1451 60.7683 42.8009 60.6329 42.4757 60.4393C41.9976 60.5361 41.5386 60.7103 41.0605 60.8264C36.853 61.9876 37.5224 57.4783 39.5879 56.9945C40.372 56.801 41.1753 57.0526 41.7299 57.6525L41.7681 57.6912V57.6525C42.055 55.214 39.8365 55.0205 38.3639 56.3365ZM47.9455 61.0006L48.0029 57.5751C49.858 58.3299 51.3306 57.8267 51.5793 55.7946C50.2979 56.201 49.246 56.9365 48.4236 55.4463C48.2132 55.0592 48.175 54.6915 47.869 54.3432C46.5303 55.7946 46.3964 54.7109 46.339 57.7686C46.2816 59.5685 46.339 61.1748 47.9455 61.0006ZM70.2835 54.5754C70.207 54.556 69.901 54.8463 69.5759 55.156C69.2316 55.485 68.9065 55.8527 68.8491 55.9495C68.83 56.2978 68.8109 56.6655 68.8109 57.0139C68.5431 57.9428 67.606 58.7363 66.7645 59.2201C67.3382 59.8781 68.2371 59.762 68.9065 59.2975C68.9447 59.7039 68.983 60.1103 69.0404 60.5168C69.1169 60.8071 69.901 60.6329 70.1114 60.5942C70.7616 60.4974 71.2206 56.472 72.7506 55.6398C72.7315 56.1043 72.6932 56.5494 72.6359 57.0139C72.4446 59.0072 72.3108 60.7296 75.1604 60.9619C76.7286 61.0973 78.6602 60.6716 80.0564 60.3232C80.6875 60.1684 80.9744 59.4523 81.0509 58.8911C81.0891 58.446 81.0318 57.8267 80.6493 57.5364C80.5919 59.0072 77.6275 59.2201 76.5182 59.2782C75.4281 59.3169 74.6058 59.1814 74.3954 58.9105C73.8025 58.6008 74.2041 57.0332 74.2806 56.3946C74.3763 55.3882 74.2806 54.4399 73.0566 54.3238C71.6796 54.3238 70.6469 55.9301 70.2261 57.0139C70.2261 56.801 70.3982 54.6334 70.2835 54.5754ZM115.686 61.1748L115.744 57.7493C117.599 58.504 119.052 58.0202 119.32 55.9688C118.039 56.3752 116.987 57.13 116.164 55.6204C115.954 55.2334 115.916 54.8657 115.61 54.5173C114.271 55.9688 114.137 54.885 114.08 57.9428C114.022 59.7426 114.08 61.3489 115.686 61.1748ZM105.646 56.5107C105.952 54.4399 107.596 54.1303 109.26 54.9237C110.886 55.6979 110.465 57.459 110.427 58.9685V58.9879C111.632 59.762 112.741 59.762 113.315 58.2331C113.812 60.3426 112.913 61.6779 110.752 61.0393C110.427 60.9425 110.083 60.7877 109.757 60.5942C109.279 60.6716 108.82 60.8651 108.342 60.9812C104.135 62.1424 104.804 57.6332 106.87 57.1493C107.635 56.9558 108.457 57.2074 109.012 57.8073L109.031 57.846V57.8073C109.337 55.3882 107.099 55.1947 105.646 56.5107ZM108.553 59.4523C108.132 59.1814 108.113 58.5621 107.424 58.4073C106.812 58.2525 106.105 58.4653 106.296 59.2588C106.621 60.3813 107.864 60.0329 108.553 59.4523ZM124.751 54.7302C125.402 56.1236 124.426 59.6072 123.221 59.8781C122.456 59.5685 121.366 56.1043 122.533 54.7109C120.257 54.6141 119.932 56.0462 120.391 57.8654C120.907 59.6265 121.175 61.2328 123.03 61.1941C124.637 61.1554 125.574 59.6072 126.148 58.2525C126.568 57.2267 127.639 54.7109 124.751 54.7302ZM145.177 56.5107C145.483 54.4399 147.128 54.1303 148.792 54.9237C150.417 55.6979 149.996 57.459 149.958 58.9685V58.9879C151.163 59.762 152.272 59.762 152.846 58.2331C153.343 60.3426 152.464 61.6779 150.283 61.0393C149.958 60.9425 149.614 60.7877 149.289 60.5942C148.811 60.6716 148.352 60.8651 147.874 60.9812C143.666 62.1424 144.335 57.6332 146.401 57.1493C147.185 56.9558 147.988 57.2074 148.543 57.8073L148.562 57.846V57.8073C148.868 55.3882 146.65 55.1947 145.177 56.5107ZM148.084 59.4523C147.663 59.1814 147.644 58.5621 146.956 58.4073C146.344 58.2525 145.636 58.4653 145.827 59.2588C146.171 60.3813 147.415 60.0329 148.084 59.4523ZM144.068 58.446C144.01 58.117 143.896 57.846 143.685 57.6912C143.666 58.3105 143.245 58.6782 142.672 58.8718C141.562 59.2395 134.869 59.9749 136.169 58.1944C137.106 56.8978 140.09 56.0269 138.713 54.9431C137.259 53.9948 133.415 53.5884 133.683 56.2397C133.683 55.7559 136.246 55.3495 137.144 55.6398C136.093 56.3946 133.74 58.2718 134.945 59.6265C136.647 61.5038 144.718 62.2585 144.068 58.446ZM95.2607 53.3368C95.299 51.4596 95.3372 49.563 95.3564 47.7051V47.5503L95.5094 47.5309C98.7797 47.1826 101.266 48.1115 102.853 49.6404C103.733 50.4726 104.345 51.4983 104.67 52.6014C104.995 53.6852 105.034 54.8463 104.785 55.9495C104.364 57.7686 103.121 59.433 100.998 60.4587C99.8125 61.0199 98.1677 61.3489 96.7525 61.078C95.5859 60.8651 94.5531 60.2652 93.9985 59.1233C93.8838 58.8717 93.7881 58.6008 93.7308 58.3105C93.6734 58.0396 93.6351 57.7299 93.6351 57.3816V56.9171L93.9411 57.2655C94.075 57.4203 94.2089 57.5751 94.3045 57.6912C94.993 58.504 95.5094 59.1233 96.7334 59.4523C97.2497 59.5878 97.8044 59.5878 98.3399 59.491C99.0092 59.3749 99.6595 59.1427 100.233 58.8524C101.782 58.0976 102.643 56.9752 102.987 55.7559C103.217 54.9044 103.198 54.0142 102.949 53.1626C102.719 52.3111 102.26 51.4983 101.648 50.8403C100.616 49.7371 99.124 49.0017 97.3645 49.0985C97.3071 49.0985 97.2306 49.1372 97.1924 49.1759C97.1541 49.2146 97.1159 49.2727 97.1159 49.3307V58.7943V59.0266L96.9055 58.9685C96.6186 58.8911 96.3126 58.7363 96.0449 58.5815C95.758 58.4073 95.4711 58.1944 95.2416 57.9622L95.1842 57.9041V57.8267C95.2034 56.3752 95.2225 54.8657 95.2607 53.3368ZM58.8468 56.3365C59.1528 54.2657 60.7975 53.9561 62.4614 54.7496C64.087 55.5237 63.6663 57.2848 63.628 58.7943V58.8137C64.8329 59.5878 65.9421 59.5878 66.5159 58.0589C67.0131 60.1684 66.1334 61.5038 63.9531 60.8651C63.628 60.7683 63.2838 60.6329 62.9586 60.4393C62.4805 60.5361 62.0215 60.7103 61.5434 60.8264C57.3359 61.9876 58.0053 57.4783 60.0708 56.9945C60.8549 56.801 61.6581 57.0526 62.2127 57.6525L62.251 57.6912V57.6525C62.557 55.214 60.3194 55.0205 58.8468 56.3365ZM61.7537 59.2782C61.333 59.0072 61.3139 58.3879 60.6254 58.2331C60.0134 58.0783 59.3058 58.2912 59.497 59.0846C59.8413 60.2071 61.0844 59.8587 61.7537 59.2782ZM57.9096 65.6453C58.1582 65.9162 59.0763 66.3807 59.4014 66.3614C59.3823 66.3614 58.8085 67.6774 57.2402 66.5355C55.7676 65.1615 56.131 60.7877 56.2649 59.4136C56.2649 59.4136 54.8305 60.7103 53.071 59.5298C51.7896 58.6782 51.9044 56.6462 52.2486 55.7559C53.3196 52.9497 58.0435 54.827 58.1009 55.9301C56.9342 54.9044 54.295 55.7172 53.8743 56.7816C53.1475 58.6782 54.4671 59.5878 55.7485 58.117C57.0299 56.6655 55.6146 55.9495 57.9861 56.201C58.0244 57.7106 56.9916 64.6776 57.9096 65.6453ZM87.0561 57.3816C86.731 54.1883 86.6545 52.2724 86.731 51.0725C86.8075 50.0661 87.343 48.8469 88.5861 48.9243C88.567 48.9243 87.9932 47.6083 86.425 48.7501C84.9524 50.1242 85.3158 54.498 85.4496 55.872C85.4496 55.872 84.0153 54.5947 82.2558 55.7559C80.9744 56.6075 81.0891 58.6589 81.4334 59.5298C82.5044 62.3359 87.2091 60.4587 87.2856 59.3556C86.119 60.3813 83.4797 59.5685 83.059 58.5234C82.8869 58.0589 82.5809 56.7623 83.4606 56.4913C83.9196 56.3559 84.3978 56.5881 84.9333 57.188C86.2146 58.6395 84.7994 59.3556 87.1709 59.104C87.2091 58.504 87.0561 57.9235 87.0561 57.3816ZM41.2709 59.2782C40.8501 59.0072 40.831 58.3879 40.1425 58.2331C39.5305 58.0783 38.8229 58.2912 39.0141 59.0846C39.3584 60.2071 40.6015 59.8587 41.2709 59.2782ZM15.9494 59.2782C15.5286 59.0072 15.5095 58.3879 14.821 58.2331C14.209 58.0783 13.5014 58.2912 13.6926 59.0846C14.0369 60.2071 15.28 59.8587 15.9494 59.2782ZM103.408 40.08V32.1259C103.408 32.1259 102.222 29.4939 100.482 29.1649C97.9956 29.7068 97.441 32.3388 97.441 32.3388V40.08H103.408ZM89.8675 40.08C89.7336 23.1849 79.7695 20.9593 79.1766 20.8432C78.316 21.0173 68.6579 23.4365 68.524 40.08H89.8675ZM60.9505 40.08V32.3388C60.9505 32.3388 60.415 29.7068 57.9096 29.1649C56.1692 29.4939 54.9835 32.1259 54.9835 32.1259V40.0994H60.9505V40.08ZM90.3456 11.9795H91.9139C91.8756 9.4249 91.321 8.88302 91.1298 8.78625C90.9194 8.90237 90.3647 9.4249 90.3456 11.9795ZM67.2809 8.7669C67.0896 8.88302 66.535 9.40555 66.4967 11.9601H68.065C68.0267 9.4249 67.4721 8.88302 67.2809 8.7669Z" fill="white"/>
</g>
<defs>
<clipPath id="clip0">
<rect width="153" height="67" fill="white" transform="translate(0.000244141)"/>
</clipPath>
</defs>
</svg>
