<svg width="263" height="51" viewBox="0 0 263 51" fill="none" xmlns="http://www.w3.org/2000/svg">
<path d="M5.84481 51L73 42.1997L67.1552 0L0 8.80025L5.84481 51Z" fill="#81007F"/>
<path d="M55.712 14.6V37H49.376V28.264H40.736V37H34.4V14.6H40.736V23.016H49.376V14.6H55.712ZM67.245 19.368C70.125 19.368 72.3223 20.0293 73.837 21.352C75.3517 22.6533 76.109 24.6587 76.109 27.368V37H70.445V34.76C69.5703 36.4453 67.8637 37.288 65.325 37.288C63.981 37.288 62.8183 37.0533 61.837 36.584C60.8557 36.1147 60.109 35.4853 59.597 34.696C59.1063 33.8853 58.861 32.968 58.861 31.944C58.861 30.3013 59.4903 29.032 60.749 28.136C62.0077 27.2187 63.949 26.76 66.573 26.76H70.029C69.9223 24.9253 68.6957 24.008 66.349 24.008C65.517 24.008 64.6743 24.1467 63.821 24.424C62.9677 24.68 62.2423 25.0427 61.645 25.512L59.597 21.384C60.557 20.744 61.7197 20.2533 63.085 19.912C64.4717 19.5493 65.8583 19.368 67.245 19.368ZM67.021 33.448C67.725 33.448 68.3437 33.2773 68.877 32.936C69.4103 32.5947 69.7943 32.0933 70.029 31.432V29.928H67.405C65.6343 29.928 64.749 30.5147 64.749 31.688C64.749 32.2213 64.9517 32.648 65.357 32.968C65.7623 33.288 66.317 33.448 67.021 33.448ZM107.255 19.656V37H79.7668V19.656H85.8148V32.136H90.5188V19.656H96.5668V32.136H101.239V19.656H107.255ZM111.361 19.656H117.409V28.744L124.673 19.656H130.273V37H124.193V27.88L116.993 37H111.361V19.656ZM162.169 19.656L154.681 37.704C153.806 39.8373 152.74 41.3307 151.481 42.184C150.222 43.0587 148.686 43.496 146.873 43.496C145.956 43.496 145.028 43.3467 144.089 43.048C143.172 42.7707 142.425 42.3973 141.849 41.928L143.961 37.672C144.302 37.992 144.708 38.2373 145.177 38.408C145.668 38.6 146.158 38.696 146.649 38.696C147.225 38.696 147.694 38.5787 148.057 38.344C148.441 38.1093 148.761 37.736 149.017 37.224L141.593 19.656H147.833L152.089 30.248L156.377 19.656H162.169ZM172.377 37.288C170.457 37.288 168.74 36.904 167.225 36.136C165.71 35.368 164.526 34.3013 163.673 32.936C162.841 31.5707 162.425 30.024 162.425 28.296C162.425 26.568 162.841 25.032 163.673 23.688C164.526 22.3227 165.71 21.2667 167.225 20.52C168.74 19.752 170.457 19.368 172.377 19.368C174.34 19.368 176.036 19.7947 177.465 20.648C178.894 21.48 179.908 22.6427 180.505 24.136L175.801 26.536C175.012 24.9787 173.86 24.2 172.345 24.2C171.257 24.2 170.35 24.5627 169.625 25.288C168.921 26.0133 168.569 27.016 168.569 28.296C168.569 29.5973 168.921 30.6213 169.625 31.368C170.35 32.0933 171.257 32.456 172.345 32.456C173.86 32.456 175.012 31.6773 175.801 30.12L180.505 32.52C179.908 34.0133 178.894 35.1867 177.465 36.04C176.036 36.872 174.34 37.288 172.377 37.288ZM200.587 19.656V37H194.507V24.488H190.123L189.995 27.144C189.91 29.4053 189.686 31.272 189.323 32.744C188.96 34.216 188.363 35.368 187.531 36.2C186.699 37.0107 185.558 37.416 184.107 37.416C183.36 37.416 182.379 37.2773 181.163 37L181.419 32.04C181.803 32.0827 182.059 32.104 182.187 32.104C182.848 32.104 183.35 31.8907 183.691 31.464C184.032 31.0373 184.267 30.472 184.395 29.768C184.523 29.0427 184.608 28.0827 184.651 26.888L184.907 19.656H200.587ZM223.169 19.656L215.681 37.704C214.806 39.8373 213.74 41.3307 212.481 42.184C211.222 43.0587 209.686 43.496 207.873 43.496C206.956 43.496 206.028 43.3467 205.089 43.048C204.172 42.7707 203.425 42.3973 202.849 41.928L204.961 37.672C205.302 37.992 205.708 38.2373 206.177 38.408C206.668 38.6 207.158 38.696 207.649 38.696C208.225 38.696 208.694 38.5787 209.057 38.344C209.441 38.1093 209.761 37.736 210.017 37.224L202.593 19.656H208.833L213.089 30.248L217.377 19.656H223.169ZM239.67 24.488H231.19V37H225.142V19.656H239.67V24.488ZM242.048 19.656H248.096V28.744L255.36 19.656H260.96V37H254.88V27.88L247.68 37H242.048V19.656Z" fill="white"/>
</svg>
