<svg width="294" height="51" viewBox="0 0 294 51" fill="none" xmlns="http://www.w3.org/2000/svg">
<path d="M5.84481 51L73 42.1997L67.1552 0L0 8.80025L5.84481 51Z" fill="#81007F"/>
<path d="M55.712 14.6V37H49.376V28.264H40.736V37H34.4V14.6H40.736V23.016H49.376V14.6H55.712ZM67.245 19.368C70.125 19.368 72.3223 20.0293 73.837 21.352C75.3517 22.6533 76.109 24.6587 76.109 27.368V37H70.445V34.76C69.5703 36.4453 67.8637 37.288 65.325 37.288C63.981 37.288 62.8183 37.0533 61.837 36.584C60.8557 36.1147 60.109 35.4853 59.597 34.696C59.1063 33.8853 58.861 32.968 58.861 31.944C58.861 30.3013 59.4903 29.032 60.749 28.136C62.0077 27.2187 63.949 26.76 66.573 26.76H70.029C69.9223 24.9253 68.6957 24.008 66.349 24.008C65.517 24.008 64.6743 24.1467 63.821 24.424C62.9677 24.68 62.2423 25.0427 61.645 25.512L59.597 21.384C60.557 20.744 61.7197 20.2533 63.085 19.912C64.4717 19.5493 65.8583 19.368 67.245 19.368ZM67.021 33.448C67.725 33.448 68.3437 33.2773 68.877 32.936C69.4103 32.5947 69.7943 32.0933 70.029 31.432V29.928H67.405C65.6343 29.928 64.749 30.5147 64.749 31.688C64.749 32.2213 64.9517 32.648 65.357 32.968C65.7623 33.288 66.317 33.448 67.021 33.448ZM107.255 19.656V37H79.7668V19.656H85.8148V32.136H90.5188V19.656H96.5668V32.136H101.239V19.656H107.255ZM118.433 19.368C121.313 19.368 123.51 20.0293 125.025 21.352C126.539 22.6533 127.297 24.6587 127.297 27.368V37H121.633V34.76C120.758 36.4453 119.051 37.288 116.513 37.288C115.169 37.288 114.006 37.0533 113.025 36.584C112.043 36.1147 111.297 35.4853 110.785 34.696C110.294 33.8853 110.049 32.968 110.049 31.944C110.049 30.3013 110.678 29.032 111.937 28.136C113.195 27.2187 115.137 26.76 117.76 26.76H121.217C121.11 24.9253 119.883 24.008 117.536 24.008C116.705 24.008 115.862 24.1467 115.009 24.424C114.155 24.68 113.43 25.0427 112.833 25.512L110.785 21.384C111.745 20.744 112.907 20.2533 114.273 19.912C115.659 19.5493 117.046 19.368 118.433 19.368ZM118.209 33.448C118.913 33.448 119.531 33.2773 120.065 32.936C120.598 32.5947 120.982 32.0933 121.217 31.432V29.928H118.593C116.822 29.928 115.937 30.5147 115.937 31.688C115.937 32.2213 116.139 32.648 116.545 32.968C116.95 33.288 117.505 33.448 118.209 33.448ZM149.675 28.424H146.795V37H140.491V14.6H146.795V23.304H149.835L155.179 14.6H161.835L154.827 25.416L161.899 37H154.763L149.675 28.424ZM171.842 37.288C169.986 37.288 168.311 36.904 166.818 36.136C165.325 35.368 164.151 34.3013 163.298 32.936C162.466 31.5707 162.05 30.024 162.05 28.296C162.05 26.5893 162.466 25.0533 163.298 23.688C164.151 22.3227 165.314 21.2667 166.786 20.52C168.279 19.752 169.965 19.368 171.842 19.368C173.719 19.368 175.405 19.752 176.898 20.52C178.391 21.2667 179.554 22.3227 180.386 23.688C181.218 25.032 181.634 26.568 181.634 28.296C181.634 30.024 181.218 31.5707 180.386 32.936C179.554 34.3013 178.391 35.368 176.898 36.136C175.405 36.904 173.719 37.288 171.842 37.288ZM171.842 32.456C172.909 32.456 173.783 32.0933 174.466 31.368C175.149 30.6213 175.49 29.5973 175.49 28.296C175.49 27.016 175.149 26.0133 174.466 25.288C173.783 24.5627 172.909 24.2 171.842 24.2C170.775 24.2 169.901 24.5627 169.218 25.288C168.535 26.0133 168.194 27.016 168.194 28.296C168.194 29.5973 168.535 30.6213 169.218 31.368C169.901 32.0933 170.775 32.456 171.842 32.456ZM201.318 37V27.88L196.87 35.464H194.278L189.958 27.752V37H184.486V19.656H190.885L195.718 28.712L201.03 19.656H206.758L206.79 37H201.318ZM217.964 19.368C220.844 19.368 223.041 20.0293 224.556 21.352C226.07 22.6533 226.828 24.6587 226.828 27.368V37H221.164V34.76C220.289 36.4453 218.582 37.288 216.044 37.288C214.7 37.288 213.537 37.0533 212.556 36.584C211.574 36.1147 210.828 35.4853 210.316 34.696C209.825 33.8853 209.58 32.968 209.58 31.944C209.58 30.3013 210.209 29.032 211.468 28.136C212.726 27.2187 214.668 26.76 217.292 26.76H220.748C220.641 24.9253 219.414 24.008 217.068 24.008C216.236 24.008 215.393 24.1467 214.54 24.424C213.686 24.68 212.961 25.0427 212.364 25.512L210.316 21.384C211.276 20.744 212.438 20.2533 213.804 19.912C215.19 19.5493 216.577 19.368 217.964 19.368ZM217.74 33.448C218.444 33.448 219.062 33.2773 219.596 32.936C220.129 32.5947 220.513 32.0933 220.748 31.432V29.928H218.124C216.353 29.928 215.468 30.5147 215.468 31.688C215.468 32.2213 215.67 32.648 216.076 32.968C216.481 33.288 217.036 33.448 217.74 33.448ZM230.486 19.656H236.534V26.088H242.774V19.656H248.854V37H242.774V30.92H236.534V37H230.486V19.656ZM273.466 32.136V40.584H267.834V37H256.922V40.584H251.258V32.136H251.898C252.944 32.1147 253.669 31.5493 254.074 30.44C254.48 29.3093 254.725 27.7307 254.81 25.704L255.034 19.656H271.066V32.136H273.466ZM260.282 26.152C260.218 27.7093 260.101 28.9573 259.93 29.896C259.76 30.8347 259.44 31.5813 258.97 32.136H264.986V24.488H260.346L260.282 26.152ZM283.151 19.368C286.031 19.368 288.229 20.0293 289.743 21.352C291.258 22.6533 292.015 24.6587 292.015 27.368V37H286.351V34.76C285.477 36.4453 283.77 37.288 281.231 37.288C279.887 37.288 278.725 37.0533 277.743 36.584C276.762 36.1147 276.015 35.4853 275.503 34.696C275.013 33.8853 274.767 32.968 274.767 31.944C274.767 30.3013 275.397 29.032 276.655 28.136C277.914 27.2187 279.855 26.76 282.479 26.76H285.935C285.829 24.9253 284.602 24.008 282.255 24.008C281.423 24.008 280.581 24.1467 279.727 24.424C278.874 24.68 278.149 25.0427 277.551 25.512L275.503 21.384C276.463 20.744 277.626 20.2533 278.991 19.912C280.378 19.5493 281.765 19.368 283.151 19.368ZM282.927 33.448C283.631 33.448 284.25 33.2773 284.783 32.936C285.317 32.5947 285.701 32.0933 285.935 31.432V29.928H283.311C281.541 29.928 280.655 30.5147 280.655 31.688C280.655 32.2213 280.858 32.648 281.263 32.968C281.669 33.288 282.223 33.448 282.927 33.448Z" fill="white"/>
</svg>
