<svg width="293" height="51" viewBox="0 0 293 51" fill="none" xmlns="http://www.w3.org/2000/svg">
<path d="M5.84481 51L73 42.1997L67.1552 0L0 8.80025L5.84481 51Z" fill="#81007F"/>
<path d="M55.712 15.5995V37.9995H49.376V29.2635H40.736V37.9995H34.4V15.5995H40.736V24.0155H49.376V15.5995H55.712ZM67.245 20.3675C70.125 20.3675 72.3223 21.0288 73.837 22.3515C75.3517 23.6528 76.109 25.6582 76.109 28.3675V37.9995H70.445V35.7595C69.5703 37.4448 67.8637 38.2875 65.325 38.2875C63.981 38.2875 62.8183 38.0528 61.837 37.5835C60.8557 37.1142 60.109 36.4848 59.597 35.6955C59.1063 34.8848 58.861 33.9675 58.861 32.9435C58.861 31.3008 59.4903 30.0315 60.749 29.1355C62.0077 28.2182 63.949 27.7595 66.573 27.7595H70.029C69.9223 25.9248 68.6957 25.0075 66.349 25.0075C65.517 25.0075 64.6743 25.1462 63.821 25.4235C62.9677 25.6795 62.2423 26.0422 61.645 26.5115L59.597 22.3835C60.557 21.7435 61.7197 21.2528 63.085 20.9115C64.4717 20.5488 65.8583 20.3675 67.245 20.3675ZM67.021 34.4475C67.725 34.4475 68.3437 34.2768 68.877 33.9355C69.4103 33.5942 69.7943 33.0928 70.029 32.4315V30.9275H67.405C65.6343 30.9275 64.749 31.5142 64.749 32.6875C64.749 33.2208 64.9517 33.6475 65.357 33.9675C65.7623 34.2875 66.317 34.4475 67.021 34.4475ZM107.255 20.6555V37.9995H79.7668V20.6555H85.8148V33.1355H90.5188V20.6555H96.5668V33.1355H101.239V20.6555H107.255ZM128.929 29.3595C128.929 29.4022 128.897 29.9035 128.833 30.8635H116.225C116.481 31.7595 116.971 32.4528 117.697 32.9435C118.443 33.4128 119.371 33.6475 120.481 33.6475C121.313 33.6475 122.027 33.5302 122.625 33.2955C123.243 33.0608 123.862 32.6768 124.481 32.1435L127.681 35.4715C125.995 37.3488 123.531 38.2875 120.289 38.2875C118.262 38.2875 116.481 37.9035 114.945 37.1355C113.409 36.3675 112.214 35.3008 111.361 33.9355C110.529 32.5702 110.113 31.0235 110.113 29.2955C110.113 27.5888 110.518 26.0635 111.329 24.7195C112.161 23.3542 113.302 22.2875 114.753 21.5195C116.203 20.7515 117.835 20.3675 119.649 20.3675C121.377 20.3675 122.945 20.7302 124.353 21.4555C125.761 22.1595 126.87 23.1942 127.681 24.5595C128.513 25.9035 128.929 27.5035 128.929 29.3595ZM119.681 24.6875C118.742 24.6875 117.953 24.9542 117.312 25.4875C116.694 26.0208 116.299 26.7462 116.129 27.6635H123.233C123.062 26.7462 122.657 26.0208 122.017 25.4875C121.398 24.9542 120.619 24.6875 119.681 24.6875ZM149.582 31.8235H147.534V37.9995H141.454V20.6555H147.534V27.0555H149.71L153.966 20.6555H160.398L154.574 28.9755L160.782 37.9995H153.614L149.582 31.8235ZM170.842 38.2875C168.986 38.2875 167.311 37.9035 165.818 37.1355C164.325 36.3675 163.151 35.3008 162.298 33.9355C161.466 32.5702 161.05 31.0235 161.05 29.2955C161.05 27.5888 161.466 26.0528 162.298 24.6875C163.151 23.3222 164.314 22.2662 165.786 21.5195C167.279 20.7515 168.965 20.3675 170.842 20.3675C172.719 20.3675 174.405 20.7515 175.898 21.5195C177.391 22.2662 178.554 23.3222 179.386 24.6875C180.218 26.0315 180.634 27.5675 180.634 29.2955C180.634 31.0235 180.218 32.5702 179.386 33.9355C178.554 35.3008 177.391 36.3675 175.898 37.1355C174.405 37.9035 172.719 38.2875 170.842 38.2875ZM170.842 33.4555C171.909 33.4555 172.783 33.0928 173.466 32.3675C174.149 31.6208 174.49 30.5968 174.49 29.2955C174.49 28.0155 174.149 27.0128 173.466 26.2875C172.783 25.5622 171.909 25.1995 170.842 25.1995C169.775 25.1995 168.901 25.5622 168.218 26.2875C167.535 27.0128 167.194 28.0155 167.194 29.2955C167.194 30.5968 167.535 31.6208 168.218 32.3675C168.901 33.0928 169.775 33.4555 170.842 33.4555ZM200.318 37.9995V28.8795L195.87 36.4635H193.278L188.958 28.7515V37.9995H183.486V20.6555H189.885L194.718 29.7115L200.03 20.6555H205.758L205.79 37.9995H200.318ZM216.964 20.3675C219.844 20.3675 222.041 21.0288 223.556 22.3515C225.07 23.6528 225.828 25.6582 225.828 28.3675V37.9995H220.164V35.7595C219.289 37.4448 217.582 38.2875 215.044 38.2875C213.7 38.2875 212.537 38.0528 211.556 37.5835C210.574 37.1142 209.828 36.4848 209.316 35.6955C208.825 34.8848 208.58 33.9675 208.58 32.9435C208.58 31.3008 209.209 30.0315 210.468 29.1355C211.726 28.2182 213.668 27.7595 216.292 27.7595H219.748C219.641 25.9248 218.414 25.0075 216.068 25.0075C215.236 25.0075 214.393 25.1462 213.54 25.4235C212.686 25.6795 211.961 26.0422 211.364 26.5115L209.316 22.3835C210.276 21.7435 211.438 21.2528 212.804 20.9115C214.19 20.5488 215.577 20.3675 216.964 20.3675ZM216.74 34.4475C217.444 34.4475 218.062 34.2768 218.596 33.9355C219.129 33.5942 219.513 33.0928 219.748 32.4315V30.9275H217.124C215.353 30.9275 214.468 31.5142 214.468 32.6875C214.468 33.2208 214.67 33.6475 215.076 33.9675C215.481 34.2875 216.036 34.4475 216.74 34.4475ZM229.486 20.6555H235.534V27.0875H241.774V20.6555H247.854V37.9995H241.774V31.9195H235.534V37.9995H229.486V20.6555ZM272.466 33.1355V41.5835H266.834V37.9995H255.922V41.5835H250.258V33.1355H250.898C251.944 33.1142 252.669 32.5488 253.074 31.4395C253.48 30.3088 253.725 28.7302 253.81 26.7035L254.034 20.6555H270.066V33.1355H272.466ZM259.282 27.1515C259.218 28.7088 259.101 29.9568 258.93 30.8955C258.76 31.8342 258.44 32.5808 257.97 33.1355H263.986V25.4875H259.346L259.282 27.1515ZM282.151 20.3675C285.031 20.3675 287.229 21.0288 288.743 22.3515C290.258 23.6528 291.015 25.6582 291.015 28.3675V37.9995H285.351V35.7595C284.477 37.4448 282.77 38.2875 280.231 38.2875C278.887 38.2875 277.725 38.0528 276.743 37.5835C275.762 37.1142 275.015 36.4848 274.503 35.6955C274.013 34.8848 273.767 33.9675 273.767 32.9435C273.767 31.3008 274.397 30.0315 275.655 29.1355C276.914 28.2182 278.855 27.7595 281.479 27.7595H284.935C284.829 25.9248 283.602 25.0075 281.255 25.0075C280.423 25.0075 279.581 25.1462 278.727 25.4235C277.874 25.6795 277.149 26.0422 276.551 26.5115L274.503 22.3835C275.463 21.7435 276.626 21.2528 277.991 20.9115C279.378 20.5488 280.765 20.3675 282.151 20.3675ZM281.927 34.4475C282.631 34.4475 283.25 34.2768 283.783 33.9355C284.317 33.5942 284.701 33.0928 284.935 32.4315V30.9275H282.311C280.541 30.9275 279.655 31.5142 279.655 32.6875C279.655 33.2208 279.858 33.6475 280.263 33.9675C280.669 34.2875 281.223 34.4475 281.927 34.4475Z" fill="white"/>
</svg>
